<svg width="15" height="13" viewBox="0 0 15 13" fill="none" xmlns="http://www.w3.org/2000/svg">
<path d="M1.30664 5.50174C0.831903 5.50174 0.447052 5.88659 0.447052 6.36133C0.447052 6.83607 0.831903 7.22092 1.30664 7.22092L1.30664 5.50174ZM14.6931 6.96915C15.0288 6.63346 15.0288 6.0892 14.6931 5.75351L9.22269 0.283116C8.887 -0.0525743 8.34273 -0.0525743 8.00704 0.283116C7.67135 0.618806 7.67135 1.16307 8.00704 1.49876L12.8696 6.36133L8.00704 11.2239C7.67135 11.5596 7.67135 12.1039 8.00704 12.4395C8.34273 12.7752 8.887 12.7752 9.22269 12.4395L14.6931 6.96915ZM1.30664 7.22092L14.0853 7.22092L14.0853 5.50174L1.30664 5.50174L1.30664 7.22092Z" fill="#3E2E5F"/>
</svg>
