<svg width="90" height="14" viewBox="0 0 90 14" fill="none" xmlns="http://www.w3.org/2000/svg">
<g clip-path="url(#clip0_303_1525)">
<path d="M81.3297 13.211C80.2902 13.211 79.2727 13.1666 78.2332 13.2332C77.3705 13.2997 77.3927 12.7895 77.4148 12.1905C77.4148 11.5693 77.3263 11.0147 78.2774 11.0591C79.8257 11.1257 81.374 11.0813 82.9223 11.0813C84.2936 11.0591 84.8908 10.6598 84.8687 9.7946C84.8466 8.92942 84.183 8.46355 82.9444 8.44136C82.0154 8.41918 81.1086 8.46355 80.1796 8.41918C78.1226 8.30826 76.8839 7.02157 76.9061 5.1359C76.9282 3.22805 78.1889 1.89699 80.1796 1.83044C82.1924 1.76389 84.2273 1.83044 86.2622 1.78607C87.1248 1.76389 86.9921 2.29631 86.9921 2.80655C86.9921 3.33897 87.169 3.93795 86.24 3.91576C84.5812 3.87139 82.9223 3.89358 81.2634 3.91576C80.4229 3.91576 79.6487 4.09324 79.6709 5.1359C79.693 6.17856 80.4892 6.33385 81.3076 6.35604C82.5241 6.40041 83.7407 6.33385 84.9351 6.48914C86.8594 6.73317 87.6999 7.95331 87.6114 10.1274C87.545 11.7912 86.3727 13.0113 84.6917 13.1666C84.5812 13.1666 84.4706 13.1888 84.36 13.1888C83.3646 13.1888 82.3693 13.1888 81.374 13.1888C81.3297 13.211 81.3297 13.211 81.3297 13.211Z" fill="white"/>
<path d="M69.7175 13.2109C68.6779 13.2109 67.6605 13.1665 66.6209 13.2331C65.6698 13.2997 65.891 12.6563 65.891 12.1461C65.8689 11.5915 65.7362 11.0369 66.6651 11.059C68.324 11.1256 69.9829 11.0812 71.6418 11.059C72.4823 11.059 73.2343 10.8816 73.2564 9.81672C73.2564 8.72968 72.4823 8.48566 71.6197 8.44129C70.5801 8.39692 69.5627 8.46347 68.5231 8.39692C66.5103 8.26381 65.3159 7.02149 65.3159 5.15801C65.3159 3.25016 66.5767 1.89692 68.5673 1.83037C70.6244 1.76381 72.6814 1.83037 74.7605 1.786C75.6231 1.76381 75.4241 2.36279 75.4462 2.85085C75.4462 3.36108 75.5789 3.91569 74.7384 3.89351C73.0353 3.87132 71.3543 3.89351 69.6511 3.89351C68.8106 3.89351 68.0586 4.07098 68.0807 5.15801C68.1028 6.15631 68.8328 6.3116 69.6069 6.35596C70.8455 6.40033 72.1063 6.35596 73.3449 6.51125C75.1144 6.7331 76.0655 7.97542 76.0434 9.8389C76.0213 11.6136 74.849 13.0334 73.1237 13.1665C71.9957 13.2553 70.8455 13.1887 69.6954 13.1887C69.7175 13.1887 69.7175 13.2109 69.7175 13.2109Z" fill="white"/>
<path d="M30.7224 6.22292C30.7003 6.44476 30.8109 6.73316 30.5012 6.86627C30.3022 6.64442 30.3685 6.37821 30.3685 6.13418C30.3685 6.37821 30.3022 6.66661 30.5012 6.86627C30.4128 7.64272 29.9262 8.15296 29.2626 8.39698C28.5548 8.66319 28.7096 8.99596 29.0193 9.43964C29.6607 10.3714 30.2579 11.3253 30.8773 12.2792C31.2975 12.9004 31.0984 13.2775 30.3685 13.2332C29.6607 13.1888 28.9308 13.455 28.2452 13.0335C28.8202 12.7895 29.4174 12.9226 30.0146 12.9226C29.4174 12.9891 28.8202 12.7895 28.2452 13.0335C27.0508 11.8134 26.4757 10.1717 25.3698 8.90722C25.0159 8.46353 24.5071 8.7963 24.0869 8.66319C23.7551 8.53009 23.3349 8.66319 23.0694 8.33043C22.8704 7.77582 22.6713 7.22121 23.4455 6.93282C24.3081 7.11029 25.1707 7.02156 26.0112 7.02156C26.166 6.97719 26.3209 6.93282 26.4757 6.84408C26.7853 6.68879 27.0729 6.5335 27.3825 6.40039C28.0903 6.00108 28.1125 5.46865 27.7586 4.82531C27.3604 4.49255 27.0065 4.11541 26.4978 3.93794C25.2592 3.60517 23.9763 4.02667 22.7377 3.71609C22.5607 3.11712 22.5607 2.54033 22.7155 1.94135C22.8704 1.83043 23.0252 1.83043 23.18 1.89698C23.2464 2.0079 23.2243 2.09664 23.1358 2.18538C23.0916 2.62906 22.6934 3.1393 23.4455 3.38333C24.286 3.38333 25.1265 3.38333 25.8121 3.38333C25.0159 3.27241 24.0648 3.53862 23.1137 3.27241C23.0473 2.89528 22.981 2.51814 23.18 2.14101C24.0869 1.71951 25.0601 2.0079 25.9891 1.94135C26.8296 1.89698 27.6701 1.94135 28.5106 1.91917C28.5769 1.91917 28.6433 1.91917 28.7096 1.91917C29.6386 2.27412 30.4791 2.7178 30.5012 3.89357C30.3022 4.09323 30.3907 4.38162 30.3464 4.67002C30.4128 4.38162 30.3022 4.09323 30.5012 3.89357C30.7888 4.02667 30.7003 4.29289 30.7224 4.51473C30.8551 5.09152 30.8773 5.66831 30.7224 6.22292Z" fill="white"/>
<path d="M32.6692 4.31504C33.0894 3.2502 33.8414 2.56248 34.9031 2.16317C35.1685 2.62904 35.1022 2.03006 35.2349 2.07443C35.633 2.07443 35.9869 1.80822 36.4072 1.94132C37.7564 2.07443 39.1277 1.76385 40.477 2.14098C40.7866 3.20583 40.5876 3.53859 39.5259 3.60515C38.7075 3.64951 37.867 3.58296 37.0486 3.64951C36.7832 3.73825 36.4514 3.73825 36.2523 4.02665C35.5667 4.49252 34.881 4.98057 34.8146 5.9345C34.5935 6.22289 34.7041 6.46692 34.9695 6.66658C35.0801 6.71095 35.1907 6.75532 35.3013 6.75532C36.5841 6.79968 37.867 6.75532 39.1499 6.7775C39.4816 6.7775 39.8134 6.7775 40.1231 6.88842C40.477 7.02153 40.6318 7.28774 40.5876 7.66487C40.5212 8.04201 40.2558 8.08637 39.924 8.08637C38.3757 8.08637 36.8495 8.08637 35.3013 8.08637C36.6947 8.10856 38.0661 8.08637 39.4595 8.10856C39.7913 8.10856 40.2116 7.93108 40.4549 8.3304C39.8798 8.79627 39.2162 8.48569 38.5748 8.53006C37.6237 8.57443 36.6726 8.53006 35.7215 8.55224C34.6598 8.55224 34.6156 8.6188 34.9252 9.77238C35.3455 10.5488 36.0533 10.9038 36.8717 11.1256C36.938 11.1922 37.0265 11.2587 37.115 11.3031C37.2698 11.3696 37.4246 11.4362 37.5795 11.4362C38.243 11.4806 38.9066 11.414 39.5701 11.4584C40.5876 11.5471 40.7645 11.8577 40.4106 12.9226C39.3932 13.2109 38.3536 13.0113 37.3362 13.0557C36.6726 12.7451 36.009 12.5454 35.3013 12.9226C35.1464 12.9669 34.9695 12.9669 34.8146 12.8782C33.3991 12.2127 32.3595 11.2365 32.1826 9.59491C32.0498 9.30651 32.1162 9.01811 32.1162 8.70753C32.2047 7.95327 32.1383 7.17682 32.1383 6.42255C32.271 5.66828 32.4701 4.98057 32.6692 4.31504Z" fill="white"/>
<path d="M2.85346 8.37465C2.85346 9.94974 3.82668 10.9702 5.39709 11.0146C6.52513 11.059 7.65317 11.059 8.78121 11.0811C8.71486 11.5692 8.33884 11.4583 8.02918 11.4805C7.38775 11.5248 6.74631 11.4361 6.127 11.5248C7.07809 11.4139 8.02918 11.5914 8.95816 11.4139C9.06875 11.3917 9.17934 11.4139 9.26782 11.5026C9.26782 11.9463 9.26782 12.39 9.26782 12.8337C8.29461 13.2774 7.27716 12.9668 6.28183 13.0555C5.75098 13.0999 5.19802 13.0555 4.64506 13.0555C4.26905 13.0555 3.87091 13.0555 3.4949 13.0777C2.74287 12.8781 1.96873 12.7228 1.50424 11.9907C0.862804 11.1699 0.531027 10.216 0.331961 9.21766C0.265605 8.95145 0.398316 8.66305 0.19925 8.3081C0.19925 8.26373 0.0886578 8.48558 0.243487 8.44121C0.309842 8.41902 0.331961 8.52994 0.309842 8.61868C0.287724 8.7296 0.265605 8.81834 0.177132 8.88489C-0.0219345 7.97534 -0.0219345 7.0436 0.177132 6.13404C0.376198 6.31151 0.354079 6.51117 0.309842 6.59991C0.265605 6.40025 0.398316 6.06749 0.221369 5.73472C0.553145 4.27056 1.01763 2.91732 2.61016 2.36271C3.16312 2.05213 3.62761 2.6511 4.11422 2.49581C4.29116 2.49581 4.15845 2.25179 4.15845 2.38489C4.15845 2.42926 4.13634 2.45145 4.11422 2.45145C3.89303 2.49581 3.60549 2.60674 3.53914 2.25179C3.51702 2.07431 3.71608 2.07431 3.8488 2.05213C4.22481 2.0965 4.60082 1.94121 4.97684 1.94121C6.03852 1.94121 7.07809 1.94121 8.13978 1.94121C8.53791 1.94121 8.93604 1.87465 9.28994 2.16305C9.28994 2.60674 9.28994 3.05042 9.28994 3.49411C9.20146 3.56066 9.09087 3.60503 8.98028 3.60503C7.76376 3.47192 6.56937 3.67158 5.37497 3.47192C5.35285 3.47192 5.30861 3.47192 5.30861 3.49411C5.30861 3.53848 5.33073 3.56066 5.33073 3.60503C5.24226 3.98216 4.77777 3.69377 4.62294 3.98216L4.64506 3.95998C3.80456 4.11527 3.27372 4.64769 2.87558 5.33541C2.87558 5.60162 2.87558 5.86783 2.87558 6.13404C2.63228 6.88831 2.6544 7.64257 2.85346 8.37465Z" fill="white"/>
<path d="M36.274 1.96336C35.9201 2.11865 35.5441 2.20739 35.1681 2.18521C35.1681 2.14084 35.146 2.09647 35.146 2.0521C36.9818 1.49749 38.8619 1.80807 40.7199 1.85244C41.5825 1.87463 41.0737 2.80637 41.1843 3.31661C41.2949 3.82685 40.9189 4.00432 40.4323 4.00432C39.1716 3.98214 37.9329 4.00432 36.6722 4.00432C36.7164 3.36098 37.2251 3.56063 37.579 3.56063C38.508 3.49408 39.4591 3.605 40.3881 3.49408C40.4765 3.44971 40.565 3.36098 40.6093 3.27224C40.6756 2.91729 40.7198 2.54016 40.5208 2.20739C40.3881 2.07429 40.2111 2.09647 40.0342 2.09647C38.7955 1.98555 37.5127 2.16302 36.274 1.96336Z" fill="white"/>
<path d="M13.6252 11.6802C13.5588 11.5471 13.5146 11.3918 13.4482 11.2587C13.4482 11.0147 13.5146 10.7928 13.6694 10.5931C13.8906 10.5044 14.0233 10.3713 14.1118 10.1495C15.5053 9.97199 16.9208 9.97199 18.3143 10.1495C18.7124 10.571 19.2212 10.9703 18.8451 11.6802C18.5355 10.7706 17.9383 10.4822 17.0093 10.6153C16.5006 10.6819 15.9697 10.6819 15.4831 10.6153C14.532 10.46 13.9348 10.7928 13.6252 11.6802Z" fill="white"/>
<path d="M34.6816 6.82184C34.6816 6.75528 34.6816 6.66655 34.6816 6.59999C34.7259 6.51126 34.7922 6.4447 34.8807 6.42252C36.8714 6.51126 38.8841 6.24505 40.8748 6.55563C40.9633 6.71092 40.919 6.82184 40.7863 6.91057C38.7736 6.88839 36.7165 7.04368 34.6816 6.82184Z" fill="white"/>
<path d="M40.8748 6.82188C40.8748 6.73314 40.8748 6.6444 40.8969 6.55566C41.5162 7.11027 41.1844 7.79798 41.0517 8.37478C40.9411 8.81846 40.3439 8.6188 39.9679 8.6188C38.6187 8.64099 37.2474 8.68536 35.8981 8.59662C34.9913 8.55225 34.7922 8.9072 34.9692 9.68365C34.3941 8.4857 34.4383 8.35259 35.6106 8.35259C37.2252 8.35259 38.8399 8.35259 40.4324 8.35259C40.7642 7.90891 40.2555 7.19901 40.8748 6.82188Z" fill="white"/>
<path d="M4.40178 12.8115C6.01643 12.8115 7.65319 12.8115 9.26784 12.8115C9.31208 13.2774 8.9803 13.2552 8.69276 13.233C7.25506 13.2108 5.83948 13.1887 4.40178 13.1887C4.26907 13.0556 4.26907 12.9446 4.40178 12.8115Z" fill="white"/>
<path d="M9.26787 2.16302C7.78593 2.16302 6.30399 2.16302 4.82206 2.16302C4.71146 1.98555 4.42392 2.11865 4.33545 1.91899C5.86162 1.6306 7.40991 1.85244 8.95821 1.80807C9.15727 1.78589 9.26787 1.96336 9.26787 2.16302Z" fill="white"/>
<path d="M9.02413 3.49419C9.11261 3.49419 9.17896 3.49419 9.26744 3.49419C9.26744 4.11535 8.80295 3.96006 8.47117 3.96006C7.1883 3.98224 5.90543 3.96006 4.62256 3.98224C4.84374 3.82695 5.06493 3.67166 5.28611 3.49419C6.52475 3.31672 7.7855 3.31672 9.02413 3.49419Z" fill="white"/>
<path d="M32.271 8.59651C32.271 8.90709 32.2489 9.21767 32.2489 9.55044C31.6959 7.75351 31.6959 6.00095 32.6913 4.31494C32.7576 5.04702 32.5143 5.71255 32.271 6.37808C32.4258 7.11016 32.4258 7.86443 32.271 8.59651Z" fill="white"/>
<path d="M34.8809 12.8339C35.0357 12.8117 35.2126 12.7895 35.3675 12.7895C35.7214 12.5455 36.1195 12.7451 36.4734 12.7451C37.889 13.0779 39.3267 12.9448 40.7644 12.8782C40.8971 12.9004 41.0077 12.967 41.1183 13.0557C39.017 13.3663 36.9379 13.5438 34.8809 12.8339Z" fill="white"/>
<path d="M41.1182 13.0333C41.0297 13.0333 40.9634 13.0333 40.8749 13.0333C40.8085 12.9446 40.7422 12.8558 40.6979 12.7449C40.5873 12.3678 40.7864 11.9463 40.4767 11.5913C39.7247 11.3695 38.9506 11.5248 38.1764 11.4804C37.7341 11.4582 37.2917 11.5248 36.8936 11.2586C36.8936 11.192 36.8936 11.1255 36.8936 11.0589C37.8889 11.0589 38.8842 11.1033 39.8574 11.0146C40.9633 10.9036 41.3172 11.3695 41.1624 12.39C41.1403 12.5896 41.1403 12.8115 41.1182 13.0333Z" fill="white"/>
<path d="M23.2023 1.98561C23.0475 1.96343 22.8926 1.96343 22.7378 1.94125C24.7285 1.63067 26.7412 1.65285 28.7319 1.94125L28.6655 2.0078C26.8518 2.07435 25.0381 2.09654 23.2023 1.98561Z" fill="white"/>
<path d="M23.6448 7.06596C22.8043 7.26562 23.3351 7.93115 23.1803 8.37484C23.0918 8.44139 22.9812 8.44139 22.8928 8.37484C22.6273 7.9977 22.7822 7.5762 22.7158 7.17689C22.7158 7.13252 22.7158 7.06596 22.7158 7.0216C23.9545 6.66665 25.2373 6.95504 26.476 6.86631C26.4096 6.93286 26.3211 6.99941 26.2548 7.06596C25.3922 7.22125 24.5295 7.19907 23.6448 7.06596Z" fill="white"/>
<path d="M0.397942 9.26215C0.508535 9.30651 0.685482 9.35088 0.685482 9.37307C0.397942 10.4157 1.26056 11.1034 1.48175 11.9908C0.663364 11.2587 0.309469 10.327 0.176758 9.26215C0.265232 9.15122 0.331587 9.15122 0.397942 9.26215Z" fill="white"/>
<path d="M40.8747 3.49417C39.9457 3.98223 38.9504 3.58291 37.9993 3.71601C37.5569 3.78257 37.0482 3.53854 36.6722 3.96004C36.5395 3.96004 36.3847 3.98223 36.252 3.98223C36.2962 3.7382 36.451 3.58291 36.6943 3.47199C38.0878 3.3167 39.4812 3.3167 40.8747 3.49417Z" fill="white"/>
<path d="M9.2676 11.4806C9.17913 11.4806 9.11277 11.4806 9.0243 11.4806C7.76355 11.6581 6.52491 11.6581 5.26416 11.4806C5.70653 10.9704 6.28161 11.3697 6.76822 11.2588C7.43177 11.1257 8.11744 11.4362 8.75888 11.0813C9.04642 11.1035 9.22336 11.2144 9.2676 11.4806Z" fill="white"/>
<path d="M21.8751 12.8115C21.8751 12.5897 21.8751 12.3678 21.8751 12.146C22.2068 12.3678 22.4059 12.7228 22.2511 13.0777C22.0963 13.4327 21.6539 13.2774 21.3442 13.2552C20.7028 13.2108 20.0171 13.4992 19.4199 13.0556L19.4863 12.989C20.2604 12.7672 21.1009 13.1221 21.8751 12.8115Z" fill="white"/>
<path d="M22.7598 3.71608C24.0205 3.827 25.2813 3.42768 26.5199 3.93792C25.2592 3.78263 23.9984 4.1154 22.7598 3.71608Z" fill="white"/>
<path d="M89.7566 1.76382C89.6902 1.87474 89.6238 1.96348 89.5575 2.0744C89.469 2.22969 89.3584 2.18532 89.2478 2.09659C89.2036 2.03003 89.1594 1.96348 89.1151 1.87474C89.0709 1.76382 89.0266 1.63072 88.9824 1.51979C88.9603 1.43106 88.9603 1.34232 88.9824 1.27577C89.0266 1.14266 89.0709 1.03174 89.1372 0.920819C89.1594 0.832081 89.2036 0.765528 89.2478 0.676791C89.3142 0.56587 89.4248 0.477132 89.5133 0.366211C89.6681 0.499317 89.8229 0.632423 89.9777 0.765528C89.9777 1.12048 90.0441 1.47543 89.7566 1.76382Z" fill="white"/>
<path d="M89.3146 1.94136C89.403 1.98573 89.4915 2.0301 89.5579 2.09665C89.1376 2.78437 88.6731 2.80655 88.1865 2.16321C88.2086 2.14102 88.2308 2.09665 88.2529 2.05228C88.3413 1.96355 88.4298 1.89699 88.5404 1.83044C88.6289 1.76389 88.7395 1.69734 88.8501 1.63078C88.9386 1.6086 89.0049 1.6086 89.0934 1.65297C89.204 1.71952 89.2261 1.85263 89.3146 1.94136Z" fill="white"/>
<path d="M13.0498 13.0777C12.2093 13.4548 11.3246 13.1886 10.4841 13.233C10.1965 13.2552 10.1523 13.0111 10.3071 12.7893L10.3956 12.8337C11.2361 13.0999 12.1208 12.7671 12.9834 13.0111L13.0498 13.0777Z" fill="white"/>
<path d="M23.8438 8.81841C22.4282 8.90715 22.2291 8.61875 22.7157 7.02148L22.7599 7.08804C23.0254 7.50954 22.6272 8.06415 23.0032 8.48565C23.2687 8.53002 23.5562 8.46346 23.8216 8.5522C23.9322 8.61875 23.9543 8.70749 23.8438 8.81841Z" fill="white"/>
<path d="M2.85352 5.33552C3.11894 4.44815 3.64978 3.91572 4.62299 3.96009C3.9152 4.27067 3.47283 4.91402 2.85352 5.33552Z" fill="white"/>
<path d="M3.7379 2.16304C3.7379 2.67328 4.3351 2.14085 4.40146 2.54017C3.76002 2.7842 3.20706 2.3627 2.60986 2.3627C2.91952 2.0743 3.33977 2.05212 3.71579 1.96338C3.80426 2.00775 3.82638 2.05212 3.80426 2.09648C3.78214 2.14085 3.76002 2.16304 3.7379 2.16304Z" fill="white"/>
<path d="M27.7808 4.8252C28.4001 5.97878 28.4001 6.00096 27.4048 6.40028C27.7366 5.93441 27.9356 5.42417 27.7808 4.8252Z" fill="white"/>
<path d="M88.2083 2.14086C87.788 1.69718 87.6111 1.23131 88.0092 0.698885C88.0977 0.56578 88.2083 0.543595 88.3189 0.654517C88.6064 1.16476 88.5843 1.67499 88.2525 2.16305L88.2083 2.14086Z" fill="#FAFAFA"/>
<path d="M2.8533 8.37465C2.47729 7.62038 2.47729 6.8883 2.8533 6.13403C2.87542 6.8883 2.8533 7.64257 2.8533 8.37465Z" fill="white"/>
<path d="M22.7378 1.94141C22.7378 2.54038 22.7378 3.11717 22.76 3.71615C22.4061 3.11717 22.4061 2.5182 22.7378 1.94141Z" fill="white"/>
<path d="M4.40149 12.8117C4.40149 12.9448 4.40149 13.0557 4.40149 13.1888C4.09183 13.2332 3.76005 13.3219 3.49463 13.0557C3.71581 12.7229 4.06971 12.8339 4.40149 12.8117Z" fill="white"/>
<path d="M34.903 6.42259C34.8366 6.48915 34.7702 6.53351 34.7039 6.60007C34.4385 6.31167 34.2394 6.02328 34.8366 5.91235C34.8587 6.06764 34.8808 6.24512 34.903 6.42259Z" fill="white"/>
<path d="M23.8438 8.81843C23.8438 8.75187 23.8438 8.68532 23.8438 8.59658C23.9101 8.50784 23.9986 8.50784 24.0649 8.59658C24.5073 8.7075 25.0603 8.33037 25.3699 8.92935C24.8833 8.88498 24.3746 8.84061 23.8438 8.81843Z" fill="white"/>
<path d="M30.7227 6.22284C30.7227 5.64605 30.7227 5.09144 30.7227 4.51465C31.1429 5.09144 31.1429 5.66823 30.7227 6.22284Z" fill="white"/>
<path d="M0.199022 5.71265C0.552917 6.04541 0.353851 6.44473 0.243259 6.84405C0.221141 6.60002 0.199022 6.35599 0.154785 6.11196C0.176904 5.97886 0.199022 5.84575 0.199022 5.71265Z" fill="white"/>
<path d="M35.124 2.03003C35.124 2.0744 35.1461 2.11877 35.1461 2.16314C35.301 2.27406 35.4337 2.40716 35.6106 2.54027C35.2125 2.62901 34.9471 2.58464 34.9028 2.14095C34.9913 2.11877 35.0577 2.0744 35.124 2.03003Z" fill="white"/>
<path d="M20.371 8.35244C19.9287 8.1306 19.8844 7.7091 19.8623 7.2876C20.2604 7.53162 20.2826 7.97531 20.371 8.35244Z" fill="white"/>
<path d="M19.6632 7.04357C19.4199 6.71081 19.1766 6.40023 19.3536 5.95654C19.6411 6.26712 19.7296 6.64426 19.6632 7.04357Z" fill="white"/>
<path d="M3.73794 2.16322C3.73794 2.09666 3.73794 2.03011 3.71582 1.96356C3.91489 1.94137 4.13607 1.91919 4.33514 1.91919C4.5342 1.96356 4.73327 1.96356 4.82174 2.16322C4.46785 2.16322 4.09183 2.16322 3.73794 2.16322Z" fill="white"/>
<path d="M14.8193 1.94141C15.0405 2.29636 15.0405 2.56257 14.5317 2.56257C14.6202 2.36291 14.7308 2.16325 14.8193 1.94141Z" fill="white"/>
<path d="M0.398234 9.26213C0.331879 9.26213 0.243405 9.26213 0.177049 9.26213C0.154931 9.12902 0.154931 8.99592 0.132812 8.86281C0.154931 8.70752 0.199168 8.53005 0.221286 8.37476C0.265523 8.37476 0.331879 8.37476 0.376116 8.37476C0.398234 8.66315 0.398234 8.95155 0.398234 9.26213Z" fill="white"/>
<path d="M88.4077 0.654607C88.4962 0.56587 88.6068 0.454948 88.6953 0.366211C88.8058 0.388395 88.9386 0.388395 89.0491 0.41058C89.1376 0.432764 89.1819 0.499317 89.1819 0.588054C89.1376 0.72116 89.0491 0.809897 88.9164 0.87645C88.828 0.920818 88.7616 0.920818 88.6731 0.920818C88.5847 0.898634 88.5183 0.832081 88.4519 0.787713C88.4519 0.72116 88.4298 0.698975 88.4077 0.654607Z" fill="white"/>
<path d="M89.1152 0.588086C89.0931 0.521534 89.0709 0.477165 89.0488 0.410612C89.2037 0.410612 89.3585 0.388428 89.5354 0.388428C89.5354 0.565902 89.5133 0.721192 89.3364 0.832114C89.2921 0.832114 89.2479 0.809929 89.2258 0.809929C89.1594 0.743377 89.1373 0.676824 89.1152 0.588086Z" fill="white"/>
<path d="M52.7747 3.82693C52.1775 2.49587 51.0715 1.83034 49.5896 1.83034C47.6653 1.80815 45.7631 1.85252 43.8388 1.80815C43.0868 1.78597 42.9098 2.05218 42.932 2.78426C42.9762 4.33716 42.9541 5.89007 42.9541 7.44297C42.9541 9.10679 42.9541 10.7706 42.9541 12.4344C42.9541 12.745 42.8435 13.1 43.3301 13.2331C44.7236 13.6546 45.4535 13.1665 45.4535 11.7467C45.4535 11.1477 45.4756 10.571 45.4535 9.97198C45.4313 9.41737 45.6083 9.17334 46.2055 9.19553C47.3778 9.2399 48.5722 9.21771 49.7444 9.21771C50.9167 9.21771 51.9121 8.81839 52.5535 7.77573C53.2834 6.48904 53.3719 5.15798 52.7747 3.82693ZM48.8155 7.19894C47.9307 7.24331 47.046 7.19894 46.1613 7.22112C45.6525 7.24331 45.3871 7.08802 45.4313 6.53341C45.4535 6.37812 45.4313 6.24501 45.4313 6.08972C45.4092 3.89348 45.4092 3.89348 47.6211 3.89348C48.0192 3.89348 48.4395 3.87129 48.8376 3.89348C49.9877 3.96003 50.4744 4.44809 50.4522 5.53512C50.4301 6.62215 49.9435 7.15457 48.8155 7.19894Z" fill="white"/>
<path d="M64.4311 12.3458C63.104 9.2622 61.799 6.17858 60.5825 3.0506C60.2065 2.07449 59.7641 1.51988 58.6139 1.89701C57.4638 1.45333 57.0656 2.18541 56.6675 3.13933C55.451 6.17858 54.1902 9.21783 52.9074 12.2349C52.5977 12.967 52.5977 13.3441 53.5267 13.2332C53.9248 13.1888 54.3451 13.211 54.7432 13.2332C55.2077 13.2776 55.5616 13.1223 55.6501 12.6342C55.9818 10.7707 57.1762 10.2383 58.9015 10.5489C59.2554 10.6154 59.6314 10.5933 60.0074 10.5489C60.5604 10.5045 60.9143 10.7042 61.0912 11.2366C61.2239 11.6581 61.4893 12.0352 61.5999 12.4567C61.7548 13.1001 62.1308 13.2554 62.728 13.211C63.0819 13.1666 63.4579 13.1888 63.8339 13.211C64.5859 13.2776 64.7629 13.1001 64.4311 12.3458ZM59.6314 8.50794C59.565 8.50794 59.4766 8.50794 59.4102 8.50794C57.0435 8.61886 57.0435 8.61886 57.9061 6.42261C58.1052 5.91237 58.3264 5.42432 58.636 4.64787C59.1448 5.89019 59.565 6.88848 60.0074 7.88677C60.2286 8.35264 60.0959 8.50794 59.6314 8.50794Z" fill="white"/>
<path d="M21.8531 12.124C21.4329 10.8373 21.0347 9.52844 20.3712 8.35268C20.0615 8.06428 20.1058 7.62059 19.8624 7.28783C19.7961 7.19909 19.7297 7.13254 19.6634 7.0438C19.5086 6.68885 19.4864 6.31172 19.3537 5.95677C18.8892 4.75882 18.4247 3.58305 17.9603 2.3851C17.8497 2.11889 17.717 1.78612 17.3852 1.78612C16.5226 1.80831 15.6599 1.56428 14.8194 1.94141C14.8194 2.20762 14.7973 2.42947 14.5098 2.54039C14.2444 3.095 13.9789 3.6496 13.7356 4.2264C12.6297 7.08817 11.2584 9.83902 10.2852 12.7452C10.3515 12.8561 10.4179 12.9226 10.5285 12.967C11.3026 13.0557 12.0768 12.967 12.8509 13.0336C12.8951 13.0336 12.9615 13.0557 13.0057 13.0557C13.3154 12.6564 13.4481 12.1684 13.5808 11.6803C13.4923 11.525 13.5808 11.3476 13.5587 11.1923C13.5366 10.9704 13.6914 10.8595 13.8241 10.7264C13.9789 10.5267 14.178 10.3714 14.3992 10.2827C15.5715 10.194 16.7437 10.194 17.916 10.2827C18.5575 10.5267 18.7344 11.0592 18.7786 11.6803C18.9556 12.1462 19.1547 12.5899 19.3316 13.0557C19.398 13.0557 19.4422 13.0557 19.5086 13.0557C20.2827 12.9448 21.079 13.2554 21.831 12.8561C22.0079 12.5899 22.0079 12.368 21.8531 12.124ZM17.4073 8.57452C16.611 8.79636 15.8369 8.77418 15.0406 8.57452C14.8194 8.37486 14.731 8.1752 14.93 7.90899C14.9743 7.84244 14.9964 7.77588 15.0185 7.70933C15.3945 6.79977 15.7705 5.89022 16.235 4.82537C16.7216 6.02332 17.164 7.06599 17.5842 8.10865C17.6948 8.30831 17.5179 8.44141 17.4073 8.57452Z" fill="white"/>
<path d="M18.3143 10.1495C16.9209 10.1495 15.5053 10.1495 14.1118 10.1495C15.5274 9.79456 16.9209 9.79456 18.3143 10.1495Z" fill="white"/>
<path d="M15.0407 8.57446C15.8369 8.57446 16.6111 8.57446 17.4073 8.57446C16.5668 9.0847 15.6821 8.79631 14.7974 8.72975C14.8195 8.70757 14.8195 8.6632 14.8416 8.6632C14.908 8.61883 14.9743 8.59665 15.0407 8.57446Z" fill="white"/>
<path d="M12.9834 13.0113C12.1207 12.967 11.236 13.2332 10.3955 12.8339C11.2581 12.8782 12.1429 12.612 12.9834 13.0113Z" fill="white"/>
<path d="M21.8751 12.8116C21.1231 13.3218 20.2826 12.9447 19.4863 12.9891C20.2605 12.6119 21.0789 12.9003 21.8751 12.8116Z" fill="white"/>
<path d="M15.4829 1.9856C15.9695 1.9856 16.4561 1.9856 16.9427 1.9856C16.9427 2.02996 16.9427 2.05215 16.9427 2.09652C16.4561 2.09652 15.9695 2.09652 15.4829 2.09652C15.505 2.05215 15.4829 2.00778 15.4829 1.9856Z" fill="white"/>
<path d="M13.6692 10.5933C13.6692 10.8373 13.7134 11.1035 13.448 11.2588C13.072 10.8817 13.448 10.7486 13.6692 10.5933Z" fill="white"/>
<path d="M23.2023 1.9856C25.016 1.9856 26.8297 2.00778 28.6434 2.00778C26.8297 2.36273 24.9939 2.07433 23.1802 2.16307C23.2023 2.09652 23.2023 2.02996 23.2023 1.9856Z" fill="white"/>
<path d="M23.1801 3.27246C24.1976 3.27246 25.215 3.27246 26.2325 3.27246C26.2325 3.33901 26.2325 3.42775 26.2325 3.4943C25.215 3.4943 24.1976 3.4943 23.1801 3.4943C23.1138 3.44994 23.1138 3.40557 23.1138 3.33901C23.158 3.29465 23.1801 3.27246 23.1801 3.27246Z" fill="white"/>
<path d="M23.6445 7.06592C24.5293 7.06592 25.3919 7.06592 26.2766 7.06592C25.3919 7.39868 24.5293 7.3765 23.6445 7.06592Z" fill="white"/>
<path d="M28.2451 13.0335C28.8866 12.5899 29.5501 12.8782 30.2358 13.0335C29.5722 13.0557 28.9308 13.0557 28.2451 13.0335Z" fill="white"/>
<path d="M23.18 3.2723C23.18 3.33885 23.18 3.42759 23.18 3.49414C22.8482 3.05046 22.8482 2.60677 23.18 2.16309C23.2021 2.51803 23.2021 2.89517 23.18 3.2723Z" fill="white"/>
<path d="M30.5237 3.89355C30.5016 4.20413 30.4795 4.51472 30.4352 4.93622C30.1919 4.49253 30.214 4.18195 30.5237 3.89355Z" fill="white"/>
<path d="M30.5237 6.86612C30.214 6.57772 30.1919 6.26714 30.4352 5.80127C30.4795 6.22277 30.5016 6.53335 30.5237 6.86612Z" fill="white"/>
<path d="M24.0871 8.59652C24.0207 8.59652 23.9322 8.59652 23.8659 8.59652C23.5783 8.59652 23.2687 8.59652 22.9811 8.59652C22.9369 8.55215 22.9148 8.50778 22.9369 8.44123C22.959 8.39686 22.9811 8.37467 23.0033 8.37467C23.0696 8.37467 23.1581 8.37467 23.2244 8.37467C23.4899 8.39686 23.8438 8.26375 24.0871 8.59652Z" fill="white"/>
<path d="M40.8748 6.82178C40.344 7.22109 41.1181 8.01973 40.4324 8.37468C39.5256 7.90881 38.5524 8.24157 37.6234 8.17502C36.8714 8.13065 36.1193 8.17502 35.3673 7.95318C36.5396 7.95318 37.7119 7.99754 38.8841 7.93099C39.3929 7.90881 40.3218 8.33031 40.344 7.53167C40.3661 6.6443 39.415 7.13236 38.9284 7.08799C37.8667 6.99925 36.805 7.0658 35.7212 7.0658C35.3673 7.0658 34.9692 7.19891 34.6816 6.84396C36.7608 6.82178 38.8178 6.82178 40.8748 6.82178Z" fill="white"/>
<path d="M40.8749 11.4805C40.8749 11.9242 40.8749 12.3679 40.8749 12.8116C40.7201 12.9447 40.5873 12.9447 40.4325 12.8116C40.5652 11.9686 40.2556 11.6358 39.3487 11.6802C38.6188 11.7024 37.8225 11.9242 37.1147 11.4805C38.3755 11.303 39.6363 11.303 40.8749 11.4805Z" fill="white"/>
<path d="M40.8749 3.4941C39.4814 3.4941 38.0658 3.4941 36.6724 3.4941C37.535 3.02823 38.464 3.27225 39.3487 3.29444C40.2556 3.31662 40.5431 3.00604 40.4325 2.16304C40.3661 2.11867 40.344 2.0743 40.344 2.02993C40.3661 1.98556 40.3883 1.96338 40.4104 1.96338C40.4989 2.02993 40.5652 2.09648 40.6537 2.16304C40.9191 2.4958 40.6094 2.93949 40.8749 3.27225C40.8749 3.33881 40.8749 3.42754 40.8749 3.4941Z" fill="white"/>
<path d="M40.4548 12.8116C40.6096 12.8116 40.7423 12.8116 40.8972 12.8116C40.8972 12.8782 40.8972 12.9669 40.8972 13.0335C39.3489 13.0335 37.8006 13.0335 36.2744 13.0335C36.4514 12.4567 36.7831 12.612 37.137 12.8116C38.2208 12.8116 39.3268 12.8116 40.4548 12.8116Z" fill="white"/>
<path d="M40.4102 1.96338C40.4323 2.02993 40.4323 2.09648 40.4323 2.16304C39.0389 2.05212 37.6233 2.40706 36.252 1.96338C37.6454 1.96338 39.0389 1.96338 40.4102 1.96338Z" fill="white"/>
<path d="M40.8749 11.4806C39.6141 11.4806 38.3755 11.4806 37.1147 11.4806C37.0484 11.4141 36.9599 11.3254 36.8936 11.2588C38.2207 11.3919 39.592 10.9926 40.8749 11.4806Z" fill="white"/>
<path d="M37.1147 12.8116C36.805 12.856 36.4733 12.7007 36.2521 13.0334C35.9424 12.9447 35.6549 12.8781 35.3452 12.7894C35.9424 12.1239 36.5396 12.0795 37.1147 12.8116Z" fill="white"/>
<path d="M32.271 8.5966C32.271 7.86452 32.271 7.11026 32.271 6.37817C32.6028 7.11026 32.6028 7.86452 32.271 8.5966Z" fill="white"/>
<path d="M9.02415 3.49415C7.76339 3.49415 6.52476 3.49415 5.26401 3.49415C5.21977 3.49415 5.17553 3.49415 5.15342 3.47197C5.10918 3.4276 5.08706 3.38323 5.06494 3.33886C6.39205 3.31668 7.71916 3.05047 9.02415 3.49415Z" fill="white"/>
<path d="M5.28613 11.4805C6.54688 11.4805 7.78552 11.4805 9.04627 11.4805C7.78552 11.8354 6.52477 11.8354 5.28613 11.4805Z" fill="white"/>
<path d="M2.27827 8.50784C2.31492 8.50784 2.34462 7.95163 2.34462 7.26551C2.34462 6.5794 2.31492 6.02319 2.27827 6.02319C2.24162 6.02319 2.21191 6.5794 2.21191 7.26551C2.21191 7.95163 2.24162 8.50784 2.27827 8.50784Z" fill="white"/>
<path d="M40.8752 3.2723C40.4991 2.96172 40.7203 2.54022 40.654 2.16309C41.03 2.47367 40.8309 2.89517 40.8752 3.2723Z" fill="white"/>
<path d="M22.9588 8.37482C22.9588 8.44138 22.9588 8.53011 22.9588 8.59667C22.5607 8.1308 22.804 7.59837 22.7597 7.08813C23.1579 7.46527 22.8925 7.95332 22.9588 8.37482Z" fill="white"/>
<path d="M89.2701 1.054C89.2037 1.12056 89.1595 1.20929 89.0931 1.27585C89.0489 1.36458 88.9825 1.43114 88.9383 1.51987C88.8941 1.54206 88.8498 1.56424 88.8056 1.58643C88.5844 1.51987 88.518 1.36458 88.5402 1.14274C88.5844 1.054 88.6508 0.987451 88.7392 0.965267C88.8277 0.943083 88.9162 0.920898 89.0268 0.920898C89.1152 0.920898 89.2037 0.965267 89.2701 1.054Z" fill="white"/>
<path d="M89.1376 1.71948C89.0713 1.71948 88.9828 1.71948 88.9164 1.74166C88.8501 1.69729 88.828 1.65293 88.8501 1.58637C88.8722 1.542 88.8722 1.49764 88.8943 1.49764V1.47545C88.9607 1.4089 89.0492 1.4089 89.1155 1.47545C89.1819 1.56419 89.2261 1.63074 89.2925 1.71948C89.2261 1.71948 89.1819 1.71948 89.1376 1.71948Z" fill="white"/>
<path d="M89.1372 1.71948C89.1814 1.71948 89.2257 1.74167 89.292 1.71948C89.3363 1.78604 89.3584 1.85259 89.3363 1.91914C89.2478 1.85259 89.1814 1.78604 89.1372 1.71948Z" fill="white"/>
<path d="M89.1152 1.49772C89.0489 1.49772 88.9604 1.49772 88.894 1.49772C88.9604 1.43117 89.0268 1.36462 89.0931 1.27588C89.0931 1.34243 89.0931 1.43117 89.1152 1.49772Z" fill="white"/>
<path d="M89.2702 1.05395H89.2038H89.1374C89.0711 1.00958 89.0269 0.965214 89.0269 0.920845C89.0269 0.854292 89.0269 0.832108 89.049 0.832108C89.1374 0.765555 89.2259 0.765555 89.2923 0.854292L89.3586 0.832108C89.3144 0.898661 89.2923 0.965214 89.2702 1.05395Z" fill="white"/>
<path d="M88.2085 0.632536C88.2749 0.610352 88.3412 0.610352 88.4076 0.65472L88.4518 0.610352C88.6287 1.05404 88.5624 1.51991 88.6509 1.96359C88.5845 2.18544 88.3854 2.14107 88.2306 2.18544C88.2306 1.65301 88.2085 1.14277 88.2085 0.632536Z" fill="white"/>
<path d="M88.6507 1.96359C88.2526 1.56428 88.4959 1.07622 88.4516 0.610352C88.5401 0.699089 88.6065 0.765642 88.6949 0.854379C88.7613 0.898747 88.7613 0.943116 88.7392 0.987485C88.7171 1.00967 88.6949 1.03185 88.6728 1.03185C88.6728 1.23151 88.6949 1.40899 88.894 1.49772C88.894 1.56428 88.894 1.65301 88.894 1.71957C88.8055 1.8083 88.7392 1.87486 88.6507 1.96359Z" fill="white"/>
<path d="M89.2922 0.854346C89.2258 0.854346 89.1595 0.854346 89.0931 0.832162C89.0489 0.854346 89.0268 0.898715 88.9825 0.920899C88.9604 0.876531 88.9162 0.832162 88.894 0.809978C88.9604 0.743425 89.0489 0.654688 89.1152 0.588135C89.1816 0.676872 89.2258 0.765609 89.2922 0.854346Z" fill="white"/>
<path d="M88.6727 1.03166C88.6506 0.965105 88.6727 0.920736 88.6949 0.854183C88.7612 0.854183 88.8276 0.831999 88.8939 0.809814L88.8718 0.854183C88.9382 0.898552 88.9603 0.94292 88.9382 0.987289C88.916 1.00947 88.8939 1.03166 88.8718 1.03166C88.8054 1.03166 88.7391 1.03166 88.6727 1.03166Z" fill="white"/>
<path d="M88.8721 1.03169C88.8721 0.965137 88.8721 0.898584 88.8721 0.854216C88.9384 0.832031 89.0048 0.832031 89.0933 0.832031C89.1154 0.898584 89.1154 0.987321 89.1375 1.05387C89.049 1.05387 88.9605 1.05387 88.8721 1.03169Z" fill="white"/>
</g>
<defs>
<clipPath id="clip0_303_1525">
<rect width="90" height="13" fill="white" transform="translate(0 0.366211)"/>
</clipPath>
</defs>
</svg>
