<svg width="15" height="18" viewBox="0 0 15 18" fill="none" xmlns="http://www.w3.org/2000/svg">
<g clip-path="url(#clip0_55_1006)">
<path d="M3.36019 4.38261C3.49818 1.8206 4.98357 0.131813 7.17513 0.00824345C9.66701 -0.131802 11.1524 1.30161 11.6638 4.38261C12.0209 4.38261 12.378 4.37438 12.7433 4.38261C13.555 4.39909 14.1719 4.9428 14.2449 5.7666C14.391 7.48834 14.5047 9.21831 14.6264 10.9401C14.7482 12.6947 14.8618 14.4412 14.9836 16.1959C15.0647 17.2915 14.4479 17.9918 13.3764 18C9.45597 18.0082 5.5274 18.0082 1.60695 18C0.535517 18 -0.0813658 17.2998 -0.000196943 16.1959C0.227076 12.9007 0.454348 9.59726 0.689738 6.30207C0.705972 6.11259 0.722206 5.92312 0.746556 5.72541C0.843959 4.95927 1.43649 4.41557 2.2076 4.39085C2.58909 4.37438 2.96247 4.38261 3.36019 4.38261ZM3.40078 5.74188C3.34396 5.72541 3.31961 5.71717 3.29526 5.71717C3.06798 5.71717 2.8326 5.70893 2.60532 5.70893C2.04526 5.70893 2.03714 5.70893 2.00467 6.26088C1.7774 9.57255 1.55013 12.8842 1.30662 16.1959C1.27415 16.5913 1.40402 16.6902 1.76928 16.6902C5.58422 16.6819 9.39915 16.6819 13.206 16.6902C13.5875 16.6902 13.7255 16.5995 13.693 16.1794C13.4982 13.6503 13.3358 11.113 13.1654 8.58399C13.1086 7.76019 13.0599 6.94463 12.9787 6.12083C12.9625 5.97255 12.8164 5.74188 12.7027 5.72541C12.3618 5.67598 12.0128 5.70893 11.6232 5.70893C11.6232 5.8984 11.6232 6.04669 11.6232 6.19497C11.6232 7.08467 11.6313 7.98261 11.6232 8.87232C11.6232 9.35836 11.3634 9.65493 10.9738 9.65493C10.5842 9.66316 10.3245 9.3666 10.3245 8.88056C10.3164 8.05676 10.3245 7.23296 10.3245 6.40916C10.3245 6.1785 10.3245 5.95607 10.3245 5.72541C8.41701 5.72541 6.57448 5.72541 4.69948 5.72541C4.69136 5.85721 4.68324 5.96431 4.68324 6.0714C4.68324 7.03525 4.69136 7.99085 4.67513 8.9547C4.66701 9.37484 4.39915 9.65493 4.04201 9.65493C3.67675 9.65493 3.40078 9.3666 3.38454 8.96294C3.37643 8.79818 3.40078 8.63342 3.40078 8.46866C3.40078 7.57072 3.40078 6.66454 3.40078 5.74188ZM10.3245 4.36614C10.3082 3.13868 9.86182 2.20779 8.81474 1.65584C7.77578 1.1039 6.74493 1.19451 5.80337 1.90298C5.00792 2.50435 4.65889 3.34463 4.69136 4.36614C6.58259 4.36614 8.42513 4.36614 10.3245 4.36614Z" fill="#3E2E5F"/>
<path d="M3.40071 5.74189C3.40071 6.66455 3.40071 7.57073 3.40071 8.47691C3.40071 8.64167 3.37636 8.80643 3.38448 8.97119C3.40071 9.38308 3.67669 9.66318 4.04195 9.66318C4.40721 9.66318 4.67506 9.38309 4.67506 8.96295C4.68318 7.9991 4.67506 7.0435 4.68318 6.07965C4.68318 5.97256 4.6913 5.86546 4.69941 5.73366C6.5663 5.73366 8.41695 5.73366 10.3244 5.73366C10.3244 5.96432 10.3244 6.18675 10.3244 6.41741C10.3244 7.24121 10.3244 8.06501 10.3244 8.88881C10.3244 9.37485 10.5842 9.66318 10.9738 9.66318C11.3634 9.65494 11.615 9.35837 11.6231 8.88057C11.6312 7.99087 11.6231 7.09292 11.6231 6.20322C11.6231 6.05494 11.6231 5.90665 11.6231 5.71718C12.0046 5.71718 12.3618 5.68423 12.7027 5.73366C12.8163 5.75013 12.9624 5.9808 12.9786 6.12908C13.0598 6.94464 13.1085 7.76844 13.1653 8.59224C13.3439 11.1213 13.5062 13.6586 13.6929 16.1877C13.7254 16.6078 13.5955 16.6984 13.2059 16.6984C9.39097 16.6902 5.57604 16.6902 1.76922 16.6984C1.40396 16.6984 1.27409 16.6078 1.30656 16.2041C1.55006 12.8925 1.76922 9.5808 2.00461 6.26913C2.04519 5.71718 2.04519 5.71718 2.60526 5.71718C2.83253 5.71718 3.06792 5.71718 3.29519 5.72542C3.31954 5.70894 3.34389 5.72542 3.40071 5.74189Z" fill="#3E2E5F"/>
</g>
<defs>
<clipPath id="clip0_55_1006">
<rect width="15" height="18" fill="white"/>
</clipPath>
</defs>
</svg>
