<svg width="36" height="23" viewBox="0 0 36 23" fill="none" xmlns="http://www.w3.org/2000/svg">
<g clip-path="url(#clip0_55_549)">
<path d="M23.3488 15.113C19.7502 15.113 16.2641 15.113 12.6655 15.113C12.6655 15.6158 12.6655 16.1043 12.6655 16.5927C12.6655 17.6271 12.6655 18.6471 12.6655 19.6814C12.6655 21.4628 11.8642 22.6121 10.4023 22.9425C9.0247 23.2442 7.81579 22.5115 7.08483 20.8594C6.81775 20.9456 6.53661 21.0606 6.25547 21.118C4.48428 21.4916 2.89584 20.2273 2.82556 18.3741C2.78338 17.311 2.82556 16.2336 2.82556 15.0987C2.53036 15.0987 2.29139 15.113 2.06648 15.0987C0.899745 15.0268 0.0563243 14.1649 0.0141533 12.9725C-0.0139607 12.1105 9.62836e-05 11.2486 9.62836e-05 10.3866C0.0141533 8.77762 0.815403 7.94439 2.37573 7.90129C2.48819 7.90129 2.6147 7.88693 2.82556 7.87256C2.82556 7.03933 2.89584 6.2061 2.8115 5.38724C2.54441 3.05994 4.37183 1.03433 7.09889 2.14052C7.16917 1.96813 7.25351 1.79573 7.3238 1.62334C7.90014 0.445327 9.15121 -0.201144 10.3601 0.0574448C11.6534 0.330399 12.6092 1.40785 12.6514 2.77262C12.6936 4.43908 12.6514 6.11991 12.6514 7.84383C16.2078 7.84383 19.7221 7.84383 23.3347 7.84383C23.3347 6.73764 23.3347 5.61709 23.3347 4.49655C23.3347 3.87881 23.3066 3.2467 23.3628 2.62896C23.4612 1.33602 24.389 0.301667 25.6401 0.0430788C26.8209 -0.201144 28.0579 0.416595 28.6483 1.53714C28.7467 1.7239 28.831 1.92503 28.9154 2.14052C29.2106 2.03996 29.4917 1.92503 29.7869 1.86756C31.5581 1.50841 33.1325 2.78699 33.1887 4.65457C33.2168 5.70329 33.1887 6.75201 33.1887 7.772C33.273 7.82946 33.3152 7.87256 33.3433 7.87256C35.4097 8.00185 36.0001 8.64833 36.0001 10.7745C36.0001 11.3922 36.0001 12.0243 36.0001 12.6421C35.986 14.1936 35.1848 15.0268 33.6666 15.0699C33.5261 15.0699 33.3995 15.0843 33.1887 15.0987C33.1887 16.0037 33.1887 16.8801 33.1887 17.7564C33.1887 20.4716 31.4737 21.7214 29.0138 20.8451C28.6623 21.3335 28.3812 21.8651 27.9735 22.2529C27.1442 23.0143 26.1321 23.1724 25.0919 22.727C23.9954 22.2529 23.405 21.3623 23.3628 20.1555C23.3207 18.7476 23.3488 17.3254 23.3488 15.9175C23.3488 15.6877 23.3488 15.4291 23.3488 15.113ZM8.44836 11.421C8.44836 14.1792 8.44836 16.9232 8.44836 19.6814C8.44836 20.8594 8.95441 21.5346 9.82595 21.549C10.7256 21.5634 11.2457 20.8738 11.2457 19.6527C11.2457 19.509 11.2457 19.3654 11.2457 19.2217C11.2457 14.5528 11.2457 9.8838 11.2457 5.21485C11.2457 4.49655 11.2598 3.77824 11.2457 3.05994C11.2316 2.08305 10.6694 1.43658 9.84 1.45095C9.01064 1.46531 8.46242 2.11179 8.44836 3.08868C8.44836 3.26107 8.44836 3.41909 8.44836 3.59149C8.44836 6.2061 8.44836 8.82072 8.44836 11.421ZM27.5659 11.5359C27.5659 8.76326 27.5659 5.97625 27.5659 3.2036C27.5659 2.11179 27.0177 1.43658 26.1461 1.45095C25.3027 1.46531 24.7545 2.11179 24.7545 3.16051C24.7545 8.72016 24.7545 14.2654 24.7545 19.8251C24.7545 20.8738 25.2887 21.5346 26.1321 21.549C27.0036 21.5634 27.5518 20.8882 27.5518 19.7964C27.5659 17.0381 27.5659 14.2942 27.5659 11.5359ZM7.04266 11.5359C7.04266 9.28043 7.05671 7.03933 7.04266 4.78387C7.04266 3.85007 6.45226 3.2467 5.6229 3.26107C4.82165 3.27543 4.24531 3.86444 4.24531 4.75513C4.2172 9.2517 4.2172 13.7483 4.23126 18.2448C4.23126 19.2935 5.08873 19.9544 6.03055 19.6814C6.64906 19.509 7.0286 18.9488 7.0286 18.1299C7.04266 15.9319 7.04266 13.7339 7.04266 11.5359ZM31.783 11.5359C31.783 9.3379 31.783 7.13989 31.783 4.92753C31.783 3.87881 31.2348 3.2467 30.3632 3.26107C29.4917 3.27543 28.9716 3.89317 28.9716 4.95626C28.9716 9.30916 28.9716 13.6621 28.9716 18.015C28.9716 19.0781 29.4917 19.7102 30.3492 19.7245C31.2348 19.7389 31.7689 19.0924 31.7689 17.9862C31.783 15.8457 31.783 13.6908 31.783 11.5359ZM12.6936 13.6046C16.2641 13.6046 19.7783 13.6046 23.3066 13.6046C23.3066 13.1305 23.2926 9.81197 23.2926 9.38099C19.7361 9.38099 16.2359 9.38099 12.7076 9.38099C12.6936 10.7889 12.6936 12.168 12.6936 13.6046ZM2.76933 13.619C2.76933 12.168 2.76933 10.7745 2.76933 9.36663C1.58854 9.2948 1.41985 9.46719 1.41985 10.6308C1.41985 11.2055 1.41985 11.7801 1.41985 12.3548C1.41985 13.5184 1.58854 13.6908 2.76933 13.619ZM33.2309 9.38099C33.2309 10.832 33.2309 12.2255 33.2309 13.619C34.3976 13.6764 34.5803 13.504 34.5803 12.4122C34.5803 11.8089 34.5803 11.2198 34.5803 10.6165C34.5803 9.46719 34.4117 9.2948 33.2309 9.38099Z" fill="white"/>
<path d="M16.4609 12.3117C16.8646 12.3117 17.1919 11.9772 17.1919 11.5647C17.1919 11.1521 16.8646 10.8176 16.4609 10.8176C16.0572 10.8176 15.73 11.1521 15.73 11.5647C15.73 11.9772 16.0572 12.3117 16.4609 12.3117Z" fill="#A689B0"/>
<path d="M23.2505 12.2542H18.3587C17.937 12.2542 17.5996 11.9094 17.5996 11.4784C17.5996 11.0474 17.937 10.7026 18.3587 10.7026H23.2505V12.2542Z" fill="#A689B0"/>
</g>
<defs>
<clipPath id="clip0_55_549">
<rect width="36" height="23" fill="white"/>
</clipPath>
</defs>
</svg>
