<svg width="12" height="9" viewBox="0 0 12 9" fill="none" xmlns="http://www.w3.org/2000/svg">
<path d="M0.733398 8.36427C1.9912 7.13697 3.2276 5.92469 4.49076 4.69238C4.67809 4.8627 4.86542 5.023 5.0474 5.18831C5.64687 5.7143 6.35338 5.71931 6.94749 5.19332C7.09736 5.06308 7.24187 4.93283 7.40244 4.79257C8.64419 6.00484 9.86453 7.20209 11.0956 8.40434C10.737 8.55462 1.09736 8.51956 0.733398 8.36427Z" fill="#3E2E5F"/>
<path d="M10.9134 0.559624C10.8384 0.614728 10.7528 0.664822 10.6832 0.724934C9.27019 1.99732 7.85717 3.26971 6.44414 4.54209C6.09089 4.86269 5.92496 4.86269 5.56635 4.53708C4.14798 3.25969 2.7296 1.98229 1.30587 0.704897C1.24164 0.649793 1.16136 0.609718 1.08643 0.564634C1.10248 0.544596 1.11854 0.519549 1.1346 0.499512C4.37813 0.499512 7.62166 0.499512 10.8652 0.499512C10.8813 0.519549 10.8973 0.539587 10.9134 0.559624Z" fill="#3E2E5F"/>
<path d="M8.01807 4.2365C9.24911 3.12442 10.4694 2.02736 11.6951 0.925293C11.9092 1.14571 11.9949 1.39618 11.9949 1.66668C12.0002 3.55021 12.0002 5.43375 11.9895 7.32229C11.9895 7.51264 11.9039 7.70801 11.8397 7.97852C10.5337 6.69611 9.28658 5.47382 8.01807 4.2365Z" fill="#3E2E5F"/>
<path d="M0.0909902 7.83337C0.0535236 7.60294 0.00535236 7.44264 0.00535236 7.28234C0 5.41384 -0.00535236 3.54533 0.0107047 1.67683C0.0107047 1.42636 0.139161 1.17589 0.208742 0.92542C0.240856 0.92542 0.278323 0.92041 0.310437 0.92041C1.49331 1.9824 2.67618 3.0494 3.88046 4.13143C2.62801 5.35372 1.39161 6.566 0.0909902 7.83337Z" fill="#3E2E5F"/>
</svg>
