<svg width="107" height="88" viewBox="0 0 107 88" fill="none" xmlns="http://www.w3.org/2000/svg">
<path d="M65.4065 25.4908C64.3197 20.9444 67.1243 16.3778 71.6707 15.291C76.2171 14.2041 80.7837 17.0087 81.8705 21.5551C82.9573 26.1015 80.1528 30.6681 75.6064 31.755C71.06 32.8418 66.4933 30.0372 65.4065 25.4908Z" fill="#B370A0"/>
<path d="M69.3029 22.0702H72.1448V19.2283H74.8632V22.0702H77.7051V24.8194H74.8632V27.6613H72.1448V24.8194H69.3029V22.0702Z" fill="white"/>
<path d="M40.2823 64.5058C36.977 61.2005 36.977 55.8415 40.2823 52.5362C43.5877 49.2308 48.9467 49.2308 52.252 52.5362C55.5573 55.8415 55.5573 61.2005 52.252 64.5058C48.9467 67.8112 43.5876 67.8112 40.2823 64.5058Z" fill="#ADD5F4"/>
<path d="M41.9338 57.0688H44.7757V54.2269H47.494V57.0688H50.3359V59.8181H47.494V62.66H44.7757V59.8181H41.9338V57.0688Z" fill="white"/>
<path d="M54.1976 87.8663C52.0992 87.8663 50.3981 86.1652 50.3981 84.0668C50.3981 81.9684 52.0992 80.2673 54.1976 80.2673C56.296 80.2673 57.9971 81.9684 57.9971 84.0668C57.9971 86.1652 56.296 87.8663 54.1976 87.8663Z" fill="#3E2E5F"/>
<path d="M52.2513 83.4181H53.5487V82.1207H54.7534V83.4181H56.0508V84.6228H54.7534V85.9202H53.5487V84.6228H52.2513V83.4181Z" fill="white"/>
<path d="M88.5166 63.3704C86.5035 63.3704 84.8715 61.7385 84.8715 59.7254C84.8715 57.7123 86.5035 56.0803 88.5166 56.0803C90.5297 56.0803 92.1616 57.7123 92.1616 59.7254C92.1616 61.7385 90.5297 63.3704 88.5166 63.3704Z" fill="#ADD5F4"/>
<path d="M86.6632 59.1076H87.8679V57.8719H89.0417V59.1076H90.2773V60.2814H89.0417V61.4861H87.8679V60.2814H86.6632V59.1076Z" fill="white"/>
<path d="M6.50278 26.4566C3.82433 26.4566 1.65302 24.2853 1.65302 21.6068C1.65302 18.9284 3.82433 16.7571 6.50278 16.7571C9.18122 16.7571 11.3525 18.9284 11.3525 21.6068C11.3525 24.2853 9.18122 26.4566 6.50278 26.4566Z" fill="#B370A0"/>
<path d="M4.00095 20.7728H5.63814V19.1356H7.21354V20.7728H8.81982V22.3173H7.21354V23.9545H5.63814V22.3173H4.00095V20.7728Z" fill="white"/>
<path d="M40.606 28.5571C34.4472 28.5571 29.4546 23.5645 29.4546 17.4058C29.4546 11.247 34.4472 6.25439 40.606 6.25439C46.7647 6.25439 51.7573 11.247 51.7573 17.4058C51.7573 23.5645 46.7647 28.5571 40.606 28.5571Z" fill="#B370A0"/>
<path d="M34.8909 15.5214H38.6595V11.7528H42.2428V15.5214H45.9805V19.1047H42.2428V22.8424H38.6595V19.1047H34.8909V15.5214Z" fill="white"/>
<path d="M16.2333 5.20416C16.2333 6.3471 17.16 7.27381 18.3029 7.27381C19.4459 7.27381 20.3726 6.3471 20.3726 5.20416C20.3726 4.06123 19.4459 3.13452 18.3029 3.13452C17.16 3.13452 16.2333 4.06123 16.2333 5.20416Z" fill="#FEBE9C"/>
<path d="M17.2526 4.8644H17.9631V4.15393H18.6118V4.8644H19.3223V5.54399H18.6118V6.22357H17.9631V5.54399H17.2526V4.8644Z" fill="white"/>
<path d="M5.14373 44.0022C4.0007 44.0022 3.07409 43.0756 3.07409 41.9326C3.07409 40.7895 4.0007 39.8629 5.14373 39.8629C6.28676 39.8629 7.21338 40.7895 7.21338 41.9326C7.21338 43.0756 6.28676 44.0022 5.14373 44.0022Z" fill="#F4BED1"/>
<path d="M4.09345 41.5928H4.77303V40.8823H5.45262V41.5928H6.16309V42.2724H5.45262V42.952H4.77303V42.2724H4.09345V41.5928Z" fill="white"/>
<path d="M36.096 77.3945C36.096 78.3521 36.8682 79.1244 37.8258 79.1244C38.7834 79.1244 39.5557 78.3521 39.5557 77.3945C39.5557 76.4369 38.7834 75.6647 37.8258 75.6647C36.8682 75.6647 36.096 76.4369 36.096 77.3945Z" fill="#FEBE9C"/>
<path d="M36.9607 77.0856H37.5167V76.4987H38.1036V77.0856H38.6597V77.6416H38.1036V78.2285H37.5167V77.6416H36.9607V77.0856Z" fill="white"/>
<path d="M68.7467 70.9693C67.7913 70.9693 67.0169 70.1949 67.0169 69.2395C67.0169 68.2841 67.7913 67.5096 68.7467 67.5096C69.7021 67.5096 70.4766 68.2841 70.4766 69.2395C70.4766 70.1949 69.7021 70.9693 68.7467 70.9693Z" fill="#B3E5E6"/>
<path d="M67.8507 68.9307H68.4376V68.3438H68.9937V68.9307H69.5806V69.4867H68.9937V70.0736H68.4376V69.4867H67.8507V68.9307Z" fill="white"/>
<path d="M64.3914 80.2982C64.3914 81.2558 65.1636 82.0281 66.1212 82.0281C67.0788 82.0281 67.8511 81.2558 67.8511 80.2982C67.8511 79.3406 67.0788 78.5684 66.1212 78.5684C65.1945 78.5684 64.3914 79.3406 64.3914 80.2982Z" fill="#F4BED1"/>
<path d="M65.256 80.0203H65.8429V79.4333H66.3989V80.0203H66.9858V80.5763H66.3989V81.1632H65.8429V80.5763H65.256V80.0203Z" fill="white"/>
<path d="M14.1545 32.477C10.62 28.9425 10.62 23.2118 14.1545 19.6773C17.689 16.1428 23.4196 16.1428 26.9542 19.6773C30.4887 23.2118 30.4887 28.9425 26.9542 32.477C23.4196 36.0115 17.689 36.0115 14.1545 32.477Z" fill="#B3E5E6"/>
<path d="M17.8707 22.1319L25.6859 26.9508C26.5818 27.5068 26.8598 28.6806 26.3037 29.5765C25.7477 30.4723 24.5739 30.7503 23.6781 30.1943L15.8629 25.3754C14.967 24.8194 14.689 23.6455 15.2451 22.7497C15.8011 21.8539 16.9749 21.5759 17.8707 22.1319ZM19.0137 26.1168C18.8901 26.333 18.9519 26.611 19.1681 26.7346L20.9906 27.8775C21.2069 28.0011 21.4849 27.9393 21.6084 27.7231L22.5351 26.2094C22.6587 25.9932 22.5969 25.7152 22.3807 25.5916L20.5582 24.4487C20.3419 24.3251 20.0639 24.3869 19.9404 24.6031L19.0137 26.1168Z" fill="white"/>
<path d="M21.7933 25.9005C21.7624 25.9623 21.7624 26.0241 21.8242 26.055C21.8859 26.0859 21.9477 26.0859 22.0095 26.0241C22.0404 25.9623 22.0404 25.9005 21.9786 25.8387C21.9168 25.8387 21.8242 25.8696 21.7933 25.9005Z" fill="white"/>
<path d="M21.0214 25.4372C20.9905 25.4989 20.9905 25.5607 21.0523 25.6225C21.1141 25.6534 21.1759 25.6534 21.2068 25.5916C21.2377 25.5298 21.2376 25.4681 21.1759 25.4063C21.145 25.3754 21.0523 25.3754 21.0214 25.4372Z" fill="white"/>
<path d="M20.249 24.9739C20.2181 25.0356 20.2181 25.0974 20.2798 25.1592C20.3416 25.1901 20.4034 25.1901 20.4343 25.1283C20.4652 25.0665 20.4652 25.0048 20.4034 24.943C20.3725 24.8812 20.3107 24.9121 20.249 24.9739Z" fill="white"/>
<path d="M21.145 26.1477C21.1141 26.2095 21.1141 26.2713 21.1758 26.3021C21.2376 26.333 21.2994 26.333 21.3303 26.2713C21.3612 26.2095 21.3612 26.1477 21.2994 26.1168C21.2685 26.055 21.2067 26.0859 21.145 26.1477Z" fill="white"/>
<path d="M20.4036 25.6535C20.3727 25.7152 20.3727 25.777 20.4345 25.8079C20.4963 25.8388 20.5581 25.8388 20.6198 25.777C20.6507 25.7152 20.6507 25.6535 20.589 25.5917C20.4963 25.5917 20.4345 25.5917 20.4036 25.6535Z" fill="white"/>
<path d="M21.2377 26.7963C21.2068 26.8581 21.2068 26.9199 21.2686 26.9817C21.3304 27.0126 21.3922 27.0126 21.4231 26.9508C21.454 26.889 21.454 26.8272 21.3922 26.7963C21.3613 26.7346 21.2686 26.7346 21.2377 26.7963Z" fill="white"/>
<path d="M20.496 26.333C20.4651 26.3948 20.4651 26.4566 20.5269 26.4875C20.5887 26.5184 20.6505 26.5184 20.6814 26.4566C20.7123 26.3948 20.7123 26.333 20.6505 26.3021C20.5887 26.2713 20.5269 26.2713 20.496 26.333Z" fill="white"/>
<path d="M19.7241 25.8697C19.6932 25.9315 19.6932 25.9932 19.7549 26.0241C19.8167 26.055 19.8785 26.055 19.9094 25.9932C19.9403 25.9315 19.9403 25.8697 19.8785 25.8079C19.8167 25.777 19.755 25.8079 19.7241 25.8697Z" fill="white"/>
<path d="M20.6196 27.0126C20.5887 27.0743 20.5887 27.1361 20.6505 27.1979C20.7122 27.2288 20.774 27.2288 20.8049 27.167C20.8358 27.1052 20.8358 27.0434 20.774 26.9817C20.7122 26.9508 20.6505 26.9817 20.6196 27.0126Z" fill="white"/>
<path d="M19.8476 26.5493C19.8167 26.611 19.8167 26.6728 19.8785 26.7346C19.9403 26.7655 20.002 26.7655 20.0329 26.7037C20.0638 26.6419 20.0638 26.5802 20.002 26.5493C19.9403 26.4875 19.8785 26.4875 19.8476 26.5493Z" fill="white"/>
<path d="M41.7907 81.9747C39.9986 79.7599 40.3414 76.5117 42.5562 74.7196C44.7711 72.9275 48.0193 73.2703 49.8114 75.4851C51.6034 77.7 51.2607 80.9482 49.0458 82.7403C46.831 84.5323 43.5827 84.1896 41.7907 81.9747Z" fill="#B370A0"/>
<path d="M44.2505 76.4678L48.7296 79.217C49.2547 79.5259 49.4091 80.2055 49.1002 80.7306C48.7913 81.2557 48.1117 81.4102 47.5866 81.1013L43.1075 78.3521C42.5824 78.0432 42.428 77.3636 42.7369 76.8384C43.0458 76.3133 43.7253 76.1589 44.2505 76.4678ZM44.8992 78.7536C44.8374 78.8772 44.8683 79.0316 44.9918 79.1243L46.0421 79.773C46.1657 79.8348 46.3201 79.8039 46.4128 79.6803L46.9379 78.8154C46.9997 78.6919 46.9688 78.5374 46.8453 78.4447L45.795 77.796C45.6714 77.7343 45.517 77.7651 45.4243 77.8887L44.8992 78.7536Z" fill="white"/>
<path d="M46.475 78.6301C46.4441 78.661 46.475 78.6919 46.5059 78.7228C46.5367 78.7537 46.5676 78.7228 46.5985 78.6919C46.6294 78.661 46.5985 78.6301 46.5676 78.5992C46.5676 78.5992 46.5059 78.5992 46.475 78.6301Z" fill="white"/>
<path d="M46.0424 78.383C46.0115 78.4139 46.0424 78.4448 46.0732 78.4757C46.1041 78.5066 46.135 78.4757 46.1659 78.4448C46.1968 78.4139 46.1659 78.383 46.135 78.3522C46.1041 78.3213 46.0732 78.3522 46.0424 78.383Z" fill="white"/>
<path d="M45.6097 78.105C45.5788 78.1359 45.6097 78.1667 45.6406 78.1976C45.6715 78.2285 45.7024 78.1976 45.7333 78.1667C45.7642 78.1359 45.7333 78.105 45.7024 78.0741C45.6715 78.0432 45.6406 78.0741 45.6097 78.105Z" fill="white"/>
<path d="M46.1351 78.7537C46.1042 78.7846 46.1351 78.8154 46.166 78.8463C46.1969 78.8772 46.2278 78.8463 46.2587 78.8154C46.2896 78.7846 46.2587 78.7537 46.2278 78.7228C46.1969 78.7228 46.1351 78.7228 46.1351 78.7537Z" fill="white"/>
<path d="M45.6718 78.5066C45.6409 78.5375 45.6717 78.5684 45.7026 78.5992C45.7335 78.6301 45.7644 78.5993 45.7953 78.5684C45.8262 78.5375 45.7953 78.5066 45.7644 78.4757C45.7644 78.4448 45.7026 78.4757 45.6718 78.5066Z" fill="white"/>
<path d="M46.1659 79.1553C46.135 79.1861 46.1659 79.217 46.1968 79.2479C46.2277 79.2788 46.2586 79.2479 46.2895 79.217C46.3203 79.1861 46.2894 79.1553 46.2586 79.1244C46.2277 79.0935 46.1968 79.1244 46.1659 79.1553Z" fill="white"/>
<path d="M45.7333 78.8772C45.7024 78.9081 45.7333 78.939 45.7642 78.9699C45.7951 79.0008 45.8259 78.9699 45.8568 78.939C45.8877 78.9081 45.8568 78.8772 45.8259 78.8463C45.7951 78.8463 45.7642 78.8463 45.7333 78.8772Z" fill="white"/>
<path d="M45.3011 78.5992C45.2703 78.6301 45.3011 78.661 45.332 78.6919C45.3629 78.7228 45.3938 78.6919 45.4247 78.661C45.4556 78.6301 45.4247 78.5992 45.3938 78.5684C45.3629 78.5684 45.332 78.5684 45.3011 78.5992Z" fill="white"/>
<path d="M45.7953 79.2788C45.7644 79.3097 45.7953 79.3406 45.8262 79.3715C45.8571 79.4024 45.888 79.3715 45.9188 79.3406C45.9497 79.3097 45.9188 79.2788 45.888 79.2479C45.888 79.2479 45.8262 79.2479 45.7953 79.2788Z" fill="white"/>
<path d="M45.3627 79.0007C45.3318 79.0316 45.3627 79.0625 45.3936 79.0934C45.4244 79.1243 45.4553 79.0934 45.4862 79.0625C45.5171 79.0316 45.4862 79.0007 45.4553 78.9698C45.4244 78.9698 45.3936 78.9699 45.3627 79.0007Z" fill="white"/>
<path d="M88.6399 7.45908C87.0533 7.45908 85.7671 6.17288 85.7671 4.58629C85.7671 2.99969 87.0533 1.7135 88.6399 1.7135C90.2265 1.7135 91.5127 2.99969 91.5127 4.58629C91.5127 6.17288 90.2265 7.45908 88.6399 7.45908Z" fill="#B370A0"/>
<path d="M87.7748 3.3507L90.2461 4.86432C90.5241 5.04966 90.6167 5.42034 90.4314 5.69835C90.2461 5.97637 89.8754 6.06904 89.5974 5.88369L87.1262 4.37007C86.8481 4.18473 86.7555 3.81405 86.9408 3.53604C87.1262 3.25803 87.4968 3.16536 87.7748 3.3507ZM88.1455 4.6172C88.1146 4.67898 88.1146 4.77165 88.2073 4.80254L88.7942 5.17322C88.856 5.20411 88.9487 5.20411 88.9796 5.11144L89.2885 4.6172C89.3194 4.55542 89.3194 4.46274 89.2267 4.43185L88.6398 4.06117C88.578 4.03028 88.4853 4.03028 88.4544 4.12295L88.1455 4.6172Z" fill="white"/>
<path d="M89.0105 4.55552C89.0105 4.58641 89.0105 4.58641 89.0105 4.6173C89.0414 4.6173 89.0414 4.6173 89.0723 4.6173C89.0723 4.58641 89.0723 4.58641 89.0723 4.55552C89.0414 4.52463 89.0414 4.52463 89.0105 4.55552Z" fill="white"/>
<path d="M88.7634 4.40098C88.7634 4.43187 88.7634 4.43187 88.7634 4.46276C88.7943 4.46276 88.7943 4.46276 88.8252 4.46276C88.8252 4.43187 88.8252 4.43187 88.8252 4.40098C88.8252 4.37009 88.7943 4.37009 88.7634 4.40098Z" fill="white"/>
<path d="M88.5471 4.24656C88.5471 4.27745 88.5471 4.27745 88.5471 4.30834C88.578 4.30834 88.578 4.30834 88.6089 4.30834C88.6089 4.27745 88.6089 4.27745 88.6089 4.24656C88.578 4.21567 88.5471 4.21567 88.5471 4.24656Z" fill="white"/>
<path d="M88.8249 4.61716C88.8249 4.64805 88.8249 4.64805 88.8249 4.67894C88.8558 4.67894 88.8558 4.67894 88.8867 4.67894C88.9176 4.67894 88.8867 4.64805 88.8867 4.61716C88.8558 4.58627 88.8249 4.58627 88.8249 4.61716Z" fill="white"/>
<path d="M88.5779 4.46274C88.5779 4.49363 88.5779 4.49363 88.5779 4.52452C88.6088 4.52452 88.6088 4.52452 88.6396 4.52452C88.6396 4.49363 88.6396 4.49363 88.6396 4.46274C88.6088 4.43185 88.5779 4.43185 88.5779 4.46274Z" fill="white"/>
<path d="M88.8561 4.83347C88.8561 4.86436 88.8561 4.86436 88.8561 4.89525C88.887 4.89525 88.887 4.89525 88.9179 4.89525C88.9488 4.89525 88.9179 4.86436 88.9179 4.83347C88.887 4.80258 88.8561 4.80258 88.8561 4.83347Z" fill="white"/>
<path d="M88.6086 4.67893C88.6086 4.70982 88.6086 4.70982 88.6086 4.74071C88.6395 4.74071 88.6395 4.74071 88.6704 4.74071C88.6704 4.70982 88.6704 4.70982 88.6704 4.67893C88.6395 4.64804 88.6086 4.64804 88.6086 4.67893Z" fill="white"/>
<path d="M88.3616 4.52459C88.3616 4.55548 88.3616 4.55548 88.3616 4.58637C88.3924 4.58637 88.3924 4.58637 88.4233 4.58637C88.4233 4.55548 88.4233 4.55548 88.4233 4.52459C88.3924 4.4937 88.3616 4.52459 88.3616 4.52459Z" fill="white"/>
<path d="M88.6399 4.89524C88.6399 4.92613 88.6399 4.92613 88.6399 4.95702C88.6708 4.95702 88.6708 4.95702 88.7017 4.95702C88.7017 4.92613 88.7017 4.92613 88.7017 4.89524C88.6708 4.86435 88.6399 4.86435 88.6399 4.89524Z" fill="white"/>
<path d="M88.3928 4.74078C88.3928 4.77167 88.3928 4.77167 88.3928 4.80256C88.4237 4.80256 88.4237 4.80256 88.4546 4.80256C88.4546 4.77167 88.4546 4.77167 88.4546 4.74078C88.4237 4.70989 88.4237 4.74078 88.3928 4.74078Z" fill="white"/>
<path d="M101.552 45.5777C99.7434 45.5777 98.2775 44.1117 98.2775 42.3033C98.2775 40.4949 99.7434 39.0289 101.552 39.0289C103.36 39.0289 104.826 40.4949 104.826 42.3033C104.826 44.1117 103.36 45.5777 101.552 45.5777Z" fill="#B370A0"/>
<path d="M100.595 40.8514L103.436 42.5813C103.776 42.7666 103.869 43.1991 103.653 43.5389C103.467 43.8787 103.035 43.9714 102.695 43.7551L99.8532 42.0253C99.5134 41.8399 99.4208 41.4075 99.637 41.0677C99.8223 40.7588 100.255 40.6661 100.595 40.8514ZM100.996 42.3033C100.934 42.3651 100.965 42.4886 101.058 42.5195L101.738 42.9211C101.799 42.9829 101.923 42.952 101.954 42.8593L102.294 42.3033C102.355 42.2415 102.324 42.1179 102.232 42.0871L101.552 41.6855C101.49 41.6237 101.367 41.6546 101.336 41.7473L100.996 42.3033Z" fill="white"/>
<path d="M102.015 42.2416C102.015 42.2724 102.015 42.3033 102.015 42.3033C102.046 42.3033 102.077 42.3033 102.077 42.3033C102.077 42.2724 102.077 42.2416 102.077 42.2416C102.046 42.2107 102.015 42.2107 102.015 42.2416Z" fill="white"/>
<path d="M101.738 42.0561C101.738 42.087 101.738 42.1179 101.738 42.1179C101.768 42.1179 101.799 42.1179 101.799 42.1179C101.799 42.087 101.799 42.0561 101.799 42.0561C101.768 42.0252 101.738 42.0252 101.738 42.0561Z" fill="white"/>
<path d="M101.459 41.9017C101.459 41.9326 101.459 41.9635 101.459 41.9635C101.49 41.9635 101.521 41.9635 101.521 41.9635C101.521 41.9326 101.521 41.9017 101.521 41.9017C101.49 41.8708 101.459 41.8708 101.459 41.9017Z" fill="white"/>
<path d="M101.768 42.3033C101.768 42.3342 101.768 42.3651 101.768 42.3651C101.799 42.3651 101.83 42.3651 101.83 42.3651C101.83 42.3342 101.83 42.3033 101.83 42.3033C101.83 42.2724 101.799 42.3033 101.768 42.3033Z" fill="white"/>
<path d="M101.49 42.1488C101.49 42.1797 101.49 42.2106 101.49 42.2106C101.521 42.2106 101.552 42.2106 101.552 42.2106C101.552 42.1797 101.552 42.1488 101.552 42.1488C101.552 42.1179 101.521 42.1179 101.49 42.1488Z" fill="white"/>
<path d="M101.799 42.5504C101.799 42.5813 101.799 42.6122 101.799 42.6122C101.83 42.6122 101.861 42.6122 101.861 42.6122C101.861 42.5813 101.861 42.5504 101.861 42.5504C101.861 42.5195 101.83 42.5195 101.799 42.5504Z" fill="white"/>
<path d="M101.521 42.396C101.521 42.4269 101.521 42.4577 101.521 42.4577C101.552 42.4577 101.583 42.4577 101.583 42.4577C101.583 42.4269 101.583 42.396 101.583 42.396C101.583 42.3651 101.552 42.3651 101.521 42.396Z" fill="white"/>
<path d="M101.243 42.2105C101.243 42.2414 101.243 42.2723 101.243 42.2723C101.274 42.2723 101.305 42.2723 101.305 42.2723C101.305 42.2414 101.305 42.2105 101.305 42.2105C101.305 42.1797 101.274 42.1797 101.243 42.2105Z" fill="white"/>
<path d="M101.583 42.643C101.583 42.6739 101.583 42.7048 101.583 42.7048C101.614 42.7048 101.645 42.7048 101.645 42.7048C101.645 42.6739 101.645 42.643 101.645 42.643C101.614 42.6122 101.583 42.6122 101.583 42.643Z" fill="white"/>
<path d="M101.305 42.4577C101.305 42.4886 101.305 42.5195 101.305 42.5195C101.336 42.5195 101.367 42.5195 101.367 42.5195C101.367 42.4886 101.367 42.4577 101.367 42.4577C101.336 42.4268 101.305 42.4577 101.305 42.4577Z" fill="white"/>
<path d="M30.5356 8.35496C28.4543 8.35496 26.767 6.66769 26.767 4.58635C26.767 2.50501 28.4543 0.817749 30.5356 0.817749C32.6169 0.817749 34.3042 2.50501 34.3042 4.58635C34.3042 6.66769 32.6169 8.35496 30.5356 8.35496Z" fill="#F4BED1"/>
<path d="M29.4233 2.94925L32.6668 4.95711C33.0375 5.17334 33.161 5.66758 32.9139 6.03827C32.6977 6.40895 32.2034 6.53251 31.8328 6.28539L28.5893 4.27752C28.2186 4.06129 28.095 3.56705 28.3422 3.19637C28.5584 2.82568 29.0526 2.70212 29.4233 2.94925ZM29.8867 4.58643C29.8249 4.6791 29.8558 4.80266 29.9485 4.83355L30.7207 5.2969C30.8134 5.35868 30.9369 5.32779 30.9678 5.23512L31.3694 4.61732C31.4312 4.52465 31.4003 4.40108 31.3076 4.37019L30.5354 3.90684C30.4427 3.84506 30.3191 3.87595 30.2882 3.96862L29.8867 4.58643Z" fill="white"/>
<path d="M31.0606 4.52454C31.0606 4.55543 31.0606 4.58632 31.0915 4.58632C31.1224 4.58632 31.1533 4.58632 31.1533 4.55543C31.1533 4.52454 31.1533 4.49365 31.1224 4.49365C31.0915 4.49365 31.0606 4.49365 31.0606 4.52454Z" fill="white"/>
<path d="M30.7208 4.30836C30.7208 4.33925 30.7208 4.37014 30.7517 4.37014C30.7826 4.37014 30.8135 4.37014 30.8135 4.33925C30.8135 4.30836 30.8135 4.27747 30.7826 4.27747C30.7826 4.27747 30.7517 4.27747 30.7208 4.30836Z" fill="white"/>
<path d="M30.4122 4.12293C30.4122 4.15382 30.4122 4.18471 30.4431 4.18471C30.474 4.18471 30.5049 4.18471 30.5049 4.15382C30.5049 4.12293 30.5049 4.09204 30.474 4.09204C30.4431 4.09204 30.4122 4.09204 30.4122 4.12293Z" fill="white"/>
<path d="M30.7828 4.6172C30.7828 4.64809 30.7828 4.67898 30.8137 4.67898C30.8446 4.67898 30.8755 4.67898 30.8755 4.64809C30.8755 4.6172 30.8755 4.5863 30.8446 4.5863C30.8137 4.5863 30.7828 4.58631 30.7828 4.6172Z" fill="white"/>
<path d="M30.4737 4.40101C30.4737 4.4319 30.4737 4.46279 30.5046 4.46279C30.5355 4.46279 30.5664 4.46279 30.5664 4.4319C30.5664 4.40101 30.5664 4.37012 30.5355 4.37012C30.5046 4.37012 30.4737 4.37012 30.4737 4.40101Z" fill="white"/>
<path d="M30.8136 4.89527C30.8136 4.92616 30.8136 4.95705 30.8445 4.95705C30.8754 4.95705 30.9062 4.95705 30.9062 4.92616C30.9062 4.89527 30.9062 4.86438 30.8754 4.86438C30.8754 4.86438 30.8445 4.86438 30.8136 4.89527Z" fill="white"/>
<path d="M30.505 4.67896C30.505 4.70985 30.505 4.74074 30.5359 4.74074C30.5668 4.74074 30.5977 4.74074 30.5977 4.70985C30.5977 4.67896 30.5977 4.64807 30.5668 4.64807C30.5359 4.64807 30.505 4.64807 30.505 4.67896Z" fill="white"/>
<path d="M30.1959 4.49366C30.1959 4.52455 30.1959 4.55544 30.2268 4.55544C30.2577 4.55544 30.2886 4.55544 30.2886 4.52455C30.2886 4.49366 30.2886 4.46277 30.2577 4.46277C30.2268 4.46277 30.1959 4.46277 30.1959 4.49366Z" fill="white"/>
<path d="M30.5665 4.98792C30.5665 5.01881 30.5665 5.0497 30.5974 5.0497C30.6283 5.0497 30.6592 5.0497 30.6592 5.01881C30.6592 4.98792 30.6592 4.95703 30.6283 4.95703C30.5974 4.95703 30.5665 4.95703 30.5665 4.98792Z" fill="white"/>
<path d="M30.2267 4.77174C30.2267 4.80263 30.2267 4.83352 30.2576 4.83352C30.2884 4.83352 30.3193 4.83352 30.3193 4.80263C30.3193 4.77174 30.3193 4.74084 30.2884 4.74084C30.2884 4.74084 30.2576 4.74085 30.2267 4.77174Z" fill="white"/>
<path d="M33.3465 76.5913C31.8281 76.5913 30.5972 75.3605 30.5972 73.8421C30.5972 72.3238 31.8281 71.0929 33.3465 71.0929C34.8648 71.0929 36.0957 72.3238 36.0957 73.8421C36.0957 75.3605 34.8648 76.5913 33.3465 76.5913Z" fill="#FEBE9C"/>
<path d="M32.5433 72.6374L34.9218 74.1202C35.1999 74.2746 35.2925 74.6453 35.1072 74.9233C34.9527 75.2013 34.5821 75.294 34.304 75.1086L31.9255 73.6259C31.6475 73.4715 31.5548 73.1008 31.7402 72.8228C31.9255 72.5448 32.2653 72.483 32.5433 72.6374ZM32.8831 73.873C32.8522 73.9348 32.8522 74.0275 32.914 74.0584L33.47 74.3982C33.5318 74.4291 33.6245 74.4291 33.6553 74.3673L33.9334 73.9039C33.9643 73.8421 33.9643 73.7495 33.9025 73.7186L33.3464 73.3788C33.2847 73.3479 33.192 73.3479 33.1611 73.4097L32.8831 73.873Z" fill="white"/>
<path d="M33.7483 73.7805C33.7483 73.8113 33.7483 73.8113 33.7483 73.8422C33.7483 73.8731 33.7792 73.8422 33.8101 73.8422C33.8101 73.8113 33.8101 73.8113 33.8101 73.7805C33.8101 73.7496 33.7483 73.7805 33.7483 73.7805Z" fill="white"/>
<path d="M33.5012 73.6568C33.5012 73.6877 33.5012 73.6877 33.5012 73.7186C33.5321 73.7186 33.5321 73.7186 33.563 73.7186C33.563 73.6877 33.563 73.6877 33.563 73.6568C33.5321 73.6259 33.5012 73.6259 33.5012 73.6568Z" fill="white"/>
<path d="M33.2541 73.5024C33.2541 73.5333 33.2541 73.5333 33.2541 73.5642C33.2541 73.5951 33.285 73.5642 33.3159 73.5642C33.3159 73.5333 33.3159 73.5333 33.3159 73.5024C33.285 73.4715 33.285 73.4715 33.2541 73.5024Z" fill="white"/>
<path d="M33.532 73.873C33.532 73.9039 33.532 73.9039 33.532 73.9348C33.532 73.9657 33.5629 73.9348 33.5938 73.9348C33.5938 73.9039 33.5938 73.9039 33.5938 73.873C33.5938 73.8421 33.5629 73.8421 33.532 73.873Z" fill="white"/>
<path d="M33.3157 73.7186C33.3157 73.7495 33.3157 73.7495 33.3157 73.7804C33.3466 73.7804 33.3466 73.7804 33.3774 73.7804C33.3774 73.7495 33.3774 73.7495 33.3774 73.7186C33.3466 73.6877 33.3157 73.6877 33.3157 73.7186Z" fill="white"/>
<path d="M33.5627 74.0584C33.5627 74.0893 33.5627 74.0893 33.5627 74.1202C33.5936 74.1202 33.5936 74.1202 33.6245 74.1202C33.6245 74.0893 33.6245 74.0893 33.6245 74.0584C33.6245 74.0275 33.5627 74.0584 33.5627 74.0584Z" fill="white"/>
<path d="M33.3157 73.9348C33.3157 73.9657 33.3157 73.9657 33.3157 73.9966C33.3157 74.0275 33.3466 73.9966 33.3774 73.9966C33.3774 73.9657 33.3774 73.9657 33.3774 73.9348C33.3774 73.9039 33.3466 73.9039 33.3157 73.9348Z" fill="white"/>
<path d="M33.0993 73.7804C33.0993 73.8113 33.0993 73.8113 33.0993 73.8421C33.1302 73.8421 33.1302 73.8421 33.1611 73.8421C33.1611 73.8113 33.1611 73.8113 33.1611 73.7804C33.1611 73.7495 33.0993 73.7495 33.0993 73.7804Z" fill="white"/>
<path d="M33.3777 74.1202C33.3777 74.1511 33.3777 74.1511 33.3777 74.182C33.4086 74.182 33.4086 74.182 33.4395 74.182C33.4395 74.1511 33.4395 74.1511 33.4395 74.1202C33.4395 74.0893 33.3777 74.1202 33.3777 74.1202Z" fill="white"/>
<path d="M33.1306 73.9967C33.1306 74.0276 33.1306 74.0276 33.1306 74.0585C33.1615 74.0585 33.1615 74.0585 33.1924 74.0585C33.1924 74.0276 33.1924 74.0276 33.1924 73.9967C33.1615 73.9658 33.1615 73.9658 33.1306 73.9967Z" fill="white"/>
<path d="M55.568 57.5997C55.302 54.7116 57.4275 52.1547 60.3156 51.8887C63.2036 51.6226 65.7605 53.7482 66.0266 56.6362C66.2926 59.5243 64.1671 62.0812 61.279 62.3472C58.391 62.6133 55.8341 60.4877 55.568 57.5997Z" fill="#B370A0"/>
<path d="M61.055 54.3504L62.754 59.3855C62.9393 59.9724 62.6304 60.5902 62.0435 60.8065C61.4566 60.9918 60.8388 60.6829 60.6225 60.096L58.9236 55.0609C58.7382 54.474 59.0471 53.8562 59.6341 53.64C60.2519 53.4546 60.8697 53.7635 61.055 54.3504ZM60.0974 56.5745C59.9739 56.6363 59.8812 56.7599 59.943 56.9143L60.3445 58.0881C60.4063 58.2117 60.5299 58.3044 60.6843 58.2426L61.6728 57.9028C61.7964 57.841 61.889 57.7175 61.8273 57.563L61.4257 56.3892C61.3639 56.2656 61.2404 56.1729 61.0859 56.2347L60.0974 56.5745Z" fill="white"/>
<path d="M61.4258 57.5012C61.3949 57.5012 61.364 57.563 61.3949 57.5939C61.3949 57.6248 61.4567 57.6557 61.4876 57.6248C61.5185 57.6248 61.5493 57.563 61.5185 57.5321C61.4876 57.5012 61.4567 57.5012 61.4258 57.5012Z" fill="white"/>
<path d="M61.2402 57.0071C61.2094 57.0071 61.1785 57.0689 61.2093 57.0998C61.2093 57.1306 61.2711 57.1615 61.302 57.1306C61.3329 57.1306 61.3638 57.0689 61.3329 57.038C61.3329 57.0071 61.302 57.0071 61.2402 57.0071Z" fill="white"/>
<path d="M61.0859 56.5128C61.0551 56.5128 61.0242 56.5746 61.0551 56.6055C61.0551 56.6364 61.1168 56.6673 61.1477 56.6364C61.1786 56.6364 61.2095 56.5746 61.1786 56.5437C61.1477 56.5128 61.1168 56.5128 61.0859 56.5128Z" fill="white"/>
<path d="M61.0552 57.3778C61.0243 57.3778 60.9934 57.4396 61.0243 57.4705C61.0243 57.5013 61.0861 57.5322 61.117 57.5013C61.1478 57.5013 61.1787 57.4396 61.1478 57.4087C61.117 57.3778 61.0861 57.3469 61.0552 57.3778Z" fill="white"/>
<path d="M60.8696 56.8835C60.8387 56.8835 60.8079 56.9453 60.8387 56.9762C60.8387 57.0071 60.9005 57.038 60.9314 57.0071C60.9623 57.0071 60.9932 56.9453 60.9623 56.9144C60.9314 56.8835 60.9314 56.8526 60.8696 56.8835Z" fill="white"/>
<path d="M60.8389 57.6866C60.808 57.6866 60.7771 57.7484 60.808 57.7793C60.808 57.8102 60.8698 57.8411 60.9006 57.8102C60.9315 57.8102 60.9624 57.7484 60.9315 57.7175C60.9315 57.7175 60.8698 57.6866 60.8389 57.6866Z" fill="white"/>
<path d="M60.6846 57.1924C60.6537 57.1924 60.6228 57.2542 60.6537 57.285C60.6537 57.3159 60.7155 57.3468 60.7464 57.3159C60.7772 57.3159 60.8081 57.2542 60.7772 57.2233C60.7464 57.2233 60.7155 57.1924 60.6846 57.1924Z" fill="white"/>
<path d="M60.499 56.6981C60.4681 56.6981 60.4372 56.7599 60.4681 56.7908C60.4681 56.8217 60.5299 56.8526 60.5608 56.8217C60.5917 56.8217 60.6226 56.7599 60.5917 56.729C60.5917 56.729 60.5608 56.6981 60.499 56.6981Z" fill="white"/>
<path d="M60.4683 57.5631C60.4374 57.5631 60.4065 57.6249 60.4374 57.6558C60.4374 57.6866 60.4992 57.7175 60.53 57.6866C60.5609 57.6558 60.5918 57.6249 60.5609 57.594C60.5609 57.5631 60.4992 57.5322 60.4683 57.5631Z" fill="white"/>
<path d="M60.3135 57.0688C60.2826 57.0688 60.2517 57.1306 60.2826 57.1615C60.2826 57.1924 60.3444 57.2233 60.3753 57.1924C60.4062 57.1924 60.437 57.1306 60.4061 57.0997C60.3753 57.0688 60.3444 57.0379 60.3135 57.0688Z" fill="white"/>
<path d="M0.541305 27.2289C0.541305 28.1556 1.28267 28.8969 2.20937 28.8969C3.13608 28.8969 3.87744 28.1556 3.87744 27.2289C3.87744 26.3022 3.13608 25.5608 2.20937 25.5608C1.28267 25.5608 0.541305 26.3022 0.541305 27.2289Z" fill="#F4BED1"/>
<path d="M1.71517 26.4875L3.13612 27.3833C3.29057 27.476 3.35235 27.6922 3.25968 27.8776C3.16701 28.0629 2.95078 28.0938 2.76544 28.0011L1.3445 27.1053C1.19004 27.0126 1.12826 26.7964 1.22093 26.6111C1.3136 26.4257 1.56072 26.3948 1.71517 26.4875ZM1.93141 27.2289C1.90052 27.2597 1.93141 27.3215 1.9623 27.3524L2.30208 27.5686C2.33297 27.5995 2.39476 27.5686 2.42565 27.5378L2.61099 27.2597C2.64188 27.2289 2.61099 27.1671 2.5801 27.1362L2.24031 26.92C2.20942 26.8891 2.14764 26.92 2.11675 26.9508L1.93141 27.2289Z" fill="white"/>
<path d="M2.42566 27.198V27.2289H2.45654V27.198C2.45654 27.1671 2.42566 27.1671 2.42566 27.198Z" fill="white"/>
<path d="M2.30212 27.1053V27.1362H2.33301V27.1053C2.30212 27.0744 2.30212 27.0744 2.30212 27.1053Z" fill="white"/>
<path d="M2.14714 27.0126V27.0437H2.17822V27.0126H2.14714Z" fill="white"/>
<path d="M2.30192 27.2289V27.26H2.33301V27.2289C2.33301 27.1978 2.33301 27.2289 2.30192 27.2289Z" fill="white"/>
<path d="M2.17839 27.1361V27.1672H2.20947V27.1361C2.17839 27.1361 2.17839 27.1361 2.17839 27.1361Z" fill="white"/>
<path d="M2.33268 27.3524V27.3835H2.36377V27.3524C2.36377 27.3214 2.33268 27.3524 2.33268 27.3524Z" fill="white"/>
<path d="M2.17839 27.2598V27.2908H2.20947V27.2598C2.20947 27.2598 2.20947 27.2598 2.17839 27.2598Z" fill="white"/>
<path d="M2.05485 27.1671V27.1982H2.08594V27.1671C2.05485 27.1671 2.05485 27.1671 2.05485 27.1671Z" fill="white"/>
<path d="M2.20915 27.3833V27.4144H2.24023V27.3833H2.20915Z" fill="white"/>
<path d="M2.08561 27.2906V27.3217H2.1167V27.2906C2.08561 27.2906 2.08561 27.2906 2.08561 27.2906Z" fill="white"/>
<path d="M86.3234 43.8168C81.8707 43.8168 78.2611 40.2072 78.2611 35.7545C78.2611 31.3018 81.8707 27.6921 86.3234 27.6921C90.7761 27.6921 94.3857 31.3018 94.3857 35.7545C94.3857 40.2072 90.7761 43.8168 86.3234 43.8168Z" fill="#B3E5E6"/>
<path d="M83.9139 32.2331L90.8951 36.5268C91.6982 37.0211 91.9454 38.0713 91.4511 38.8745C90.9569 39.6776 89.9066 39.9247 89.1035 39.4305L82.1223 35.1368C81.3191 34.6425 81.072 33.5922 81.5662 32.7891C82.0605 32.0168 83.1108 31.7388 83.9139 32.2331ZM84.9333 35.8163C84.8097 36.0017 84.8715 36.2488 85.0568 36.3724L86.694 37.3917C86.8794 37.5153 87.1265 37.4535 87.25 37.2682L88.0841 35.8781C88.2076 35.6928 88.1459 35.4457 87.9605 35.3221L86.3233 34.3027C86.138 34.1792 85.8909 34.2409 85.7673 34.4263L84.9333 35.8163Z" fill="white"/>
<path d="M87.4042 35.631C87.3733 35.6928 87.3733 35.7545 87.4351 35.7854C87.4969 35.8163 87.5587 35.8163 87.5896 35.7545C87.6205 35.6928 87.6205 35.631 87.5587 35.6001C87.4969 35.5383 87.4351 35.5692 87.4042 35.631Z" fill="white"/>
<path d="M86.725 35.1985C86.6941 35.2603 86.6941 35.3221 86.7559 35.353C86.8177 35.3839 86.8795 35.3839 86.9104 35.3221C86.9413 35.2603 86.9413 35.1985 86.8795 35.1676C86.8177 35.1367 86.7559 35.1367 86.725 35.1985Z" fill="white"/>
<path d="M86.0449 34.7661C86.014 34.8279 86.014 34.8897 86.0757 34.9205C86.1375 34.9514 86.1993 34.9514 86.2302 34.8897C86.2611 34.8279 86.2611 34.7661 86.1993 34.7352C86.1375 34.7043 86.0757 34.7352 86.0449 34.7661Z" fill="white"/>
<path d="M86.8481 35.8163C86.8172 35.8781 86.8172 35.9399 86.879 35.9708C86.9408 36.0017 87.0025 36.0017 87.0334 35.9399C87.0643 35.8781 87.0643 35.8163 87.0025 35.7854C86.9407 35.7545 86.879 35.7545 86.8481 35.8163Z" fill="white"/>
<path d="M86.1684 35.3839C86.1375 35.4457 86.1375 35.5075 86.1993 35.5383C86.2611 35.5692 86.3228 35.5692 86.3537 35.5075C86.3846 35.4457 86.3846 35.3839 86.3228 35.353C86.2611 35.3221 86.1993 35.353 86.1684 35.3839Z" fill="white"/>
<path d="M86.9101 36.4032C86.8792 36.465 86.8792 36.5267 86.941 36.5576C87.0028 36.5885 87.0645 36.5885 87.0954 36.5267C87.1263 36.465 87.1263 36.4032 87.0645 36.3723C87.0337 36.3414 86.941 36.3723 86.9101 36.4032Z" fill="white"/>
<path d="M86.2304 36.0017C86.1995 36.0635 86.1995 36.1253 86.2613 36.1562C86.3231 36.1871 86.3849 36.1871 86.4157 36.1253C86.4466 36.0635 86.4466 36.0017 86.3849 35.9709C86.3231 35.94 86.2613 35.94 86.2304 36.0017Z" fill="white"/>
<path d="M85.5507 35.5692C85.5198 35.631 85.5198 35.6928 85.5816 35.7237C85.6434 35.7546 85.7052 35.7546 85.7361 35.6928C85.7669 35.631 85.7669 35.5692 85.7052 35.5384C85.6434 35.5075 85.5816 35.5075 85.5507 35.5692Z" fill="white"/>
<path d="M86.3539 36.6194C86.323 36.6812 86.323 36.743 86.3848 36.7739C86.4466 36.8048 86.5084 36.8048 86.5393 36.743C86.5702 36.6812 86.5702 36.6194 86.5084 36.5885C86.4466 36.5576 86.3848 36.5576 86.3539 36.6194Z" fill="white"/>
<path d="M85.6747 36.187C85.6438 36.2488 85.6439 36.3106 85.7056 36.3415C85.7674 36.3724 85.8292 36.3724 85.8601 36.3106C85.891 36.2488 85.891 36.187 85.8292 36.1562C85.7674 36.1253 85.7056 36.1253 85.6747 36.187Z" fill="white"/>
<path d="M35.1688 4.27741C35.1688 5.42034 36.0955 6.34705 37.2385 6.34705C38.3814 6.34705 39.3081 5.42034 39.3081 4.27741C39.3081 3.13447 38.3814 2.20776 37.2385 2.20776C36.0955 2.20776 35.1688 3.13447 35.1688 4.27741Z" fill="#B3E5E6"/>
<path d="M36.5901 3.38158L38.3817 4.46274C38.5979 4.5863 38.6597 4.86431 38.5361 5.04965C38.4126 5.26588 38.1346 5.32766 37.9492 5.2041L36.1576 4.12294C35.9414 3.99938 35.8796 3.72137 36.0031 3.53603C36.1267 3.3198 36.4047 3.25802 36.5901 3.38158ZM36.8681 4.30828C36.8372 4.37006 36.8681 4.43184 36.899 4.46274L37.3314 4.70986C37.3932 4.74075 37.455 4.70986 37.4859 4.67897L37.7021 4.33917C37.733 4.27739 37.7021 4.21561 37.6712 4.18472L37.2388 3.9376C37.177 3.90671 37.1152 3.9376 37.0843 3.96849L36.8681 4.30828Z" fill="white"/>
<path d="M37.4855 4.2466V4.27769H37.5166V4.2466C37.5166 4.21552 37.5166 4.2466 37.4855 4.2466Z" fill="white"/>
<path d="M37.3312 4.12305V4.15413H37.3623V4.12305H37.3312Z" fill="white"/>
<path d="M37.1457 4.03042V4.0615H37.1768V4.03042C37.1768 3.99933 37.1457 4.03042 37.1457 4.03042Z" fill="white"/>
<path d="M37.3622 4.30832V4.33921H37.3931V4.30832C37.3622 4.27743 37.3622 4.27743 37.3622 4.30832Z" fill="white"/>
<path d="M37.1769 4.18481V4.2159H37.208V4.18481H37.1769Z" fill="white"/>
<path d="M37.3622 4.46274V4.49363H37.3931V4.46274C37.3931 4.43185 37.3931 4.43185 37.3622 4.46274Z" fill="white"/>
<path d="M37.2077 4.33925V4.37034H37.2388V4.33925C37.2077 4.30817 37.2077 4.33925 37.2077 4.33925Z" fill="white"/>
<path d="M37.0223 4.24656V4.27745H37.0532V4.24656C37.0532 4.21567 37.0223 4.21567 37.0223 4.24656Z" fill="white"/>
<path d="M37.2384 4.49365V4.52474H37.2695V4.49365C37.2384 4.49365 37.2384 4.49365 37.2384 4.49365Z" fill="white"/>
<path d="M37.0531 4.40098V4.43186H37.084V4.40098C37.084 4.37009 37.0531 4.37009 37.0531 4.40098Z" fill="white"/>
<path d="M40.7292 47.5546C39.5862 47.5546 38.6595 46.628 38.6595 45.4849C38.6595 44.3419 39.5862 43.4153 40.7292 43.4153C41.8722 43.4153 42.7988 44.3419 42.7988 45.4849C42.7988 46.628 41.8722 47.5546 40.7292 47.5546Z" fill="#ADD5F4"/>
<path d="M40.1116 44.5891L41.9032 45.6703C42.1194 45.7938 42.1812 46.0718 42.0576 46.2572C41.9341 46.4734 41.6561 46.5352 41.4707 46.4116L39.6791 45.3305C39.4629 45.2069 39.4011 44.9289 39.5246 44.7435C39.6482 44.5273 39.8953 44.4655 40.1116 44.5891ZM40.3587 45.4849C40.3278 45.5467 40.3587 45.6085 40.3896 45.6394L40.822 45.8865C40.8838 45.9174 40.9456 45.8865 40.9765 45.8556L41.1927 45.5158C41.2236 45.454 41.1927 45.3922 41.1618 45.3614L40.7294 45.1142C40.6676 45.0833 40.6058 45.1142 40.5749 45.1451L40.3587 45.4849Z" fill="white"/>
<path d="M41.0072 45.4541V45.485H41.0381V45.4541C41.0381 45.4232 41.0072 45.4232 41.0072 45.4541Z" fill="white"/>
<path d="M40.8219 45.3304V45.3615H40.853V45.3304C40.853 45.3304 40.853 45.3304 40.8219 45.3304Z" fill="white"/>
<path d="M40.6674 45.2378V45.2687H40.6982V45.2378C40.6982 45.2069 40.6674 45.2069 40.6674 45.2378Z" fill="white"/>
<path d="M40.8527 45.485V45.5161H40.8838V45.485C40.8838 45.485 40.8838 45.485 40.8527 45.485Z" fill="white"/>
<path d="M40.6986 45.3923V45.4232H40.7295V45.3923C40.6986 45.3614 40.6986 45.3614 40.6986 45.3923Z" fill="white"/>
<path d="M40.8835 45.6394V45.6705H40.9146V45.6394H40.8835Z" fill="white"/>
<path d="M40.6986 45.5467V45.5776H40.7295V45.5467C40.7295 45.5158 40.7295 45.5158 40.6986 45.5467Z" fill="white"/>
<path d="M40.5436 45.4231V45.4542H40.5747V45.4231C40.5436 45.4231 40.5436 45.4231 40.5436 45.4231Z" fill="white"/>
<path d="M40.7294 45.7011V45.732H40.7603V45.7011C40.7603 45.6703 40.7294 45.6703 40.7294 45.7011Z" fill="white"/>
<path d="M40.5749 45.5775V45.6086H40.606V45.5775C40.5749 45.5775 40.5749 45.5775 40.5749 45.5775Z" fill="white"/>
<path d="M64.9658 64.5157C64.4049 62.9588 65.2124 61.2421 66.7693 60.6812C68.3261 60.1204 70.0429 60.9279 70.6037 62.4847C71.1645 64.0416 70.3571 65.7583 68.8002 66.3192C67.2433 66.88 65.5266 66.0725 64.9658 64.5157Z" fill="#ADD5F4"/>
<path d="M66.2136 63.7411L68.7466 62.073C69.0247 61.8877 69.4262 61.9494 69.6116 62.2583C69.7969 62.5364 69.7351 62.9379 69.4262 63.1233L66.8932 64.7913C66.6152 64.9767 66.2136 64.9149 66.0283 64.606C65.843 64.328 65.9356 63.9264 66.2136 63.7411ZM67.5728 63.9573C67.6037 64.0191 67.6964 64.05 67.789 63.9882L68.376 63.5866C68.4377 63.5557 68.4686 63.4631 68.4068 63.3704L68.0671 62.8762C68.0362 62.8144 67.9435 62.7835 67.8508 62.8453L67.2639 63.2468C67.2021 63.2777 67.1712 63.3704 67.233 63.4631L67.5728 63.9573Z" fill="white"/>
<path d="M67.9126 63.0924C67.9126 63.1233 67.9435 63.1233 67.9744 63.0924C68.0053 63.0924 68.0053 63.0615 67.9744 63.0306C67.9744 62.9997 67.9435 62.9997 67.9126 63.0306C67.8817 63.0615 67.8817 63.0924 67.9126 63.0924Z" fill="white"/>
<path d="M67.6655 63.2777C67.6655 63.3086 67.6964 63.3086 67.7273 63.2777C67.7582 63.2777 67.7582 63.2468 67.7273 63.2159C67.7273 63.185 67.6964 63.185 67.6655 63.2159C67.6346 63.2159 67.6346 63.2468 67.6655 63.2777Z" fill="white"/>
<path d="M67.4185 63.4322C67.4185 63.4631 67.4494 63.4631 67.4803 63.4322C67.5111 63.4322 67.5111 63.4013 67.4803 63.3705C67.4803 63.3396 67.4494 63.3396 67.4185 63.3705C67.3876 63.3705 67.3876 63.4014 67.4185 63.4322Z" fill="white"/>
<path d="M67.8818 63.3086C67.8818 63.3395 67.9127 63.3395 67.9436 63.3086C67.9745 63.3086 67.9745 63.2777 67.9436 63.2468C67.9436 63.2159 67.9127 63.2159 67.8818 63.2468C67.8818 63.2777 67.8818 63.3086 67.8818 63.3086Z" fill="white"/>
<path d="M67.6348 63.494C67.6348 63.5249 67.6657 63.5249 67.6966 63.494C67.7274 63.494 67.7274 63.4631 67.6966 63.4322C67.6966 63.4013 67.6657 63.4013 67.6348 63.4322C67.6348 63.4322 67.6348 63.4631 67.6348 63.494Z" fill="white"/>
<path d="M68.0982 63.4012C68.0982 63.4321 68.129 63.4321 68.1599 63.4012C68.1908 63.4012 68.1908 63.3703 68.1599 63.3395C68.1599 63.3086 68.129 63.3086 68.0982 63.3395C68.0982 63.3395 68.0673 63.3703 68.0982 63.4012Z" fill="white"/>
<path d="M67.8506 63.5557C67.8506 63.5865 67.8815 63.5865 67.9124 63.5557C67.9433 63.5557 67.9433 63.5248 67.9124 63.4939C67.9124 63.463 67.8815 63.463 67.8506 63.4939C67.8506 63.5248 67.8197 63.5248 67.8506 63.5557Z" fill="white"/>
<path d="M67.6035 63.7102C67.6035 63.7411 67.6344 63.7411 67.6653 63.7102C67.6962 63.7102 67.6962 63.6793 67.6653 63.6484C67.6653 63.6175 67.6344 63.6175 67.6035 63.6484C67.6035 63.6793 67.5726 63.7102 67.6035 63.7102Z" fill="white"/>
<path d="M68.0669 63.6175C68.0669 63.6484 68.0978 63.6484 68.1287 63.6175C68.1596 63.6175 68.1596 63.5867 68.1287 63.5558C68.1287 63.5249 68.0978 63.5249 68.0669 63.5558C68.0669 63.5558 68.0669 63.5866 68.0669 63.6175Z" fill="white"/>
<path d="M67.8203 63.772C67.8203 63.8028 67.8512 63.8028 67.8821 63.772C67.913 63.772 67.913 63.7411 67.8821 63.7102C67.8821 63.6793 67.8512 63.6793 67.8203 63.7102C67.8203 63.7411 67.8203 63.772 67.8203 63.772Z" fill="white"/>
<path d="M45.4247 70.4443C45.4247 71.5872 46.3514 72.5139 47.4943 72.5139C48.6373 72.5139 49.564 71.5872 49.564 70.4443C49.564 69.3013 48.6373 68.3746 47.4943 68.3746C46.3514 68.3746 45.4247 69.3322 45.4247 70.4443Z" fill="#ADD5F4"/>
<path d="M46.8767 69.5484L48.6683 70.6296C48.8845 70.7532 48.9463 71.0312 48.8228 71.2165C48.6992 71.4327 48.4212 71.4945 48.2359 71.371L46.4442 70.2898C46.228 70.1663 46.1662 69.8882 46.2898 69.7029C46.3824 69.4867 46.6605 69.4249 46.8767 69.5484ZM47.1238 70.4752C47.0929 70.5369 47.1238 70.5987 47.1547 70.6296L47.5872 70.8767C47.6489 70.9076 47.7107 70.8767 47.7416 70.8458L47.927 70.4752C47.9578 70.4134 47.927 70.3516 47.8961 70.3207L47.4636 70.0736C47.4018 70.0427 47.34 70.0736 47.3091 70.1045L47.1238 70.4752Z" fill="white"/>
<path d="M47.7414 70.4133V70.4444H47.7725V70.4133C47.7725 70.4133 47.7725 70.4133 47.7414 70.4133Z" fill="white"/>
<path d="M47.5868 70.3207V70.3515H47.6177V70.3207C47.6177 70.2898 47.5868 70.2898 47.5868 70.3207Z" fill="white"/>
<path d="M47.4015 70.1971V70.2282H47.4326V70.1971H47.4015Z" fill="white"/>
<path d="M47.618 70.4751V70.506H47.6489V70.4751C47.6489 70.4442 47.618 70.4442 47.618 70.4751Z" fill="white"/>
<path d="M47.4323 70.3516V70.3826H47.4634V70.3516H47.4323Z" fill="white"/>
<path d="M47.618 70.6296V70.6605H47.6489V70.6296C47.6489 70.5987 47.6489 70.5987 47.618 70.6296Z" fill="white"/>
<path d="M47.4631 70.506V70.5371H47.4941V70.506H47.4631Z" fill="white"/>
<path d="M47.2782 70.4133V70.4442H47.3091V70.4133C47.3091 70.3824 47.2782 70.3824 47.2782 70.4133Z" fill="white"/>
<path d="M47.4943 70.6604V70.6915H47.5254V70.6604C47.4943 70.6604 47.4943 70.6604 47.4943 70.6604Z" fill="white"/>
<path d="M47.309 70.5677V70.5986H47.3398V70.5677C47.3398 70.5368 47.309 70.5368 47.309 70.5677Z" fill="white"/>
<path d="M92.625 27.8775C86.978 27.8775 82.4003 23.2998 82.4003 17.6529C82.4003 12.006 86.978 7.42822 92.625 7.42822C98.2719 7.42822 102.85 12.006 102.85 17.6529C102.85 23.2998 98.2719 27.8775 92.625 27.8775Z" fill="#B3E5E6"/>
<path d="M94.324 22.6879L97.6602 19.3518L91.9455 13.6371L89.3198 14.3476L88.6093 16.9732L94.324 22.6879ZM97.2895 19.3518L94.324 22.3172L88.8873 16.8806L89.5051 14.5329L91.8528 13.9151L97.2895 19.3518Z" fill="white"/>
<path d="M89.6904 14.3476L86.447 11.4749L89.3197 14.7183L89.4124 14.4403L89.6904 14.3476Z" fill="white"/>
<path d="M97.2184 20.094L98.2231 21.0988L96.0607 23.2612L95.056 22.2564L97.2184 20.094Z" fill="white"/>
<path d="M98.6027 20.6511L98.7993 20.8477L95.8069 23.8401L95.6103 23.6435L98.6027 20.6511Z" fill="white"/>
<path d="M91.5745 16.2011L91.3274 15.9539L89.8756 17.4367L89.3195 16.8807L89.8138 14.8728L91.8525 14.3477L96.5479 19.043L94.0149 21.576L92.9955 20.5566L93.8604 19.6917L93.6442 19.4445L92.7484 20.3404L92.5939 20.155L93.4588 19.2901L93.2426 19.043L92.3468 19.9388L92.1614 19.7534L93.0573 18.8885L92.8101 18.6414L91.9452 19.5063L91.729 19.2901L93.2117 17.8382L92.9646 17.5911L91.4819 19.0739L91.3583 18.9194L92.2232 18.0545L92.007 17.8382L91.1112 18.7032L90.9567 18.5178L91.8217 17.6529L91.6054 17.4058L90.7096 18.3016L90.5243 18.1163L91.4201 17.2513L91.173 17.0042L90.308 17.8691L90.0918 17.6529L91.5745 16.2011Z" fill="white"/>
<path d="M59.6031 23.1205C56.6347 23.1205 54.2282 20.7141 54.2282 17.7456C54.2282 14.7772 56.6347 12.3707 59.6031 12.3707C62.5716 12.3707 64.978 14.7772 64.978 17.7456C64.978 20.7141 62.5716 23.1205 59.6031 23.1205Z" fill="#F4BED1"/>
<path d="M60.499 20.3712L62.2598 18.6105L59.2634 15.6141L57.8734 15.9848L57.5027 17.3749L60.499 20.3712ZM62.0435 18.6105L60.4681 20.1859L57.6262 17.344L57.966 16.1084L59.2016 15.7686L62.0435 18.6105Z" fill="white"/>
<path d="M58.0586 15.9849L56.3596 14.5022L57.8424 16.2012L57.9041 16.0467L58.0586 15.9849Z" fill="white"/>
<path d="M62.0109 19.0128L62.5352 19.537L61.3993 20.6728L60.8751 20.1486L62.0109 19.0128Z" fill="white"/>
<path d="M62.7389 19.2842L62.8481 19.3934L61.2755 20.9661L61.1663 20.8569L62.7389 19.2842Z" fill="white"/>
<path d="M59.0472 16.9733L58.9236 16.8498L58.1514 17.622L57.8734 17.344L58.1205 16.2629L59.2016 15.9849L61.6729 18.4561L60.3137 19.7844L59.7885 19.2592L60.2519 18.7959L60.1283 18.6723L59.665 19.1357L59.5723 19.043L60.0357 18.5796L59.9121 18.4561L59.4488 18.9194L59.3561 18.8268L59.8194 18.3634L59.6959 18.2398L59.2325 18.7032L59.1399 18.6105L59.9121 17.8074L59.7885 17.7147L59.0163 18.487L58.9236 18.3943L59.387 17.9309L59.2634 17.8074L58.8001 18.2707L58.7074 18.1781L59.1707 17.7147L59.0472 17.5912L58.5838 18.0545L58.4912 17.9618L58.9545 17.4985L58.831 17.3749L58.3676 17.8383L58.2749 17.7456L59.0472 16.9733Z" fill="white"/>
<path d="M33.841 54.9991C31.0773 54.9991 28.8368 52.7587 28.8368 49.9949C28.8368 47.2312 31.0773 44.9907 33.841 44.9907C36.6047 44.9907 38.8452 47.2312 38.8452 49.9949C38.8452 52.7587 36.6047 54.9991 33.841 54.9991Z" fill="#B3E5E6"/>
<path d="M34.6748 52.4661L36.312 50.8289L33.5319 48.0488L32.2345 48.3886L31.8947 49.686L34.6748 52.4661ZM36.1267 50.8289L34.6748 52.2808L32.0183 49.6242L32.3272 48.4813L33.4701 48.1724L36.1267 50.8289Z" fill="white"/>
<path d="M32.3892 48.3886L30.8138 46.9985L32.2038 48.5739L32.2656 48.4504L32.3892 48.3886Z" fill="white"/>
<path d="M36.0694 51.1972L36.5718 51.6996L35.5233 52.748L35.021 52.2456L36.0694 51.1972Z" fill="white"/>
<path d="M36.7331 51.4346L36.8423 51.5438L35.3788 53.0073L35.2696 52.8981L36.7331 51.4346Z" fill="white"/>
<path d="M33.3155 49.2844L33.192 49.1608L32.4815 49.9022L32.2035 49.6242L32.4815 48.6357L33.47 48.3885L35.7559 50.6744L34.5203 51.91L34.026 51.4158L34.4276 50.9833L34.3349 50.8907L33.9024 51.2922L33.8098 51.2305L34.2422 50.798L34.1187 50.6744L33.6862 51.1069L33.6244 51.0142L34.0569 50.5818L33.9333 50.4891L33.5009 50.9215L33.4082 50.798L34.1187 50.0875L33.9951 49.964L33.2846 50.6744L33.2229 50.6126L33.6553 50.1802L33.5318 50.0875L33.0993 50.52L33.0066 50.4273L33.4391 49.9948L33.3155 49.8713L32.914 50.3037L32.8213 50.2111L33.2538 49.8095L33.1302 49.6859L32.6977 50.1184L32.6051 49.9948L33.3155 49.2844Z" fill="white"/>
<path d="M29.6169 41.0493C26.8062 38.2385 26.8062 33.6814 29.6169 30.8707C32.4276 28.0599 36.9847 28.0599 39.7955 30.8707C42.6062 33.6814 42.6062 38.2385 39.7955 41.0493C36.9847 43.86 32.4276 43.86 29.6169 41.0493Z" fill="#F4BED1"/>
<path d="M35.9106 39.4923L38.2583 37.1446L34.2426 33.1289L32.3892 33.6231L31.8949 35.4766L35.9106 39.4923ZM38.0112 37.1446L35.9106 39.2452L32.0803 35.4148L32.5127 33.7776L34.1499 33.3451L38.0112 37.1446Z" fill="white"/>
<path d="M32.667 33.6231L30.3811 31.6152L32.389 33.9011L32.4508 33.7158L32.667 33.6231Z" fill="white"/>
<path d="M37.9272 37.6718L38.6479 38.3926L37.1408 39.8997L36.42 39.1789L37.9272 37.6718Z" fill="white"/>
<path d="M38.9067 38.0565L39.0596 38.2094L36.9627 40.3062L36.8098 40.1533L38.9067 38.0565Z" fill="white"/>
<path d="M33.9644 34.9204L33.8099 34.766L32.7596 35.8163L32.389 35.4147L32.7596 33.9937L34.1806 33.623L37.4858 36.9283L35.6942 38.7199L34.9837 38.0095L35.6015 37.3916L35.4162 37.2372L34.8293 37.855L34.6748 37.7314L35.2926 37.1136L35.1382 36.9283L34.5204 37.5461L34.3968 37.4225L35.0146 36.8047L34.8602 36.6503L34.2424 37.2681L34.0879 37.1136L35.1382 36.0943L34.9528 35.9089L33.9335 36.9592L33.8408 36.8665L34.4277 36.2487L34.2733 36.0943L33.6554 36.6812L33.5319 36.5576L34.1497 35.9707L33.9952 35.7854L33.3774 36.4032L33.2539 36.2796L33.8717 35.6618L33.7172 35.5074L33.0994 36.1252L32.945 35.9707L33.9644 34.9204Z" fill="white"/>
<path d="M76.2219 61.7949C70.6774 61.7949 66.1826 57.3002 66.1826 51.7556C66.1826 46.2111 70.6774 41.7163 76.2219 41.7163C81.7665 41.7163 86.2612 46.2111 86.2612 51.7556C86.2612 57.3002 81.7665 61.7949 76.2219 61.7949Z" fill="#B370A0"/>
<path d="M77.8902 56.6981L81.1646 53.4238L75.5425 47.8018L72.9787 48.5122L72.2682 51.0761L77.8902 56.6981ZM80.8248 53.4238L77.9211 56.3275L72.5771 50.9834L73.1949 48.6976L75.4808 48.0798L80.8248 53.4238Z" fill="white"/>
<path d="M73.3496 48.5123L70.1679 45.7013L72.9789 48.883L73.0716 48.6359L73.3496 48.5123Z" fill="white"/>
<path d="M80.7476 54.1831L81.7305 55.166L79.6117 57.2847L78.6288 56.3018L80.7476 54.1831Z" fill="white"/>
<path d="M82.0783 54.7005L82.2749 54.8971L79.348 57.824L79.1514 57.6274L82.0783 54.7005Z" fill="white"/>
<path d="M75.2028 50.3347L74.9557 50.0876L73.5039 51.5395L72.9788 51.0143L73.473 49.0065L75.4809 48.5122L80.0835 53.1148L77.5814 55.617L76.5929 54.6285L77.4578 53.7635L77.2107 53.5473L76.3767 54.3813L76.1913 54.2269L77.0563 53.362L76.8091 53.1457L75.9751 53.9798L75.7898 53.8253L76.6547 52.9604L76.4076 52.7442L75.5735 53.5782L75.3573 53.3929L76.8091 51.941L76.562 51.6939L75.1102 53.1457L74.9866 53.0222L75.8515 52.1573L75.6044 51.941L74.7704 52.7751L74.585 52.6206L75.45 51.7557L75.2028 51.5395L74.3688 52.3735L74.1835 52.219L75.0484 51.3541L74.8013 51.1379L73.9672 51.9719L73.751 51.7866L75.2028 50.3347Z" fill="white"/>
<path d="M72.2988 33.3142C70.3527 33.9629 69.3025 36.0634 69.982 38.0095C70.6307 39.9556 72.7313 41.0059 74.6774 40.3263C76.6234 39.6776 77.6737 37.5771 76.9941 35.631C76.3454 33.7158 74.2449 32.6655 72.2988 33.3142Z" fill="#FEBE9C"/>
<path d="M71.9594 38.0096L73.5039 38.7818L74.8013 36.1562L74.2452 35.3221L73.2568 35.3839L71.9594 38.0096ZM73.4421 38.6274L72.0829 37.9478L73.3185 35.4457L74.1835 35.3839L74.6777 36.1253L73.4421 38.6274Z" fill="white"/>
<path d="M74.3071 35.4456L74.894 33.9938L74.1218 35.3529H74.2145L74.3071 35.4456Z" fill="white"/>
<path d="M72.1998 38.1884L73.1963 38.6819L72.9632 39.1525L71.9667 38.6589L72.1998 38.1884Z" fill="white"/>
<path d="M71.7898 38.535L73.1738 39.2205L73.1327 39.3035L71.7487 38.618L71.7898 38.535Z" fill="white"/>
<path d="M73.8746 36.3106L73.9364 36.187L73.2568 35.8472L73.3804 35.6001L74.1217 35.5383L74.5542 36.187L73.473 38.3493L72.2992 37.7624L72.5463 37.2991L72.9479 37.4844L72.9788 37.3917L72.5772 37.2064L72.639 37.1137L73.0406 37.2991L73.0715 37.2064L72.6699 36.9902L72.7317 36.9284L73.1333 37.1137L73.1641 37.0211L72.7626 36.8048L72.8244 36.7122L73.5039 37.052L73.5657 36.9593L72.8861 36.6195L72.917 36.5577L73.3186 36.7431L73.3495 36.6504L72.9479 36.4341L73.0097 36.3724L73.4113 36.5577L73.4422 36.465L73.0406 36.2488L73.1024 36.1561L73.5039 36.3724L73.5348 36.2488L73.1333 36.0635L73.195 35.9708L73.8746 36.3106Z" fill="white"/>
<path d="M95.621 38.5655C94.7869 38.8435 94.3545 39.7393 94.6325 40.5734C94.9105 41.4074 95.8063 41.8399 96.6403 41.5619C97.4744 41.2838 97.9068 40.388 97.6288 39.554C97.3508 38.72 96.455 38.2875 95.621 38.5655Z" fill="#FEBE9C"/>
<path d="M95.4667 40.5425L96.1154 40.8514L96.6714 39.7393L96.4243 39.3995L95.9918 39.4304L95.4667 40.5425ZM96.1154 40.8205L95.5284 40.5425L96.0536 39.4922L96.4243 39.4613L96.6405 39.7702L96.1154 40.8205Z" fill="white"/>
<path d="M96.4549 39.4613L96.7329 38.8435L96.3931 39.4304H96.424L96.4549 39.4613Z" fill="white"/>
<path d="M95.5697 40.629L95.9849 40.8346L95.8889 41.0284L95.4737 40.8227L95.5697 40.629Z" fill="white"/>
<path d="M95.4211 40.7838L96.0024 41.0717L95.9887 41.0993L95.4074 40.8115L95.4211 40.7838Z" fill="white"/>
<path d="M96.3006 39.832V39.7702L96.0226 39.6466L96.0844 39.5231L96.3933 39.4922L96.5786 39.7702L96.1153 40.6969L95.621 40.4498L95.7137 40.2336L95.899 40.3262V40.2953L95.7446 40.2027V40.1718L95.9299 40.2644L95.9608 40.2027L95.7755 40.11L95.8064 40.0791L95.9608 40.1718L95.9917 40.1409L95.8064 40.0482L95.8372 39.9864L96.1153 40.1409L96.1462 40.11L95.8681 39.9555V39.9247L96.0535 40.0173L96.0844 39.9555L95.899 39.8938L95.9299 39.8629L96.0844 39.9247L96.1153 39.8938L95.9299 39.8011L95.9608 39.7702L96.1153 39.8629L96.1462 39.8011L95.9917 39.7084V39.6775L96.3006 39.832Z" fill="white"/>
<path d="M85.0565 63.4322C83.8209 63.8338 83.1722 65.1929 83.5738 66.3976C83.9754 67.6332 85.3346 68.2819 86.5393 67.8804C87.7749 67.4788 88.4236 66.1196 88.022 64.9149C87.5895 63.6793 86.2613 62.9997 85.0565 63.4322Z" fill="#3E2E5F"/>
<path d="M84.8402 66.3976L85.7978 66.8918L86.6318 65.2237L86.292 64.6986L85.6742 64.7295L84.8402 66.3976ZM85.7669 66.7991L84.902 66.3667L85.6742 64.7913L86.2303 64.7604L86.5392 65.2237L85.7669 66.7991Z" fill="white"/>
<path d="M86.2923 64.7604L86.6938 63.8646L86.1996 64.6987L86.2614 64.7295L86.2923 64.7604Z" fill="white"/>
<path d="M84.96 66.5034L85.5967 66.8186L85.4459 67.1231L84.8092 66.8079L84.96 66.5034Z" fill="white"/>
<path d="M84.7151 66.7364L85.5732 67.1614L85.5458 67.2167L84.6877 66.7918L84.7151 66.7364Z" fill="white"/>
<path d="M86.0452 65.3164L86.0761 65.2546L85.6436 65.0384L85.7054 64.8839L86.1997 64.8221L86.4468 65.2546L85.7672 66.6138L85.0567 66.2431L85.1803 65.9342L85.4583 66.0578L85.4892 65.996L85.2112 65.8724L85.2421 65.8106L85.4892 65.9651L85.551 65.8724L85.2729 65.7488L85.3038 65.718L85.551 65.8415L85.5819 65.7797L85.3347 65.6253L85.3656 65.5635L85.7981 65.7797L85.829 65.718L85.3965 65.5017L85.4274 65.4708L85.6745 65.5944L85.7054 65.5326L85.4583 65.4091L85.4892 65.3473L85.7363 65.4708L85.7672 65.4091L85.5201 65.2855L85.551 65.2237L85.7981 65.3473L85.829 65.2855L85.5819 65.1619L85.6127 65.1002L86.0452 65.3164Z" fill="white"/>
<path d="M8.28736 13.7395C7.51439 10.8911 9.19686 7.95535 12.0453 7.18238C14.8937 6.4094 17.8294 8.09187 18.6024 10.9403C19.3753 13.7887 17.6929 16.7244 14.8445 17.4974C11.996 18.2703 9.06034 16.5879 8.28736 13.7395Z" fill="#3E2E5F"/>
<path d="M14.3491 14.9655L16.1099 13.2047L13.1135 10.2084L11.7543 10.5791L11.3837 11.9382L14.3491 14.9655ZM15.8936 13.2356L14.3491 14.7801L11.5072 11.9382L11.847 10.7026L13.0826 10.3628L15.8936 13.2356Z" fill="white"/>
<path d="M11.9087 10.6099L10.2097 9.09631L11.7233 10.7953L11.7542 10.6717L11.9087 10.6099Z" fill="white"/>
<path d="M15.862 13.6068L16.3862 14.131L15.2504 15.2668L14.7262 14.7426L15.862 13.6068Z" fill="white"/>
<path d="M16.5671 13.902L16.6763 14.0112L15.1036 15.5839L14.9944 15.4747L16.5671 13.902Z" fill="white"/>
<path d="M12.8974 11.5676L12.7739 11.444L12.0016 12.2163L11.7236 11.9383L12.0016 10.8571L13.0519 10.61L15.4922 13.0503L14.1639 14.3786L13.6388 13.8535L14.1021 13.3901L13.9786 13.2665L13.5152 13.7299L13.4225 13.6372L13.8859 13.1739L13.7623 13.0503L13.299 13.5137L13.2063 13.421L13.6697 12.9576L13.5461 12.865L13.0828 13.2974L12.9901 13.2048L13.7623 12.4325L13.6388 12.3089L12.8665 13.0812L12.8047 12.9885L13.2372 12.5561L13.1136 12.4325L12.6812 12.865L12.5885 12.8032L13.021 12.3398L12.8974 12.2163L12.465 12.6796L12.3723 12.587L12.8047 12.1236L12.7121 12L12.2487 12.4634L12.1252 12.3398L12.8974 11.5676Z" fill="white"/>
<path d="M72.4899 8.2507C71.9289 4.81601 74.2585 1.57685 77.6932 1.01583C81.1278 0.454813 84.367 2.78438 84.928 6.21906C85.4891 9.65375 83.1595 12.8929 79.7248 13.4539C76.2901 14.0149 73.051 11.6854 72.4899 8.2507Z" fill="#3E2E5F"/>
<path d="M76.7474 4.09204C77.6123 4.09204 78.3846 4.61718 78.6935 5.38943C79.0333 4.61718 79.7746 4.09204 80.6396 4.09204C81.8134 4.09204 82.771 5.04964 82.771 6.22346C82.771 6.7486 82.6474 7.24284 82.4312 7.6753H81.1647L80.238 5.63655C80.2071 5.57477 80.1453 5.54388 80.0836 5.54388C80.0218 5.54388 79.96 5.57477 79.9291 5.63655L79.126 7.45907L78.9406 7.0575C78.9097 6.99572 78.8479 6.96483 78.7862 6.96483C78.7244 6.96483 78.6626 6.99572 78.6317 7.0575L78.0448 8.41667L77.705 7.39729C77.6741 7.33551 77.6123 7.27373 77.5506 7.27373C77.4888 7.27373 77.427 7.30462 77.3961 7.39729L77.2725 7.73708H75.8825C75.7898 7.73708 75.728 7.79886 75.728 7.89154C75.728 7.98421 75.7898 8.04599 75.8825 8.04599H77.3961C77.4579 8.04599 77.5197 8.0151 77.5506 7.92242L77.8903 8.91091C77.9212 8.97269 77.983 9.03447 78.0448 9.03447C78.1066 9.03447 78.1684 9.00358 78.1992 8.9418L78.8171 7.52085L79.0024 7.92242C79.0333 7.98421 79.0951 8.0151 79.1568 8.0151C79.2186 8.0151 79.2804 7.98421 79.3113 7.92242L80.0836 6.13079L80.8867 7.92242C80.9176 7.98421 80.9794 8.0151 81.0411 8.0151H82.2459C81.1338 9.86851 78.6935 10.8261 78.6935 10.8261C78.6935 10.8261 74.616 9.12714 74.616 6.22346C74.6469 5.04964 75.5736 4.09204 76.7474 4.09204Z" fill="white"/>
<path d="M67.6091 78.1507C66.319 76.65 66.4897 74.3877 67.9904 73.0976C69.491 71.8075 71.7534 71.9782 73.0435 73.4789C74.3336 74.9795 74.1629 77.2419 72.6622 78.532C71.1616 79.8221 68.8992 79.6514 67.6091 78.1507Z" fill="#FEBE9C"/>
<path d="M69.2103 74.0275C69.7046 74.0275 70.1371 74.3364 70.3224 74.7688C70.5077 74.3364 70.9402 74.0275 71.4344 74.0275C72.114 74.0275 72.6392 74.5835 72.6392 75.2322C72.6392 75.5411 72.5774 75.8191 72.4538 76.0662H71.7433L71.2182 74.8924C71.1873 74.8615 71.1564 74.8306 71.1255 74.8306C71.0947 74.8306 71.0638 74.8615 71.0329 74.8924L70.5695 75.9427L70.446 75.7264C70.4151 75.6955 70.3842 75.6646 70.3533 75.6646C70.3224 75.6646 70.2915 75.6955 70.2606 75.7264L69.9208 76.4987L69.7355 75.9118C69.7355 75.8809 69.6737 75.85 69.6428 75.85C69.6119 75.85 69.5501 75.8809 69.5501 75.9118L69.4884 76.0971H68.6852C68.6234 76.0971 68.5925 76.128 68.5925 76.1898C68.5925 76.2516 68.6234 76.2824 68.6852 76.2824H69.5501C69.581 76.2824 69.6119 76.2516 69.6428 76.2207L69.8282 76.7767C69.8282 76.8076 69.8899 76.8385 69.9208 76.8385C69.9517 76.8385 69.9826 76.8076 70.0135 76.7767L70.3533 75.9735L70.4768 76.1898C70.5077 76.2207 70.5386 76.2516 70.5695 76.2516C70.6004 76.2516 70.6313 76.2207 70.6622 76.1898L71.0947 75.1704L71.558 76.1898C71.5889 76.2207 71.6198 76.2516 71.6507 76.2516H72.3303C71.7125 77.3018 70.2915 77.8578 70.2915 77.8578C70.2915 77.8578 67.9439 76.9003 67.9439 75.2322C68.0056 74.5835 68.5308 74.0275 69.2103 74.0275Z" fill="white"/>
<path d="M17.6853 57.5012C11.8849 57.5012 7.18266 52.799 7.18266 46.9985C7.18266 41.1981 11.8849 36.4958 17.6853 36.4958C23.4858 36.4958 28.188 41.1981 28.188 46.9985C28.188 52.799 23.4858 57.5012 17.6853 57.5012Z" fill="#B3E5E6"/>
<path d="M14.4111 41.7472C15.863 41.7472 17.1295 42.643 17.6855 43.9095C18.2415 42.643 19.4771 41.7472 20.9598 41.7472C22.9059 41.7472 24.5122 43.3226 24.5122 45.2996C24.5122 46.1954 24.296 46.9985 23.9562 47.7399H21.8556L20.3111 44.3111C20.2802 44.2184 20.1567 44.1566 20.064 44.1566C19.9405 44.1566 19.8478 44.2184 19.8169 44.3111L18.4886 47.3383L18.1797 46.6587C18.1179 46.5661 18.0253 46.5043 17.9326 46.5043C17.809 46.5043 17.7164 46.5661 17.6855 46.6896L16.7279 48.9446L16.1719 47.2148C16.141 47.0912 16.0174 47.0294 15.8938 47.0294C15.7703 47.0294 15.6776 47.0912 15.6158 47.2148L15.3996 47.8017H13.0828C12.9284 47.8017 12.8048 47.9252 12.8048 48.0797C12.8048 48.2341 12.9284 48.3577 13.0828 48.3577H15.5849C15.7085 48.3577 15.8012 48.2959 15.863 48.1724L16.419 49.8404C16.4499 49.964 16.5425 50.0258 16.6661 50.0258C16.7897 50.0258 16.8823 49.964 16.9132 49.8404L17.9326 47.4619L18.2415 48.1415C18.3033 48.2341 18.3959 48.2959 18.4886 48.2959C18.6122 48.2959 18.7048 48.2341 18.7357 48.1415L20.0331 45.1451L21.3923 48.1415C21.4232 48.2341 21.5467 48.2959 21.6394 48.2959H23.6473C21.8248 51.354 17.7164 52.9603 17.7164 52.9603C17.7164 52.9603 10.8896 50.1493 10.8896 45.2996C10.8587 43.3535 12.465 41.7781 14.4111 41.7472Z" fill="white"/>
<path d="M55.1355 79.3514C50.9861 77.5998 49.0422 72.8161 50.7938 68.6667C52.5454 64.5173 57.3291 62.5734 61.4785 64.325C65.6279 66.0765 67.5718 70.8602 65.8202 75.0097C64.0687 79.1591 59.285 81.103 55.1355 79.3514Z" fill="#B3E5E6"/>
<path d="M55.7727 67.7568C56.9156 67.7568 57.8732 68.4364 58.3057 69.4249C58.7381 68.4364 59.6957 67.7568 60.8387 67.7568C62.3523 67.7568 63.5879 68.9924 63.5879 70.5061C63.5879 71.1856 63.4334 71.8343 63.1554 72.3904H61.5182L60.3135 69.7338C60.2826 69.6411 60.19 69.6102 60.1282 69.6102C60.0355 69.6102 59.9737 69.672 59.9428 69.7338L58.9235 72.0815L58.6764 71.5563C58.6455 71.4945 58.5528 71.4328 58.491 71.4328C58.3983 71.4328 58.3366 71.4945 58.3057 71.5563L57.5643 73.3171L57.1318 71.9888C57.101 71.8961 57.0083 71.8343 56.9156 71.8343C56.8229 71.8343 56.7303 71.8961 56.6994 71.9888L56.5449 72.4521H54.7533C54.6297 72.4521 54.5371 72.5448 54.5371 72.6684C54.5371 72.7919 54.6297 72.8846 54.7533 72.8846H56.6994C56.792 72.8846 56.8847 72.8228 56.9156 72.7301L57.3481 74.0275C57.379 74.1202 57.4407 74.182 57.5334 74.182C57.6261 74.182 57.6879 74.1202 57.7496 74.0584L58.5219 72.205L58.769 72.7301C58.7999 72.7919 58.8926 72.8537 58.9544 72.8537C59.047 72.8537 59.1088 72.7919 59.1397 72.7301L60.1591 70.4134L61.2093 72.761C61.2402 72.8537 61.3329 72.8846 61.3947 72.8846H62.9392C61.5183 75.2631 58.3366 76.4988 58.3366 76.4988C58.3366 76.4988 53.0543 74.3055 53.0543 70.5678C53.0234 69.0233 54.2591 67.7877 55.7727 67.7568Z" fill="white"/>
<path d="M4.24805 14.5638C4.24805 15.5214 5.05119 16.3246 6.00879 16.3246C6.96638 16.3246 7.76953 15.5214 7.76953 14.5638C7.76953 13.6062 6.96638 12.8031 6.00879 12.8031C5.05119 12.8031 4.24805 13.6062 4.24805 14.5638Z" fill="#FEBE9C"/>
<path d="M5.45241 13.699C5.69953 13.699 5.91576 13.8534 6.00843 14.0697C6.1011 13.8534 6.31733 13.699 6.56446 13.699C6.90425 13.699 7.15137 13.977 7.15137 14.2859C7.15137 14.4403 7.12048 14.5639 7.0587 14.6875H6.71891L6.47178 14.1005C6.47178 14.0697 6.4409 14.0697 6.4409 14.0697C6.41001 14.0697 6.41 14.0697 6.41 14.1005L6.19377 14.5948L6.13199 14.4712C6.13199 14.4403 6.1011 14.4403 6.1011 14.4403C6.07021 14.4403 6.07021 14.4403 6.07021 14.4712L5.91576 14.8419L5.82309 14.5639C5.82309 14.533 5.7922 14.533 5.7922 14.533C5.76131 14.533 5.76131 14.533 5.76131 14.5639L5.73042 14.6566H5.32885C5.29796 14.6566 5.26706 14.6875 5.26706 14.7184C5.26706 14.7492 5.29796 14.7801 5.32885 14.7801H5.76131C5.7922 14.7801 5.7922 14.7801 5.7922 14.7492L5.88487 15.0273C5.88487 15.0581 5.91576 15.0581 5.91576 15.0581C5.94665 15.0581 5.94665 15.0581 5.94665 15.0273L6.1011 14.6257L6.16288 14.7492C6.16288 14.7801 6.19377 14.7801 6.19377 14.7801C6.22466 14.7801 6.22466 14.7801 6.22466 14.7492L6.4409 14.255L6.65712 14.7492C6.65712 14.7801 6.68801 14.7801 6.68801 14.7801H7.02781C6.71891 15.3053 6.03932 15.5524 6.03932 15.5524C6.03932 15.5524 4.89639 15.089 4.89639 14.255C4.8655 13.977 5.1435 13.699 5.45241 13.699Z" fill="white"/>
<path d="M21.7606 5.7425C20.7835 4.76538 20.7835 3.18115 21.7606 2.20403C22.7378 1.2269 24.322 1.2269 25.2991 2.20403C26.2762 3.18115 26.2762 4.76538 25.2991 5.7425C24.322 6.71963 22.7378 6.71963 21.7606 5.7425Z" fill="#3E2E5F"/>
<path d="M22.7513 2.73291C23.0911 2.73291 23.4 2.94914 23.5236 3.25804C23.6472 2.94914 23.9561 2.73291 24.2958 2.73291C24.7592 2.73291 25.1299 3.10359 25.1299 3.56695C25.1299 3.78318 25.0681 3.96852 25.0063 4.15386H24.5121L24.1414 3.35071C24.1414 3.31982 24.1105 3.31982 24.0796 3.31982C24.0487 3.31982 24.0178 3.35071 24.0178 3.35071L23.7089 4.06119L23.6471 3.90674C23.6471 3.87585 23.6163 3.87585 23.5854 3.87585C23.5545 3.87585 23.5236 3.90674 23.5236 3.90674L23.3074 4.43187L23.1838 4.0303C23.1838 3.99941 23.1529 3.99941 23.122 3.99941C23.0911 3.99941 23.0602 4.0303 23.0602 4.0303L22.9985 4.15386H22.4424C22.4115 4.15386 22.3806 4.18475 22.3806 4.21564C22.3806 4.24653 22.4115 4.27742 22.4424 4.27742H23.0293C23.0602 4.27742 23.0911 4.24653 23.0911 4.24653L23.2147 4.6481C23.2147 4.67899 23.2456 4.67899 23.2765 4.67899C23.3074 4.67899 23.3382 4.6481 23.3382 4.6481L23.5854 4.09208L23.6471 4.24653C23.6471 4.27742 23.678 4.27742 23.7089 4.27742C23.7398 4.27742 23.7707 4.24653 23.7707 4.24653L24.0796 3.53606L24.3885 4.24653C24.3885 4.27742 24.4194 4.27742 24.4503 4.27742H24.9136C24.4812 5.01878 23.4927 5.38947 23.4927 5.38947C23.4927 5.38947 21.8555 4.70988 21.8555 3.56695C21.8864 3.10359 22.288 2.73291 22.7513 2.73291Z" fill="white"/>
<path d="M15.2987 62.9029C14.3216 61.9258 14.3216 60.3415 15.2987 59.3644C16.2759 58.3873 17.8601 58.3873 18.8372 59.3644C19.8143 60.3416 19.8143 61.9258 18.8372 62.9029C17.8601 63.88 16.2759 63.88 15.2987 62.9029Z" fill="#3E2E5F"/>
<path d="M16.2953 59.8799C16.6351 59.8799 16.944 60.0961 17.0675 60.405C17.1911 60.0961 17.5 59.8799 17.8398 59.8799C18.3032 59.8799 18.6738 60.2506 18.6738 60.7139C18.6738 60.9301 18.612 61.1155 18.5503 61.3008H18.056L17.6853 60.4977C17.6853 60.4668 17.6545 60.4668 17.6236 60.4668C17.5927 60.4668 17.5618 60.4977 17.5618 60.4977L17.2529 61.2082L17.1911 61.0537C17.1911 61.0228 17.1602 61.0228 17.1293 61.0228C17.0984 61.0228 17.0675 61.0537 17.0675 61.0537L16.8513 61.5788L16.7278 61.1773C16.7278 61.1464 16.6969 61.1464 16.666 61.1464C16.6351 61.1464 16.6042 61.1773 16.6042 61.1773L16.5424 61.3008H15.9864C15.9555 61.3008 15.9246 61.3317 15.9246 61.3626C15.9246 61.3935 15.9555 61.4244 15.9864 61.4244H16.5733C16.6042 61.4244 16.6351 61.3935 16.6351 61.3935L16.7586 61.7951C16.7586 61.826 16.7895 61.826 16.8204 61.826C16.8513 61.826 16.8822 61.7951 16.8822 61.7951L17.1293 61.239L17.1911 61.3935C17.1911 61.4244 17.222 61.4244 17.2529 61.4244C17.2838 61.4244 17.3147 61.3935 17.3147 61.3935L17.6236 60.683L17.9325 61.3935C17.9325 61.4244 17.9634 61.4244 17.9942 61.4244H18.4576C18.0251 62.1658 17.0367 62.5364 17.0367 62.5364C17.0367 62.5364 15.3995 61.8568 15.3995 60.7139C15.4613 60.2814 15.8319 59.8799 16.2953 59.8799Z" fill="white"/>
<path d="M100.687 38.4111C97.5993 38.4111 95.0961 35.9079 95.0961 32.82C95.0961 29.7321 97.5993 27.2289 100.687 27.2289C103.775 27.2289 106.278 29.7321 106.278 32.82C106.278 35.9079 103.775 38.4111 100.687 38.4111Z" fill="#B3E5E6"/>
<path d="M98.9573 30.0398C99.7295 30.0398 100.409 30.5031 100.687 31.1827C100.965 30.5031 101.645 30.0398 102.417 30.0398C103.467 30.0398 104.301 30.8738 104.301 31.9241C104.301 32.3874 104.178 32.8199 103.992 33.2215H102.88L102.077 31.399C102.046 31.3372 101.985 31.3063 101.954 31.3063C101.892 31.3063 101.83 31.3372 101.83 31.399L101.12 33.0053L100.934 32.6346C100.903 32.5728 100.842 32.5419 100.811 32.5419C100.749 32.5419 100.687 32.5728 100.687 32.6346L100.162 33.8393L99.8531 32.9126C99.8222 32.8508 99.7913 32.8199 99.6986 32.8199C99.6369 32.8199 99.5751 32.8508 99.5442 32.9126L99.4206 33.2215H98.185C98.0923 33.2215 98.0306 33.2833 98.0306 33.3759C98.0306 33.4686 98.0923 33.5304 98.185 33.5304H99.5133C99.5751 33.5304 99.6369 33.4995 99.6677 33.4377L99.9458 34.3335C99.9766 34.3953 100.008 34.4262 100.069 34.4262C100.131 34.4262 100.193 34.3953 100.193 34.3335L100.718 33.067L100.872 33.4068C100.903 33.4686 100.965 33.4995 100.996 33.4995C101.058 33.4995 101.12 33.4686 101.12 33.4068L101.799 31.8005L102.51 33.4068C102.541 33.4686 102.602 33.4995 102.633 33.4995H103.838C102.88 35.1367 100.687 35.9707 100.687 35.9707C100.687 35.9707 97.073 34.4571 97.073 31.8932C97.073 30.8738 97.907 30.0398 98.9573 30.0398Z" fill="white"/>
<path d="M55.68 51.2923C48.3953 51.2923 42.4899 45.3869 42.4899 38.1022C42.4899 30.8175 48.3953 24.9121 55.68 24.9121C62.9647 24.9121 68.8701 30.8175 68.8701 38.1022C68.8701 45.3869 62.9647 51.2923 55.68 51.2923Z" fill="#3E2E5F"/>
<path d="M52.4059 46.319H58.9855C59.9431 46.319 60.7153 45.5467 60.7153 44.5891V34.5498C60.7153 33.5922 59.9431 32.8199 58.9855 32.8199H52.4059C51.4483 32.8199 50.676 33.5922 50.676 34.5498V44.5891C50.676 45.5467 51.4483 46.319 52.4059 46.319ZM58.9855 33.4069C59.6033 33.4069 60.1284 33.932 60.1284 34.5498V44.5891C60.1284 45.2069 59.6033 45.732 58.9855 45.732H52.4059C51.7881 45.732 51.2629 45.2069 51.2629 44.5891V34.5498C51.2629 33.932 51.7881 33.4069 52.4059 33.4069H58.9855Z" fill="white"/>
<path d="M59.6035 36.9592V42.1797H51.7883V36.9592H59.6035ZM53.9197 40.1718H55.0935V41.3456H56.2983V40.1718H57.4721V38.9671H56.2983V37.7933H55.0935V38.9671H53.9197V40.1718Z" fill="white"/>
<path d="M52.4986 30.843C52.4986 30.3178 52.931 29.8854 53.4562 29.8854H57.8735C58.3986 29.8854 58.8311 30.3178 58.8311 30.843V32.3257H52.4677V30.843H52.4986Z" fill="white"/>
<path d="M77.2725 73.9658C74.0993 73.9658 71.5269 71.3934 71.5269 68.2202C71.5269 65.047 74.0993 62.4746 77.2725 62.4746C80.4457 62.4746 83.0181 65.047 83.0181 68.2202C83.0181 71.3934 80.4457 73.9658 77.2725 73.9658Z" fill="#B3E5E6"/>
<path d="M75.8512 71.8033H78.724C79.1255 71.8033 79.4653 71.4635 79.4653 71.062V66.6756C79.4653 66.274 79.1255 65.9342 78.724 65.9342H75.8512C75.4496 65.9342 75.1098 66.274 75.1098 66.6756V71.062C75.0789 71.4635 75.4187 71.8033 75.8512 71.8033ZM78.724 66.1504C79.002 66.1504 79.2182 66.3667 79.2182 66.6447V71.0311C79.2182 71.3091 79.002 71.5253 78.724 71.5253H75.8512C75.5732 71.5253 75.3569 71.3091 75.3569 71.0311V66.6447C75.3569 66.3667 75.5732 66.1504 75.8512 66.1504H78.724Z" fill="white"/>
<path d="M79.002 67.726V70.0118H75.5731V67.726H79.002ZM76.4998 69.116H77.025V69.6411H77.5501V69.116H78.0752V68.5909H77.5501V68.0657H77.025V68.5909H76.4998V69.116Z" fill="white"/>
<path d="M75.8824 65.0384C75.8824 64.7913 76.0677 64.606 76.3148 64.606H78.2609C78.508 64.606 78.6934 64.7913 78.6934 65.0384V65.6871H75.9132V65.0384H75.8824Z" fill="white"/>
<path d="M87.0833 51.3378C86.2554 47.6769 88.5519 44.0379 92.2129 43.21C95.8738 42.382 99.5127 44.6786 100.341 48.3395C101.169 52.0004 98.8721 55.6393 95.2112 56.4673C91.5503 57.2953 87.9113 54.9987 87.0833 51.3378Z" fill="#F4BED1"/>
<path d="M92.007 54.0725H95.405C95.8992 54.0725 96.3008 53.6709 96.3008 53.1767V48.018C96.3008 47.5238 95.8992 47.1222 95.405 47.1222H92.007C91.5128 47.1222 91.1112 47.5238 91.1112 48.018V53.1767C91.1112 53.6709 91.5128 54.0725 92.007 54.0725ZM95.405 47.4311C95.7139 47.4311 95.9919 47.7091 95.9919 48.018V53.1767C95.9919 53.4856 95.7139 53.7636 95.405 53.7636H92.007C91.6981 53.7636 91.4201 53.4856 91.4201 53.1767V48.018C91.4201 47.7091 91.6981 47.4311 92.007 47.4311H95.405Z" fill="white"/>
<path d="M95.7139 49.2537V51.9411H91.6981V49.2537H95.7139ZM92.8102 50.9217H93.428V51.5086H94.0458V50.9217H94.6327V50.3039H94.0458V49.6861H93.428V50.3039H92.8102V50.9217Z" fill="white"/>
<path d="M92.0689 46.1028C92.0689 45.8248 92.2851 45.6085 92.5631 45.6085H94.849C95.127 45.6085 95.3433 45.8248 95.3433 46.1028V46.875H92.0689V46.1028Z" fill="white"/>
<path d="M62.0497 10.0079C61.6325 7.44847 63.3691 5.0354 65.9285 4.61816C68.4879 4.20093 70.901 5.93752 71.3183 8.49696C71.7355 11.0564 69.9989 13.4695 67.4395 13.8867C64.88 14.3039 62.467 12.5673 62.0497 10.0079Z" fill="#B3E5E6"/>
<path d="M65.5028 12.1853H67.8505C68.1903 12.1853 68.4683 11.9073 68.4683 11.5675V7.98426C68.4683 7.64447 68.1903 7.36646 67.8505 7.36646H65.5028C65.163 7.36646 64.885 7.64447 64.885 7.98426V11.5675C64.885 11.9073 65.163 12.1853 65.5028 12.1853ZM67.8505 7.58269C68.0667 7.58269 68.252 7.76803 68.252 7.98426V11.5675C68.252 11.7838 68.0667 11.9691 67.8505 11.9691H65.5028C65.2866 11.9691 65.1012 11.7838 65.1012 11.5675V7.98426C65.1012 7.76803 65.2866 7.58269 65.5028 7.58269H67.8505Z" fill="white"/>
<path d="M68.0669 8.84912V10.7025H65.2868V8.84912H68.0669ZM66.059 9.99206H66.4606V10.3936H66.8931V9.99206H67.2946V9.5596H66.8931V9.15802H66.4606V9.5596H66.059V9.99206Z" fill="white"/>
<path d="M65.5341 6.65595C65.5341 6.47061 65.6885 6.31616 65.8739 6.31616H67.4493C67.6346 6.31616 67.7891 6.47061 67.7891 6.65595V7.18109H65.5341V6.65595Z" fill="white"/>
<path d="M24.3574 16.3554C21.9519 16.3554 20.0019 14.4054 20.0019 11.9999C20.0019 9.59444 21.9519 7.64441 24.3574 7.64441C26.7629 7.64441 28.7129 9.59444 28.7129 11.9999C28.7129 14.4054 26.7629 16.3554 24.3574 16.3554Z" fill="#F4BED1"/>
<path d="M23.2763 14.7183H25.4386C25.7475 14.7183 25.9946 14.4712 25.9946 14.1623V10.857C25.9946 10.5481 25.7475 10.301 25.4386 10.301H23.2763C22.9674 10.301 22.7203 10.5481 22.7203 10.857V14.1623C22.6894 14.4712 22.9365 14.7183 23.2763 14.7183ZM25.4386 10.4555C25.6548 10.4555 25.8093 10.6099 25.8093 10.8262V14.1314C25.8093 14.3476 25.6548 14.5021 25.4386 14.5021H23.2763C23.0601 14.5021 22.9056 14.3476 22.9056 14.1314V10.857C22.9056 10.6408 23.0601 10.4864 23.2763 10.4864H25.4386V10.4555Z" fill="white"/>
<path d="M25.6548 11.6293V13.3591H23.06V11.6293H25.6548ZM23.7705 12.7104H24.1412V13.0811H24.5427V12.7104H24.9134V12.3089H24.5427V11.9382H24.1412V12.3089H23.7705V12.7104Z" fill="white"/>
<path d="M23.3073 9.6214C23.3073 9.43606 23.4618 9.3125 23.6162 9.3125H25.0681C25.2534 9.3125 25.377 9.46695 25.377 9.6214V10.1156H23.2764V9.6214H23.3073Z" fill="white"/>
<path d="M38.4833 73.8131C36.542 73.0161 35.6144 70.7964 36.4114 68.8551C37.2084 66.9139 39.4281 65.9863 41.3694 66.7833C43.3106 67.5802 44.2382 69.8 43.4412 71.7412C42.6443 73.6825 40.4245 74.6101 38.4833 73.8131Z" fill="#5699C5"/>
<path d="M38.9686 72.6683H40.8529C41.1309 72.6683 41.3472 72.452 41.3472 72.174V69.3013C41.3472 69.0232 41.1309 68.807 40.8529 68.807H38.9686C38.6906 68.807 38.4744 69.0232 38.4744 69.3013V72.174C38.4744 72.4212 38.6906 72.6683 38.9686 72.6683ZM40.8838 68.9306C41.0692 68.9306 41.2236 69.085 41.2236 69.2704V72.1431C41.2236 72.3285 41.0692 72.4829 40.8838 72.4829H38.9995C38.8142 72.4829 38.6597 72.3285 38.6597 72.1431V69.2704C38.6597 69.085 38.8142 68.9306 38.9995 68.9306H40.8838Z" fill="white"/>
<path d="M41.0381 69.95V71.4636H38.7831V69.95H41.0381ZM39.4009 70.8767H39.7407V71.2165H40.0805V70.8767H40.4203V70.5369H40.0805V70.1971H39.7407V70.5369H39.4009V70.8767Z" fill="white"/>
<path d="M38.9993 68.2202C38.9993 68.0657 39.1228 67.9421 39.2773 67.9421H40.5438C40.6982 67.9421 40.8218 68.0657 40.8218 68.2202V68.6526H38.9993V68.2202Z" fill="white"/>
<path d="M59.2325 82.5223C59.2325 83.727 60.1901 84.6846 61.3948 84.6846C62.5995 84.6846 63.5571 83.727 63.5571 82.5223C63.5571 81.3176 62.5995 80.36 61.3948 80.36C60.221 80.36 59.2325 81.3485 59.2325 82.5223Z" fill="#FEBE9C"/>
<path d="M60.8698 83.8814H61.951C62.1054 83.8814 62.229 83.7579 62.229 83.6034V81.9663C62.229 81.8118 62.1054 81.6882 61.951 81.6882H60.8698C60.7154 81.6882 60.5918 81.8118 60.5918 81.9663V83.6034C60.5918 83.7579 60.7154 83.8814 60.8698 83.8814ZM61.951 81.7809C62.0437 81.7809 62.1363 81.8736 62.1363 81.9663V83.6034C62.1363 83.6961 62.0437 83.7888 61.951 83.7888H60.8698C60.7772 83.7888 60.6845 83.6961 60.6845 83.6034V81.9663C60.6845 81.8736 60.7772 81.7809 60.8698 81.7809H61.951Z" fill="white"/>
<path d="M62.0435 82.3369V83.2018H60.7461V82.3369H62.0435ZM61.1168 82.8929H61.3021V83.0783H61.5183V82.8929H61.7037V82.7076H61.5183V82.5223H61.333V82.7076H61.1476V82.8929H61.1168Z" fill="white"/>
<path d="M60.9004 81.3484C60.9004 81.2558 60.9622 81.194 61.0549 81.194H61.7962C61.8889 81.194 61.9507 81.2558 61.9507 81.3484V81.5955H60.9004V81.3484Z" fill="white"/>
<path d="M28.9601 71.4637C24.3709 71.4637 20.6506 67.7434 20.6506 63.1542C20.6506 58.565 24.3709 54.8447 28.9601 54.8447C33.5493 54.8447 37.2695 58.565 37.2695 63.1542C37.2695 67.7434 33.5493 71.4637 28.9601 71.4637Z" fill="#B370A0"/>
<path d="M26.8595 68.3437H31.0297C31.6166 68.3437 32.1108 67.8494 32.1108 67.2625V60.93C32.1108 60.3431 31.6166 59.8489 31.0297 59.8489H26.8595C26.2726 59.8489 25.7784 60.3431 25.7784 60.93V67.2625C25.7784 67.8803 26.2726 68.3437 26.8595 68.3437ZM31.0297 60.2196C31.4313 60.2196 31.7402 60.5285 31.7402 60.93V67.2625C31.7402 67.6641 31.4313 67.973 31.0297 67.973H26.8595C26.4579 67.973 26.149 67.6641 26.149 67.2625V60.93C26.149 60.5285 26.4579 60.2196 26.8595 60.2196H31.0297Z" fill="white"/>
<path d="M31.4312 62.4437V65.749H26.4887V62.4437H31.4312ZM27.8479 64.4825H28.5893V65.2238H29.3615V64.4825H30.1029V63.7102H29.3615V62.9689H28.5893V63.7102H27.8479V64.4825Z" fill="white"/>
<path d="M26.9519 58.5824C26.9519 58.2426 27.2299 57.9646 27.5697 57.9646H30.3807C30.7205 57.9646 30.9985 58.2426 30.9985 58.5824V59.5091H26.9828V58.5824H26.9519Z" fill="white"/>
<path d="M1.30223 34.8062C0.583124 31.7857 2.44877 28.7541 5.46927 28.035C8.48977 27.3159 11.5213 29.1815 12.2404 32.202C12.9595 35.2225 11.0939 38.2541 8.07339 38.9732C5.05289 39.6923 2.02134 37.8267 1.30223 34.8062Z" fill="#B3E5E6"/>
<path d="M5.35974 36.9901H8.17074C8.57231 36.9901 8.91211 36.6503 8.91211 36.2487V31.955C8.91211 31.5534 8.57231 31.2136 8.17074 31.2136H5.35974C4.95817 31.2136 4.61837 31.5534 4.61837 31.955V36.2487C4.64926 36.6812 4.95817 36.9901 5.35974 36.9901ZM8.17074 31.4916C8.44875 31.4916 8.66498 31.7079 8.66498 31.9859V36.2796C8.66498 36.5576 8.44875 36.7739 8.17074 36.7739H5.35974C5.08173 36.7739 4.86549 36.5576 4.86549 36.2796V31.9859C4.86549 31.7079 5.08173 31.4916 5.35974 31.4916H8.17074Z" fill="white"/>
<path d="M8.44873 33.0052V35.2293H5.11258V33.0052H8.44873ZM6.0084 34.3953H6.53353V34.8896H7.05867V34.3953H7.55291V33.8702H7.05867V33.3759H6.53353V33.8702H6.03929V34.3953H6.0084Z" fill="white"/>
<path d="M5.42192 30.4105C5.42192 30.1943 5.60727 30.0089 5.8235 30.0089H7.7078C7.92403 30.0089 8.10938 30.1943 8.10938 30.4105V31.0283H5.39103V30.4105H5.42192Z" fill="white"/>
</svg>
