<svg width="20" height="37" viewBox="0 0 20 37" fill="none" xmlns="http://www.w3.org/2000/svg">
<path d="M2.86799 8.68309C0.918999 7.8884 0.401299 7.12369 0.401299 5.11447C0.401299 4.55968 0.386072 4.01989 0.401299 3.46511C0.462204 1.72578 1.69555 0.511246 3.46182 0.511246C7.19231 0.496251 10.9228 0.496251 14.6533 0.511246C16.4196 0.511246 17.6681 1.72578 17.729 3.46511C17.7443 4.21482 17.7595 4.96453 17.729 5.71424C17.6834 7.03373 17.0591 8.00835 15.78 8.47317C15.3689 8.62311 15.2623 8.83303 15.2623 9.23788C15.2776 11.532 15.2471 13.8411 15.2928 16.1352C15.2928 16.4651 15.4755 16.8549 15.7039 17.0948C16.4348 17.8895 17.2418 18.6093 18.0031 19.389C20.8505 22.3128 19.7542 27.021 15.8866 28.3705C15.3689 28.5504 15.2623 28.7903 15.2471 29.2701C15.2471 30.1098 15.2471 30.9795 15.0644 31.8042C14.3944 34.788 11.5166 36.7822 8.45611 36.4674C5.27377 36.1525 2.89844 33.5585 2.88321 30.2898C2.85276 24.7719 2.86799 19.254 2.86799 13.7211C2.86799 12.0568 2.86799 10.3924 2.86799 8.68309ZM5.36513 26.6911C6.81165 26.9161 7.22276 27.2009 7.25321 27.9507C7.28367 28.7154 6.88778 29.0003 5.36513 29.2851C5.36513 29.7949 5.31945 30.3047 5.38036 30.8146C5.60875 32.7188 7.19231 34.0983 9.11084 34.0833C10.9837 34.0683 12.552 32.7038 12.7804 30.8295C12.8413 30.3047 12.7957 29.78 12.8413 29.2552C12.887 28.7603 12.7347 28.5354 12.217 28.3555C8.33429 27.006 7.22276 22.2978 10.0701 19.374C10.801 18.6243 11.608 17.9195 12.3084 17.1248C12.5825 16.8249 12.7957 16.3601 12.8109 15.9703C12.8566 13.7961 12.8413 11.622 12.8261 9.4478C12.8261 9.20789 12.7957 8.96798 12.7804 8.71308C10.2681 8.71308 7.83182 8.71308 5.38036 8.71308C5.38036 9.28286 5.38036 9.80766 5.38036 10.3025C6.79642 10.4674 7.25321 10.7673 7.25321 11.532C7.26844 12.2967 6.8421 12.5966 5.36513 12.8515C5.36513 13.3613 5.36513 13.8711 5.36513 14.3809C6.79642 14.5908 7.22276 14.8757 7.25321 15.6404C7.28367 16.4201 6.8421 16.72 5.39558 16.9449C5.39558 17.4697 5.39558 17.9945 5.39558 18.5193C6.79642 18.6992 7.25321 18.9841 7.25321 19.7188C7.25321 20.9634 6.26349 20.9634 5.33468 21.0533C5.33468 21.3532 5.33468 21.5931 5.33468 21.848C5.33468 22.1179 5.33468 22.3728 5.33468 22.6277C6.79642 22.7777 7.25321 23.0775 7.26844 23.8722C7.28367 24.6369 6.85733 24.9518 5.38036 25.1767C5.36513 25.6865 5.36513 26.1963 5.36513 26.6911ZM9.08039 6.25403C10.8314 6.25403 12.5825 6.22404 14.3335 6.26902C15.0644 6.28402 15.3537 5.99913 15.2928 5.2944C15.2471 4.7696 15.2776 4.2448 15.2928 3.72001C15.308 3.16522 15.0949 2.89533 14.4858 2.89533C10.8619 2.91032 7.23799 2.91032 3.59886 2.89533C3.03548 2.89533 2.82231 3.15023 2.83754 3.67502C2.85276 4.19982 2.83754 4.72462 2.83754 5.24942C2.83754 6.16406 2.91367 6.25403 3.82726 6.25403C5.5783 6.25403 7.32935 6.25403 9.08039 6.25403ZM14.0138 18.9391C13.222 19.7188 12.3998 20.4236 11.6841 21.2183C10.5726 22.4478 10.6792 24.2621 11.8668 25.4016C13.0545 26.5412 14.8969 26.5712 16.1303 25.4916C17.3484 24.412 17.5463 22.5527 16.4652 21.3082C15.7344 20.4685 14.8512 19.7488 14.0138 18.9391Z" fill="white"/>
</svg>
