<svg width="15" height="21" viewBox="0 0 15 21" fill="none" xmlns="http://www.w3.org/2000/svg">
<path d="M15 7.79562C14.9688 9.9024 14.3132 11.6815 13.3845 13.3747C11.9796 15.9262 10.1222 18.1188 8.00712 20.1086C7.65591 20.4441 7.35153 20.4519 7.00813 20.132C4.48726 17.7443 2.28638 15.1147 0.897165 11.8921C0.0464682 9.92581 -0.304737 7.89706 0.311823 5.78248C1.2952 2.39602 4.59653 0.101975 8.06175 0.390682C11.6284 0.687192 14.5083 3.44941 14.922 6.96851C14.961 7.28843 14.9766 7.61615 15 7.79562ZM7.49982 3.71471C5.18967 3.71471 3.33999 5.55619 3.33999 7.86585C3.33999 10.1599 5.17406 12.0014 7.4686 12.017C9.77875 12.0326 11.6362 10.1911 11.644 7.88145C11.6596 5.5718 9.80997 3.71471 7.49982 3.71471Z" fill="#3E2E5F"/>
</svg>
