<svg width="36" height="33" viewBox="0 0 36 33" fill="none" xmlns="http://www.w3.org/2000/svg">
<path d="M5.65655 8.14678C5.20237 8.14678 4.7482 8.16066 4.30779 8.14678C3.48201 8.11902 3.08289 7.71654 3.06913 6.88382C3.05536 5.0102 3.05536 3.13658 3.06913 1.26296C3.06913 0.402481 3.49578 0 4.36284 0C9.11104 0 13.8592 0 18.6074 0C19.5158 0 19.9149 0.402481 19.9287 1.30459C19.9424 3.13658 19.9424 4.95468 19.9287 6.78667C19.9287 7.73042 19.5295 8.11902 18.5661 8.1329C18.1533 8.14678 17.7541 8.1329 17.3275 8.1329C17.1899 8.9101 17.2174 9.50689 17.7817 10.0898C19.3782 11.7414 20.9334 13.4484 22.4473 15.1833C22.7501 15.5302 22.9703 16.0715 22.9703 16.5295C23.0116 20.9984 22.9978 25.4535 22.9978 29.9224C22.9978 31.8099 21.8417 32.9896 19.9424 32.9896C14.3272 33.0035 8.69815 33.0035 3.08289 32.9896C1.15608 32.9896 0.0137629 31.8099 0.0137629 29.8669C0.0137629 25.4535 0.0275258 21.0262 0 16.6128C0 16.016 0.165155 15.558 0.564279 15.1139C2.10572 13.4623 3.59212 11.7691 5.16109 10.1453C5.72536 9.57628 5.83547 8.9795 5.65655 8.14678ZM20.7407 27.3271C20.7407 23.9823 20.7407 20.6792 20.7407 17.3761C14.5474 17.3761 8.39537 17.3761 2.25711 17.3761C2.25711 20.7208 2.25711 24.0101 2.25711 27.3271C8.42289 27.3271 14.5474 27.3271 20.7407 27.3271ZM7.98248 8.17454C7.96872 8.43823 7.92743 8.61865 7.95495 8.79908C8.13387 9.93713 7.6797 10.7698 6.88145 11.5609C5.79418 12.6435 4.78949 13.8093 3.68846 15.0306C8.94588 15.0306 14.0657 15.0306 19.3093 15.0306C18.0294 13.6289 16.8458 12.3104 15.6346 11.0335C15.208 10.5755 15.0016 10.0898 15.0428 9.47913C15.0704 9.04889 15.0428 8.63253 15.0428 8.18841C12.6206 8.17453 10.3359 8.17454 7.98248 8.17454ZM5.29871 5.87068C9.46887 5.87068 13.5565 5.87068 17.6578 5.87068C17.6578 4.63547 17.6578 3.45579 17.6578 2.2761C13.5152 2.2761 9.42758 2.2761 5.29871 2.2761C5.29871 3.48355 5.29871 4.64935 5.29871 5.87068ZM2.25711 29.6032C2.13325 30.5886 2.2984 30.7829 3.24804 30.7829C8.73944 30.7829 14.2446 30.7829 19.736 30.7829C20.6719 30.7829 20.837 30.5747 20.6994 29.6032C14.5611 29.6032 8.40913 29.6032 2.25711 29.6032Z" fill="white"/>
<path d="M35.9934 21.9597C35.9934 23.7997 36.0082 25.6263 35.9934 27.4664C35.9786 30.5689 33.3126 33.0134 29.98 32.9999C26.6623 32.9865 24.0259 30.5689 24.0111 27.4932C23.9963 23.8266 23.9963 20.1599 24.0111 16.4933C24.0259 13.4041 26.6475 11 29.9949 11C33.3422 11 35.9786 13.3907 35.9934 16.4664C36.0082 18.293 35.9934 20.1196 35.9934 21.9597ZM33.5792 20.8986C33.5792 19.2198 33.6977 17.5677 33.5496 15.9292C33.4014 14.3577 31.8611 13.2027 30.1726 13.149C28.3508 13.0952 26.7068 14.116 26.5142 15.7411C26.3217 17.4334 26.4698 19.1526 26.4698 20.8852C28.8248 20.8986 31.1798 20.8986 33.5792 20.8986ZM26.3957 23.1147C26.3957 24.7399 26.3217 26.2845 26.4105 27.8156C26.4994 29.5079 28.0694 30.7973 29.9208 30.851C31.6833 30.9047 33.3718 29.7228 33.5347 28.0842C33.6977 26.4456 33.5644 24.7936 33.5644 23.1147C31.1798 23.1147 28.8248 23.1147 26.3957 23.1147Z" fill="white"/>
<path d="M13.6837 20.9688C14.4141 20.9688 15.0714 20.9559 15.7142 20.9688C16.503 20.9818 17.0143 21.4096 16.9997 22.019C16.9851 22.5894 16.4884 23.0172 15.7434 23.0431C15.086 23.0691 14.4433 23.0431 13.6691 23.0431C13.6691 23.6395 13.6837 24.184 13.6691 24.7415C13.6545 25.5323 13.1724 26.025 12.4566 25.999C11.7554 25.9731 11.3464 25.5193 11.3318 24.7415C11.3318 24.2099 11.3318 23.6654 11.3318 23.0431C10.6452 23.0431 10.0171 23.0561 9.40353 23.0431C8.49783 23.0302 7.97194 22.6283 8.00116 21.9671C8.01576 21.3318 8.51244 20.9818 9.40353 20.9688C9.95863 20.9559 10.5137 20.9559 11.0834 20.9559C11.1273 20.9559 11.1711 20.93 11.3464 20.8781C11.3464 20.3595 11.3464 19.815 11.3464 19.2705C11.361 18.4408 11.77 18 12.515 18C13.2454 18.013 13.6691 18.4667 13.6837 19.2964C13.6983 19.828 13.6837 20.3595 13.6837 20.9688Z" fill="#A689B0"/>
</svg>
