<svg width="14" height="14" viewBox="0 0 14 14" fill="none" xmlns="http://www.w3.org/2000/svg">
<path d="M2.21343 3.70934C2.03571 3.70934 1.85799 3.7148 1.68566 3.70934C1.36253 3.6984 1.20635 3.53985 1.20096 3.21181C1.19558 2.47371 1.19558 1.73562 1.20096 0.997529C1.20096 0.658553 1.36791 0.5 1.7072 0.5C3.56519 0.5 5.42318 0.5 7.28117 0.5C7.63661 0.5 7.79279 0.658553 7.79818 1.01393C7.80356 1.73562 7.80356 2.45185 7.79818 3.17354C7.79818 3.54532 7.642 3.6984 7.26501 3.70387C7.10345 3.70934 6.94727 3.70387 6.78032 3.70387C6.72647 4.01004 6.73724 4.24514 6.95804 4.47477C7.58276 5.12538 8.19132 5.79787 8.78372 6.48129C8.9022 6.61797 8.98837 6.8312 8.98837 7.01162C9.00452 8.77211 8.99914 10.5271 8.99914 12.2876C8.99914 13.0312 8.54676 13.4959 7.80356 13.4959C5.60629 13.5014 3.40362 13.5014 1.20635 13.4959C0.45238 13.4959 0.00538548 13.0312 0.00538548 12.2657C0.00538548 10.5271 0.010771 8.78304 0 7.04442C0 6.80933 0.0646258 6.6289 0.220805 6.45395C0.823979 5.80333 1.40561 5.13632 2.01956 4.49664C2.24036 4.27247 2.28344 4.03738 2.21343 3.70934ZM8.11592 11.2652C8.11592 9.94759 8.11592 8.64636 8.11592 7.34513C5.69245 7.34513 3.28514 7.34513 0.883219 7.34513C0.883219 8.66276 0.883219 9.95852 0.883219 11.2652C3.29591 11.2652 5.69245 11.2652 8.11592 11.2652ZM3.12358 3.72027C3.11819 3.82415 3.10204 3.89523 3.11281 3.9663C3.18282 4.41463 3.0051 4.74267 2.69274 5.05431C2.26729 5.48076 1.87415 5.94002 1.44331 6.42114C3.50056 6.42114 5.50396 6.42114 7.55583 6.42114C7.05498 5.86894 6.59183 5.34954 6.11791 4.84655C5.95096 4.66612 5.87017 4.47477 5.88633 4.2342C5.8971 4.06471 5.88633 3.90069 5.88633 3.72574C4.93849 3.72027 4.0445 3.72027 3.12358 3.72027ZM2.07341 2.81269C3.70521 2.81269 5.3047 2.81269 6.90957 2.81269C6.90957 2.3261 6.90957 1.86137 6.90957 1.39665C5.28854 1.39665 3.68905 1.39665 2.07341 1.39665C2.07341 1.87231 2.07341 2.33156 2.07341 2.81269ZM0.883219 12.1619C0.83475 12.55 0.899375 12.6266 1.27097 12.6266C3.41978 12.6266 5.57397 12.6266 7.72278 12.6266C8.08899 12.6266 8.15362 12.5446 8.09976 12.1619C5.69784 12.1619 3.29053 12.1619 0.883219 12.1619Z" fill="#B370A0"/>
<path d="M13.9978 8.98351C13.9978 9.73625 14.0027 10.4835 13.9978 11.2362C13.9929 12.5055 13.1042 13.5055 11.9933 13.5C10.8874 13.4945 10.0086 12.5055 10.0037 11.2472C9.99877 9.74724 9.99877 8.24724 10.0037 6.74725C10.0086 5.48351 10.8825 4.5 11.9983 4.5C13.1141 4.5 13.9929 5.47802 13.9978 6.73626C14.0027 7.48351 13.9978 8.23076 13.9978 8.98351ZM13.1931 8.54944C13.1931 7.86263 13.2326 7.18681 13.1832 6.51648C13.1338 5.87362 12.6204 5.4011 12.0575 5.37912C11.4503 5.35714 10.9023 5.77472 10.8381 6.43956C10.7739 7.13186 10.8233 7.83516 10.8233 8.54395C11.6083 8.54944 12.3933 8.54944 13.1931 8.54944ZM10.7986 9.45603C10.7986 10.1209 10.7739 10.7527 10.8035 11.3791C10.8331 12.0714 11.3565 12.5989 11.9736 12.6209C12.5611 12.6428 13.1239 12.1593 13.1782 11.489C13.2326 10.8187 13.1881 10.1428 13.1881 9.45603C12.3933 9.45603 11.6083 9.45603 10.7986 9.45603Z" fill="#B370A0"/>
<path d="M4.89456 8.61332C5.13803 8.61332 5.35715 8.60845 5.5714 8.61332C5.83434 8.61818 6.00477 8.77861 5.9999 9.00711C5.99503 9.22102 5.82947 9.38146 5.58114 9.39118C5.36201 9.4009 5.14776 9.39118 4.88969 9.39118C4.88969 9.61481 4.89456 9.819 4.88969 10.0281C4.88482 10.3246 4.72413 10.5094 4.48553 10.4996C4.25181 10.4899 4.11546 10.3198 4.11059 10.0281C4.11059 9.82873 4.11059 9.62454 4.11059 9.39118C3.88174 9.39118 3.67235 9.39604 3.46784 9.39118C3.16594 9.38632 2.99065 9.23561 3.00039 8.98766C3.00525 8.74944 3.17081 8.61818 3.46784 8.61332C3.65288 8.60845 3.83791 8.60845 4.02782 8.60845C4.04242 8.60845 4.05703 8.59873 4.11546 8.57928C4.11546 8.38482 4.11546 8.18063 4.11546 7.97644C4.12033 7.6653 4.25668 7.5 4.50501 7.5C4.74848 7.50486 4.88969 7.67502 4.89456 7.98616C4.89943 8.18549 4.89456 8.38482 4.89456 8.61332Z" fill="#B370A0"/>
</svg>
