<svg width="20" height="20" viewBox="0 0 20 20" fill="none" xmlns="http://www.w3.org/2000/svg">
<g clip-path="url(#clip0_211_24)">
<path d="M-3.00976e-05 5.8458C-0.0315138 4.97247 0.243968 4.23289 0.905125 3.63494C1.36164 3.21794 1.7788 2.76161 2.21957 2.33675C2.96731 1.62078 3.72291 1.61291 4.46278 2.33675C5.23413 3.08419 5.98974 3.84737 6.73747 4.61842C7.48521 5.38946 7.48521 6.1133 6.73747 6.88435C6.31245 7.32495 5.87167 7.76554 5.42303 8.18254C5.19478 8.39497 5.17116 8.59166 5.30497 8.87491C6.28096 10.8183 7.74495 12.3367 9.44507 13.6349C9.98029 14.0441 10.6021 14.3509 11.1767 14.705C11.3892 14.8387 11.5623 14.7994 11.7355 14.6184C12.1763 14.1699 12.6171 13.7215 13.0657 13.2809C13.8607 12.502 14.6005 12.4941 15.3955 13.273C16.1432 14.0047 16.8831 14.7522 17.623 15.4917C18.4022 16.2785 18.3943 17.0338 17.6151 17.8206C17.2215 18.2219 16.8044 18.5995 16.4266 19.0244C15.6867 19.8584 14.7579 20.0865 13.6875 19.9685C12.1605 19.7954 10.7831 19.1975 9.46081 18.45C5.63555 16.3021 2.75479 13.2573 0.897254 9.2683C0.417129 8.19041 0.0314536 7.05744 -3.00976e-05 5.8458Z" fill="#3E2E5F"/>
<path d="M19.386 9.44141L19.3073 9.45714C18.9374 9.52008 18.5832 9.29192 18.4809 8.93C17.3632 4.98822 14.8288 2.53346 10.8382 1.52638C10.4761 1.43196 10.24 1.08578 10.2872 0.715992C10.2872 0.692388 10.2951 0.660917 10.2951 0.637314V0.629446C10.3502 0.212451 10.7438 -0.0629224 11.1609 0.00788801C15.0098 0.708124 18.8823 3.92606 19.9842 8.53661C20.0787 8.9536 19.8032 9.37059 19.386 9.44141Z" fill="#3E2E5F"/>
<path d="M10.0669 4.76005C10.0748 4.72858 10.0748 4.69711 10.0826 4.66564C10.1377 4.24078 10.547 3.95754 10.9642 4.04408C13.05 4.50828 15.2145 6.36509 15.8756 8.79625C15.9858 9.21324 15.7182 9.6381 15.2932 9.70891C15.2617 9.71678 15.2302 9.71678 15.1987 9.72465C14.8367 9.78759 14.4903 9.57516 14.3802 9.22898C13.7662 7.33283 12.5069 6.12119 10.5942 5.56257C10.2401 5.46816 10.0197 5.12197 10.0669 4.76005Z" fill="#3E2E5F"/>
</g>
<defs>
<clipPath id="clip0_211_24">
<rect width="20" height="20" fill="white"/>
</clipPath>
</defs>
</svg>
