<svg width="13" height="12" viewBox="0 0 13 12" fill="none" xmlns="http://www.w3.org/2000/svg">
<path d="M9.27504 4.42949C11.3149 4.41914 12.9944 6.11642 12.9995 8.19663C13.0096 10.2768 11.3504 11.9845 9.30041 12C7.27075 12.0155 5.58105 10.3027 5.58105 8.22768C5.58105 6.12677 7.22508 4.43984 9.27504 4.42949Z" fill="#B370A0"/>
<path d="M4.35381 3.84991C3.20705 3.78782 2.10088 3.62223 1.08097 3.09441C0.801895 2.94952 0.527891 2.75289 0.304628 2.5252C-0.101305 2.11641 -0.0860825 1.69726 0.304628 1.27294C0.68519 0.858969 1.17231 0.61576 1.68987 0.444997C3.57746 -0.17596 5.45997 -0.165611 7.31712 0.579538C7.64694 0.714079 7.96661 0.91589 8.24061 1.14875C8.81399 1.62482 8.80892 2.15263 8.25584 2.6494C7.70275 3.15134 7.02789 3.41007 6.32258 3.55496C5.67309 3.69467 5.00837 3.75677 4.35381 3.84991Z" fill="#B370A0"/>
<path d="M5.40894 5.009C5.18061 5.42814 4.96242 5.82659 4.74423 6.21469C4.71886 6.26126 4.64275 6.30783 4.592 6.30783C3.28287 6.32853 2.01433 6.15777 0.852348 5.49024C0.755938 5.43332 0.664604 5.37122 0.578343 5.30395C0.0810752 4.9262 -0.0407046 4.6209 0.0303336 3.95337C1.69973 4.96242 3.52136 5.15389 5.40894 5.009Z" fill="#B370A0"/>
<path d="M5.34815 11.3118C5.05385 11.3273 4.77984 11.3583 4.50076 11.3583C3.31341 11.3687 2.16158 11.2083 1.08078 10.6649C0.913333 10.5822 0.756034 10.4787 0.603809 10.37C0.136986 10.044 -0.0913513 9.60932 0.0304286 9.01941C0.375472 9.185 0.71544 9.37128 1.07063 9.51617C2.16158 9.95602 3.30326 10.1164 4.47032 10.0906C4.63777 10.0854 4.71895 10.1371 4.79507 10.2975C4.95236 10.6287 5.14518 10.9444 5.34815 11.3118Z" fill="#B370A0"/>
<path d="M0.0354481 6.47351C1.36488 7.30663 2.83131 7.56019 4.35356 7.58088C4.35356 8.00521 4.35356 8.40883 4.35356 8.8642C3.92733 8.82797 3.49095 8.80728 3.05965 8.74518C2.27823 8.63651 1.52218 8.42435 0.837165 8.01038C0.735682 7.94828 0.639273 7.88101 0.542864 7.80857C0.11156 7.48257 -0.0812576 7.05307 0.0354481 6.47351Z" fill="#B370A0"/>
</svg>
