<svg width="36" height="37" viewBox="0 0 36 37" fill="none" xmlns="http://www.w3.org/2000/svg">
<path d="M2.53241 3.08881C2.53241 3.71305 2.53241 4.20232 2.53241 4.70846C2.53241 7.40788 2.49852 10.1073 2.54936 12.8067C2.6002 16.9908 5.78595 20.6013 9.80204 21.0905C14.1909 21.6304 18.0884 19.0491 19.2068 14.865C19.3593 14.2914 19.4779 13.7009 19.4779 13.1273C19.5118 9.95545 19.4949 6.76677 19.4949 3.59495C19.4949 3.45998 19.461 3.32501 19.4271 3.07194C18.8848 3.07194 18.3595 3.08881 17.8173 3.07194C17.0039 3.0382 16.4786 2.54893 16.4447 1.87408C16.4108 1.16548 16.9869 0.574984 17.8003 0.558112C18.7662 0.52437 19.7152 0.52437 20.6811 0.558112C21.5622 0.591855 22.0198 1.06425 22.0198 1.95843C22.0198 5.8051 22.0875 9.66864 21.9859 13.5153C21.8503 18.4586 17.6987 22.8958 12.6489 23.5706C11.9711 23.655 11.8525 23.8912 11.8186 24.4985C11.5983 29.5431 14.6315 32.3437 17.3597 33.3897C23.2737 35.6505 29.5944 30.8759 28.9674 24.5998C28.9505 24.3467 28.5777 24.043 28.2896 23.9249C26.4764 23.1657 25.2225 21.9172 24.748 20.0108C24.1888 17.7163 24.748 15.6917 26.612 14.1733C28.4591 12.6549 30.5603 12.4018 32.7124 13.3972C34.8475 14.3757 35.9659 16.1304 35.9998 18.4923C36.0168 20.9893 34.8136 22.8114 32.526 23.7731C31.7296 24.1105 31.5432 24.5154 31.5432 25.3084C31.5093 30.5554 28.2388 34.7901 23.2737 36.1229C16.36 37.9787 9.4123 32.7486 9.31062 25.6121C9.31062 24.9709 9.49702 24.178 9.19201 23.7225C8.92088 23.3176 8.09055 23.3007 7.5144 23.1151C3.05773 21.6135 0.0414224 17.4969 0.00753134 12.8236C-0.00941418 9.2806 0.00753134 5.73761 0.00753134 2.19463C0.00753134 0.963025 0.448115 0.52437 1.68514 0.507498C2.53241 0.507498 3.37969 0.490627 4.22697 0.507498C5.12508 0.52437 5.71817 1.04738 5.71817 1.78972C5.71817 2.53206 5.14203 3.02133 4.22697 3.05507C3.68471 3.10568 3.1594 3.08881 2.53241 3.08881ZM33.6105 18.5936C33.6274 16.6702 32.221 15.2193 30.3061 15.1687C28.5268 15.1181 26.8831 16.7209 26.8831 18.5261C26.8662 20.3145 28.4082 21.8666 30.2045 21.8666C32.204 21.8666 33.6105 20.5169 33.6105 18.5936Z" fill="white"/>
</svg>
