<svg width="14" height="14" viewBox="0 0 14 14" fill="none" xmlns="http://www.w3.org/2000/svg">
<path d="M2.70273 4.72887C2.70273 4.47231 2.70273 4.2449 2.70273 3.98251C2.6068 3.97668 2.51651 3.97085 2.42622 3.97085C1.78858 3.97085 1.14529 3.97668 0.507643 3.97085C0.174713 3.97085 0.0054264 3.79009 0.0054264 3.44607C-0.000216489 2.9038 -0.00585938 2.35569 0.0054264 1.81342C0.0279979 0.833826 0.806716 0.0116689 1.76036 0.00583802C4.80188 7.11787e-06 7.83775 7.11787e-06 10.8736 0.00583802C11.8668 0.00583802 12.6455 0.845488 12.6455 1.88339C12.6511 4.46648 12.6455 7.04957 12.6455 9.63266C12.6455 9.74928 12.6455 9.8659 12.6455 10.0292C12.922 10.0292 13.1929 10.0292 13.4581 10.0292C13.8305 10.035 13.9998 10.1983 13.9941 10.5773C13.9885 11.0904 14.0167 11.6152 13.9377 12.1166C13.7684 13.207 12.8373 13.9883 11.7708 13.9942C9.53062 14 7.29603 14 5.05581 13.9942C3.84823 13.9883 2.89458 13.0962 2.7253 11.8192C2.70273 11.6443 2.6463 11.5802 2.48265 11.5335C0.992931 11.102 -0.00585938 9.72596 -0.00585938 8.14578C-0.000216489 6.57144 1.02115 5.207 2.51087 4.78135C2.57858 4.76969 2.62937 4.75219 2.70273 4.72887ZM3.62816 11.6618C3.75795 12.5598 4.39559 13.1195 5.19124 13.0612C5.96996 13.0029 6.54553 12.344 6.55117 11.4869C6.55117 11.207 6.55117 10.9213 6.55117 10.6414C6.55117 10.1866 6.70353 10.035 7.14368 10.035C8.57133 10.035 9.99898 10.035 11.4323 10.035C11.5338 10.035 11.6298 10.035 11.7426 10.035C11.7426 9.90671 11.7426 9.81925 11.7426 9.73179C11.7426 7.15453 11.7426 4.5831 11.7426 2.00584C11.7426 1.29447 11.3928 0.938783 10.6987 0.938783C8.45283 0.938783 6.20696 0.938783 3.95545 0.938783C3.78052 0.938783 3.59994 0.938783 3.42502 0.938783C3.80873 2.1691 3.50402 3.43441 3.64509 4.66473C5.64267 4.9038 6.72046 6.52479 6.77689 8.01167C6.8051 8.828 6.59632 9.56852 6.12796 10.2274C5.50724 11.0846 4.66645 11.5452 3.62816 11.6618ZM5.87403 8.16327C5.87403 6.75802 4.76238 5.60934 3.40244 5.60351C2.03122 5.59767 0.908288 6.75219 0.908288 8.17493C0.908288 9.58018 2.01994 10.7289 3.37987 10.7347C4.75109 10.7347 5.87403 9.58018 5.87403 8.16327ZM6.94618 13.0612C8.62211 13.0612 10.236 13.0729 11.8498 13.0554C12.4762 13.0496 13.001 12.5073 13.08 11.8601C13.1139 11.5744 13.0856 11.2828 13.0856 10.9913C11.2009 10.9913 9.33876 10.9913 7.45404 10.9913C7.48789 11.7201 7.43146 12.414 6.94618 13.0612ZM0.908288 3.01458C1.52901 3.01458 2.11022 3.01458 2.70837 3.01458C2.70837 2.59476 2.7253 2.19826 2.70273 1.80176C2.68015 1.31196 2.27387 0.938783 1.80551 0.938783C1.33715 0.938783 0.936503 1.31779 0.913931 1.80759C0.897002 2.19826 0.908288 2.60059 0.908288 3.01458Z" fill="#B370A0"/>
</svg>
