<svg width="16" height="17" viewBox="0 0 16 17" fill="none" xmlns="http://www.w3.org/2000/svg">
<path d="M0.927078 11.7444C0.960425 11.4443 0.980433 11.1442 1.02712 10.8507C1.08714 10.4572 1.00044 10.1038 0.773681 9.77695C0.600275 9.53018 0.4202 9.29008 0.246794 9.04998C-0.0866778 8.58979 -0.0800083 8.12293 0.253464 7.66274C0.326828 7.56269 0.386853 7.45598 0.466886 7.36261C1.00711 6.80238 1.11382 6.1421 0.993772 5.39512C0.833706 4.44139 1.00044 4.11459 1.90082 3.78779C2.67447 3.501 3.148 3.0208 3.42812 2.25382C3.74825 1.38012 4.0884 1.20671 5.02212 1.36011C5.7691 1.48683 6.42937 1.38679 6.99627 0.846563C7.08298 0.75986 7.19636 0.706504 7.2964 0.633141C7.76993 0.286329 8.23679 0.286329 8.71032 0.626471C8.81036 0.699835 8.92374 0.753191 9.01045 0.839893C9.57068 1.38012 10.231 1.48683 10.9846 1.36011C11.9317 1.20004 12.2651 1.37345 12.5986 2.28049C12.8787 3.04081 13.3523 3.50767 14.1059 3.78779C15.0063 4.12126 15.1797 4.44806 15.0196 5.40179C14.8929 6.15544 14.9996 6.80905 15.5398 7.37595C15.6399 7.47599 15.7132 7.60938 15.7933 7.72943C16.0867 8.16294 16.0801 8.60313 15.7866 9.02997C15.7066 9.15002 15.6332 9.27674 15.5332 9.38345C14.9863 9.94369 14.8929 10.6106 15.0196 11.3576C15.173 12.2913 14.9996 12.6315 14.1259 12.9516C13.3389 13.2384 12.8654 13.7319 12.5786 14.5123C12.2651 15.3659 11.9117 15.546 11.0046 15.3926C10.2443 15.2659 9.57068 15.3593 9.00378 15.9128C8.8904 16.0196 8.75034 16.0996 8.62362 16.1796C8.21678 16.4397 7.80995 16.4464 7.40311 16.1796C7.27639 16.0929 7.12966 16.0196 7.02295 15.9128C6.44938 15.3593 5.78243 15.2592 5.02212 15.386C4.1084 15.5394 3.74825 15.3659 3.44813 14.5123C3.148 13.6719 2.61445 13.1717 1.80078 12.9049C1.26055 12.7248 0.9004 12.378 0.927078 11.7444Z" fill="#A689B0"/>
<path d="M11.8051 6.61565C11.8051 6.87575 11.6917 7.08918 11.5116 7.26258C10.3111 8.46308 9.11065 9.67025 7.90348 10.8641C7.50331 11.2576 7.02978 11.2576 6.62961 10.8641C5.90931 10.1571 5.19568 9.44349 4.48205 8.71652C4.09522 8.32302 4.08855 7.79614 4.4487 7.43599C4.80885 7.08251 5.3224 7.08918 5.72924 7.48267C6.16942 7.90952 6.6096 8.33636 7.02311 8.78322C7.21652 8.98997 7.3299 8.96329 7.51665 8.76988C8.40368 7.86283 9.30406 6.9758 10.1978 6.07542C10.4512 5.81531 10.7313 5.64858 11.1181 5.73528C11.5317 5.84866 11.8118 6.19547 11.8051 6.61565Z" fill="#FDFBED"/>
</svg>
