<svg width="16" height="16" viewBox="0 0 16 16" fill="none" xmlns="http://www.w3.org/2000/svg">
<path d="M2 3.99998L3.33333 3.99998M3.33333 3.99998L14 3.99998M3.33333 3.99998L3.33334 13.3333C3.33334 13.6869 3.47381 14.0261 3.72386 14.2761C3.97391 14.5262 4.31305 14.6666 4.66667 14.6666L11.3333 14.6666C11.687 14.6666 12.0261 14.5262 12.2761 14.2761C12.5262 14.0261 12.6667 13.6869 12.6667 13.3333L12.6667 3.99998M5.33333 3.99998L5.33333 2.66665C5.33333 2.31302 5.47381 1.97389 5.72386 1.72384C5.97391 1.47379 6.31304 1.33331 6.66667 1.33331L9.33333 1.33331C9.68696 1.33331 10.0261 1.47379 10.2761 1.72384C10.5262 1.97388 10.6667 2.31302 10.6667 2.66664L10.6667 3.99998M6.66667 7.33331L6.66667 11.3333M9.33333 7.33331L9.33334 11.3333" stroke="#1E1E1E" stroke-width="1.5" stroke-linecap="round" stroke-linejoin="round"/>
</svg>
