<svg width="14" height="14" viewBox="0 0 14 14" fill="none" xmlns="http://www.w3.org/2000/svg">
<g clip-path="url(#clip0_45_1564)">
<path d="M1.39891 3.53281C1.3388 3.36328 1.27869 3.20469 1.22404 3.04062C1.04372 2.49922 1.26776 1.99609 1.80328 1.79922C3.38798 1.21406 4.97268 0.634373 6.56831 0.0656234C7.09836 -0.125783 7.59563 0.12578 7.80328 0.656248C7.89071 0.874998 7.97268 1.09922 8.03825 1.32344C8.0929 1.52031 8.18579 1.5914 8.39891 1.58594C9.15301 1.56953 9.91257 1.58047 10.6667 1.58047C11.3333 1.58047 11.7158 1.95781 11.7268 2.625C11.7322 2.92578 11.7268 3.22109 11.7268 3.5C11.9617 3.58203 12.1803 3.62578 12.3716 3.72422C12.8852 4.00312 13.153 4.44609 13.1749 5.03125C13.1858 5.30469 13.1749 5.57812 13.1749 5.85156C13.1749 6.125 13.1749 6.39844 13.1749 6.68828C13.8361 6.85781 14.0273 7.31719 14 7.94609C13.9727 8.49844 13.9945 9.05625 13.9945 9.61406C13.9945 10.3141 13.8361 10.5547 13.1749 10.8117C13.1749 11.3422 13.1749 11.8781 13.1749 12.4141C13.1694 13.3547 12.5355 13.9945 11.5956 13.9945C8.25683 13.9945 4.91257 13.9945 1.57377 13.9945C0.650273 13.9945 0.00546448 13.3492 0.00546448 12.4305C0 10.0187 0 7.60156 0 5.18984C0 4.30937 0.420765 3.77344 1.27322 3.56562C1.31148 3.55469 1.34426 3.54922 1.39891 3.53281ZM12.3497 6.69375C12.3497 6.17422 12.3497 5.68203 12.3497 5.19531C12.3497 4.63203 12.0984 4.375 11.5355 4.375C8.24044 4.375 4.94535 4.375 1.65027 4.375C1.06557 4.375 0.819672 4.62109 0.819672 5.20625C0.819672 7.57422 0.819672 9.94219 0.819672 12.3102C0.819672 12.9391 1.06011 13.1797 1.69399 13.1797C4.95082 13.1797 8.21311 13.1797 11.4699 13.1797C11.5519 13.1797 11.6339 13.1852 11.7158 13.1742C12.0219 13.1469 12.306 12.9336 12.3224 12.6383C12.3552 12.0367 12.3333 11.4297 12.3333 10.7844C11.7486 10.7844 11.1803 10.8172 10.623 10.7789C9.47541 10.6969 8.61202 9.54844 8.82514 8.4164C9.01639 7.38828 9.81967 6.71562 10.8798 6.69375C11.3607 6.68281 11.8415 6.69375 12.3497 6.69375ZM7.2459 1.56406C7.19126 1.40547 7.14754 1.26875 7.09836 1.13203C6.97268 0.787498 6.97268 0.787498 6.63934 0.907811C5.30601 1.39453 3.97814 1.87578 2.64481 2.3625C1.92896 2.61953 1.93443 2.61953 2.19672 3.33594C2.25683 3.49453 2.33333 3.55469 2.5082 3.55469C3.63388 3.54375 4.76503 3.54922 5.89071 3.54922C5.96175 3.54922 6.02732 3.53828 6.11475 3.52734C6.11475 3.26484 6.11475 3.02422 6.11475 2.77812C6.12022 1.95234 6.39891 1.64609 7.2459 1.56406ZM11.8579 9.96953C12.2131 9.96953 12.5683 9.96953 12.9235 9.96953C13.0874 9.96953 13.1749 9.92031 13.1749 9.73437C13.1694 9.06719 13.1694 8.40547 13.1749 7.73828C13.1749 7.57422 13.1038 7.50859 12.9454 7.50859C12.224 7.51406 11.5082 7.49219 10.7869 7.51953C10.0874 7.55234 9.59563 8.11016 9.61749 8.78281C9.63934 9.43906 10.153 9.94219 10.8415 9.96406C11.1858 9.98047 11.5191 9.96953 11.8579 9.96953ZM10.9016 3.54375C10.9016 3.21016 10.9126 2.9039 10.8907 2.59765C10.8852 2.53203 10.7596 2.41719 10.6885 2.41719C9.5082 2.40625 8.3224 2.40625 7.14208 2.41719C7.0765 2.41719 6.95628 2.49922 6.95628 2.54844C6.93989 2.88203 6.94535 3.21016 6.94535 3.54375C8.27322 3.54375 9.56284 3.54375 10.9016 3.54375Z" fill="#B370A0"/>
<path d="M12.3494 6.69375C11.8412 6.69375 11.3603 6.68828 10.8794 6.69375C9.81387 6.71563 9.01059 7.38828 8.8248 8.41641C8.61715 9.54844 9.47507 10.6969 10.6226 10.7789C11.18 10.8172 11.7483 10.7844 12.333 10.7844C12.333 11.4297 12.3549 12.0367 12.3221 12.6383C12.3057 12.9336 12.0215 13.1469 11.7155 13.1742C11.6335 13.1797 11.5516 13.1797 11.4696 13.1797C8.21278 13.1797 4.95048 13.1797 1.69365 13.1797C1.05431 13.1797 0.819336 12.9445 0.819336 12.3102C0.819336 9.94219 0.819336 7.57422 0.819336 5.20625C0.819336 4.62109 1.06524 4.375 1.64994 4.375C4.94502 4.375 8.2401 4.375 11.5352 4.375C12.098 4.375 12.3494 4.62656 12.3494 5.19531C12.3494 5.68203 12.3494 6.16875 12.3494 6.69375Z" fill="white"/>
<path d="M7.24603 1.56414C6.39903 1.64617 6.12034 1.95242 6.12034 2.78367C6.12034 3.02976 6.12034 3.27039 6.12034 3.53289C6.03291 3.53835 5.96734 3.55476 5.8963 3.55476C4.77062 3.55476 3.63947 3.54929 2.51378 3.56023C2.33892 3.56023 2.26242 3.50007 2.20231 3.34148C1.94001 2.62507 1.93455 2.62507 2.6504 2.36804C3.98373 1.88679 5.3116 1.40007 6.64493 0.913355C6.97827 0.793042 6.97827 0.793042 7.10395 1.13757C7.14766 1.26882 7.19685 1.40554 7.24603 1.56414Z" fill="white"/>
<path d="M11.8577 9.96957C11.5189 9.96957 11.1856 9.98051 10.8468 9.96957C10.1583 9.94769 9.63916 9.44457 9.62277 8.78832C9.60091 8.11566 10.0927 7.55785 10.7922 7.52504C11.508 7.49223 12.2293 7.5141 12.9506 7.5141C13.1091 7.5141 13.1801 7.57973 13.1801 7.74379C13.1747 8.41098 13.1747 9.07269 13.1801 9.73988C13.1801 9.92582 13.0927 9.97504 12.9288 9.97504C12.5681 9.96957 12.2129 9.96957 11.8577 9.96957ZM10.8359 9.14926C11.0654 9.15473 11.2567 8.96879 11.2567 8.7391C11.2567 8.52035 11.0763 8.33988 10.8577 8.33441C10.6337 8.32894 10.437 8.52035 10.437 8.74457C10.4424 8.96879 10.6173 9.14379 10.8359 9.14926Z" fill="white"/>
<path d="M10.9019 3.54382C9.56856 3.54382 8.27894 3.54382 6.95107 3.54382C6.95107 3.21023 6.94561 2.87664 6.962 2.54851C6.962 2.49929 7.08222 2.41726 7.14779 2.41726C8.32812 2.40632 9.51391 2.40632 10.6942 2.41726C10.7653 2.41726 10.891 2.5321 10.8964 2.59773C10.9128 2.89851 10.9019 3.21023 10.9019 3.54382Z" fill="white"/>
<path d="M10.8364 9.14921C10.6178 9.14374 10.4375 8.96327 10.4375 8.74999C10.4375 8.52577 10.6288 8.33437 10.8583 8.33984C11.0768 8.3453 11.2572 8.52577 11.2572 8.74452C11.2626 8.96874 11.0714 9.15468 10.8364 9.14921Z" fill="#B370A0"/>
</g>
<defs>
<clipPath id="clip0_45_1564">
<rect width="14" height="14" fill="white"/>
</clipPath>
</defs>
</svg>
