<svg width="81" height="80" viewBox="0 0 81 80" fill="none" xmlns="http://www.w3.org/2000/svg">
<path d="M31.5859 24.4553C31.5859 21.3628 31.5859 18.5513 31.5859 15.7634C31.6093 12.1554 33.7647 10 37.3493 10C46.4863 10 55.6234 10 64.7604 10C68.345 10 70.5004 12.1788 70.5004 15.7868C70.5004 31.9524 70.5004 48.0945 70.5004 64.2601C70.5004 67.7977 68.3215 69.9766 64.8307 69.9766C55.6468 69.9766 46.4863 69.9766 37.3024 69.9766C33.7881 69.9766 31.6093 67.7977 31.6093 64.2835C31.6093 55.8493 31.6093 47.4151 31.6093 38.9809C31.6093 38.5592 31.6093 38.1609 31.6093 37.458C30.2505 38.4889 29.0322 39.3323 27.9311 40.2694C27.7202 40.4569 27.7671 41.1128 27.8608 41.5111C28.8682 45.9859 26.4551 50.4373 22.1677 51.9133C17.9272 53.3659 13.2649 51.3979 11.3438 47.3448C9.32895 43.1043 11.0158 37.8563 15.2797 35.8649C17.4117 34.8809 19.2157 33.5221 21.0666 32.1866C21.5585 31.8118 22.0505 31.4369 22.7065 30.9449C20.7151 29.797 19.3329 28.0164 16.9666 27.4541C12.3746 26.353 9.65694 21.5736 10.7581 16.9114C11.8592 12.3428 16.498 9.46115 21.1837 10.4451C25.7756 11.4291 28.7979 15.9274 27.9311 20.5428C27.7905 21.3159 27.9311 21.761 28.587 22.2062C29.5476 22.8622 30.4379 23.5884 31.5859 24.4553ZM66.9158 24.2913C61.0587 24.2913 55.3422 24.2913 49.6023 24.3147C49.2274 24.3147 48.8057 24.5724 48.4777 24.8301C44.284 27.9461 40.1138 31.1089 35.9201 34.2249C35.311 34.6701 35.1001 35.1386 35.1001 35.8883C35.1236 45.2597 35.1236 54.631 35.1236 64.0023C35.1236 65.9703 35.6624 66.4858 37.6304 66.4858C46.58 66.4858 55.5062 66.4858 64.4559 66.4858C66.4473 66.4858 66.9861 65.9703 66.9861 64.0258C66.9861 54.7013 66.9861 45.3534 66.9861 36.0289C66.9861 35.654 66.9861 35.2792 66.9861 34.9278C64.245 34.7638 63.4719 34.4123 63.4953 33.2409C63.5656 30.8981 65.4867 31.4838 66.9393 31.3198C66.9158 28.9535 66.9158 26.7044 66.9158 24.2913ZM35.1236 21.6439C36.459 20.6599 37.5601 19.7931 38.6847 18.9965C42.3863 16.3257 47.236 16.8176 50.3988 20.0976C50.7737 20.4725 51.4297 20.7536 51.9685 20.7536C56.5605 20.8005 61.1759 20.777 65.7678 20.777C66.1427 20.777 66.5175 20.7536 66.9627 20.7302C66.9627 19.0902 66.9627 17.5205 66.9627 15.9742C66.9627 14.0765 66.4238 13.5377 64.5261 13.5377C58.9502 13.5377 53.3742 13.5377 47.7983 13.5377C44.2372 13.5377 40.6995 13.5377 37.1384 13.5377C35.8733 13.5377 35.147 14.1468 35.1236 15.2948C35.0767 17.3096 35.1236 19.3479 35.1236 21.6439ZM46.7206 21.7376C44.7292 20.4022 42.5972 20.4725 40.6292 21.9485C36.2715 25.1816 31.9139 28.4615 27.5328 31.7415C25.9162 32.9598 24.3231 34.1546 22.7065 35.3729C23.7374 36.0758 24.6979 36.7552 25.7522 37.458C32.687 32.2569 39.6921 27.009 46.7206 21.7376ZM24.5574 19.0199C24.5574 16.1382 22.1677 13.7485 19.2626 13.772C16.4043 13.7954 14.0615 16.1382 14.038 18.9731C14.0146 21.8782 16.3809 24.2679 19.2626 24.2913C22.1677 24.3147 24.5574 21.925 24.5574 19.0199ZM19.4031 38.3717C16.498 38.3249 14.0615 40.6677 14.0146 43.5494C13.9678 46.4077 16.2637 48.8208 19.0986 48.8911C22.0037 48.9848 24.4637 46.6654 24.5339 43.7603C24.6277 40.8551 22.3083 38.4186 19.4031 38.3717ZM28.5402 26.5873C27.6499 25.9313 26.8768 25.3456 26.1271 24.7833C25.1665 25.533 24.2762 26.2593 23.2922 27.0324C24.0888 27.6181 24.8385 28.2038 25.6351 28.7895C26.5722 28.0398 27.4859 27.3838 28.5402 26.5873Z" fill="#3E2E5F"/>
<path d="M21.0435 43.6196C21.0435 42.7059 20.2704 41.8859 19.3567 41.8625C18.3961 41.8157 17.5293 42.6356 17.5293 43.6196C17.5293 44.5333 18.3024 45.3533 19.2161 45.3768C20.2001 45.4236 21.0435 44.6036 21.0435 43.6196Z" fill="white"/>
<path d="M60.1687 39.918C59.8407 40.5974 59.7002 41.0426 59.4425 41.4174C54.8505 48.2351 50.2351 55.0293 45.6197 61.8469C44.8466 62.9949 43.8626 63.2761 42.9489 62.6669C42.0352 62.0578 41.9181 61.0269 42.6912 59.9024C47.33 53.0613 51.9688 46.2202 56.5842 39.3791C57.1231 38.5826 57.8493 38.0672 58.7396 38.4889C59.3019 38.77 59.7002 39.4494 60.1687 39.918Z" fill="#3E2E5F"/>
<path d="M43.9327 38.3483C46.8378 38.3717 49.2041 40.7614 49.1806 43.6899C49.1572 46.595 46.7441 48.9379 43.8155 48.9145C40.9573 48.8676 38.6379 46.5013 38.6379 43.6431C38.6144 40.7145 41.0276 38.3483 43.9327 38.3483ZM45.6429 43.5728C45.6195 42.6591 44.823 41.8859 43.9092 41.8859C42.9487 41.8859 42.1287 42.7294 42.1521 43.6899C42.1755 44.6036 42.9721 45.3768 43.8858 45.3768C44.8464 45.3768 45.6664 44.5334 45.6429 43.5728Z" fill="#3E2E5F"/>
<path d="M52.9054 57.7001C52.882 54.795 55.2717 52.4053 58.1768 52.4053C61.0819 52.4053 63.4716 54.795 63.4482 57.7001C63.4248 60.5583 61.0819 62.9246 58.2237 62.948C55.342 62.9715 52.9289 60.6052 52.9054 57.7001ZM58.2003 59.4338C59.1608 59.4338 59.9808 58.5669 59.9339 57.6064C59.8871 56.6927 59.0905 55.9195 58.1768 55.9195C57.2631 55.9195 56.4666 56.6927 56.4431 57.6298C56.4197 58.5904 57.2397 59.4338 58.2003 59.4338Z" fill="#3E2E5F"/>
<path d="M45.6431 34.8341C45.0106 34.8341 44.4014 34.8809 43.7689 34.8341C42.7849 34.7404 42.082 33.9438 42.1523 33.0301C42.2226 32.0461 42.8083 31.4135 43.7923 31.3667C45.034 31.2964 46.2991 31.2964 47.5408 31.3667C48.5248 31.437 49.0871 32.0461 49.1574 33.0535C49.2277 33.9672 48.5014 34.7638 47.5174 34.8575C46.9083 34.8809 46.2757 34.8341 45.6431 34.8341Z" fill="#3E2E5F"/>
<path d="M56.4898 31.3432C57.1224 31.3432 57.7549 31.273 58.3641 31.3667C59.3481 31.4838 59.9338 32.1164 59.9338 33.1004C59.9338 34.0844 59.3481 34.7404 58.3641 34.8106C57.0755 34.9044 55.787 34.9044 54.4984 34.8106C53.5144 34.7404 52.9287 34.0609 52.9287 33.0769C52.9287 32.093 53.5144 31.4604 54.4984 31.3432C55.1544 31.273 55.8338 31.3432 56.4898 31.3432Z" fill="#3E2E5F"/>
<path d="M21.0435 18.9965C21.067 19.9805 20.247 20.8005 19.263 20.7771C18.3493 20.7536 17.5527 19.9805 17.5293 19.0668C17.5293 18.0828 18.3493 17.2628 19.3099 17.2628C20.247 17.2862 21.0435 18.0594 21.0435 18.9965Z" fill="#3E2E5F"/>
<path d="M21.0435 43.6197C21.0435 44.5802 20.2001 45.4002 19.2161 45.3768C18.279 45.3534 17.5293 44.5334 17.5293 43.6197C17.5293 42.6591 18.3727 41.8391 19.3567 41.8626C20.2938 41.9094 21.067 42.706 21.0435 43.6197Z" fill="#3E2E5F"/>
</svg>
