<svg width="61" height="60" viewBox="0 0 61 60" fill="none" xmlns="http://www.w3.org/2000/svg">
<path d="M48.9733 30.4276C48.9733 26.5399 48.9498 22.6263 48.9733 18.7127C48.9967 15.6285 50.8475 13.1663 53.5652 12.5442C56.9623 11.7408 60.3829 14.514 60.4297 18.3498C60.5234 26.3067 60.4531 34.2375 60.4297 42.1943C60.4297 42.609 60.172 43.1015 59.8909 43.3866C55.0646 48.7516 50.2384 54.0907 45.3887 59.4038C45.0841 59.7408 44.5219 59.974 44.0767 59.974C35.01 60 25.9666 60 16.8998 59.974C16.4313 59.974 15.8221 59.6889 15.4941 59.3261C10.6913 54.0648 5.91195 48.7775 1.17942 43.4643C0.827997 43.0755 0.546857 42.3758 0.546857 41.8056C0.5 34.2116 0.5 26.6177 0.5 19.0237C0.5 15.2656 2.9834 12.3887 6.21652 12.3887C9.47306 12.3628 11.9799 15.2138 12.0033 18.946C12.0267 22.7559 12.0267 26.5399 12.0267 30.3498C12.0267 30.3758 12.0502 30.4276 12.1205 30.5313C12.5187 30.2462 12.917 29.9092 13.3387 29.6501C15.541 28.2246 18.1884 28.5097 20.0627 30.4535C23.6238 34.1857 27.138 37.9956 30.4414 41.5205C33.6277 38.1511 37.0951 34.4967 40.5156 30.8164C42.0619 29.1576 43.8659 28.3801 45.951 28.9762C46.9818 29.2354 47.8721 29.8833 48.9733 30.4276ZM32.4094 56.1123C35.9939 56.1123 39.5082 56.1382 42.999 56.0863C43.3739 56.0863 43.819 55.6717 44.1236 55.3347C48.1767 50.9028 52.2064 46.4449 56.1892 41.9611C56.564 41.5205 56.8686 40.7948 56.8686 40.1987C56.9155 33.2527 56.9155 26.3067 56.9155 19.3347C56.9155 17.4946 56.0486 16.3023 54.7132 16.2764C53.3544 16.2505 52.4641 17.4168 52.4641 19.257C52.4641 24.311 52.4406 29.365 52.4875 34.419C52.4875 35.2483 52.3001 35.8704 51.7378 36.4665C49.6292 38.7473 47.3098 41.2872 45.3653 43.4384C44.7093 44.1641 43.655 44.19 42.9756 43.4902L42.9522 43.4643C42.2259 42.7127 42.2025 41.4686 42.9053 40.6911C44.4984 38.9546 44.4984 38.9805 46.0447 37.244C47.1458 36.0259 47.263 34.4967 46.3259 33.46C45.4121 32.4492 43.983 32.527 42.9053 33.7192C40.0471 36.8552 37.1419 39.9395 34.4242 43.1792C33.5105 44.2678 32.6437 45.771 32.4797 47.1965C32.1986 50.0734 32.4094 53.028 32.4094 56.1123ZM28.6843 56.1123C28.6843 53.3909 28.7312 50.825 28.6609 48.2332C28.614 46.2635 27.8409 44.5529 26.5992 43.1533C23.7409 39.9654 20.8827 36.8034 17.9775 33.6414C17.6495 33.2786 17.2278 32.9676 16.8061 32.838C15.7753 32.5529 14.8381 32.838 14.2993 33.9265C13.737 35.041 13.901 36.1036 14.721 37.0108C16.3844 38.8509 16.361 38.825 18.001 40.6393C18.6804 41.3909 18.6804 42.609 18.0244 43.3606L18.001 43.3866C17.3216 44.1641 16.197 44.19 15.4941 43.4125C12.6593 40.2764 11.5348 39.0324 8.77021 35.8963C8.53592 35.6112 8.48907 35.041 8.48907 34.5745C8.46564 29.4686 8.48907 24.3887 8.46564 19.2829C8.46564 17.4168 7.62222 16.2764 6.26337 16.2505C4.92796 16.2505 4.01425 17.4427 4.01425 19.257C4.01425 26.203 4.01425 33.149 4.06111 40.0691C4.06111 40.6393 4.36568 41.4686 4.74053 41.8833C7.90336 45.46 11.3005 48.8293 14.2759 52.5874C16.4547 55.3347 18.7741 56.5788 22.0541 56.1382C24.1861 55.879 26.3883 56.1123 28.6843 56.1123Z" fill="#3E2E5F"/>
<path d="M43.2565 0C43.2565 0.518359 43.2565 0.984881 43.2565 1.4514C43.2565 6.81641 43.2331 12.1555 43.2565 17.5205C43.28 22.2117 41.4994 25.7106 37.8446 28.095C35.6658 29.5205 33.4869 30.9719 31.3315 32.4492C30.7224 32.8639 30.2538 32.8639 29.6447 32.4492C27.3018 30.8164 24.8887 29.3132 22.5459 27.6803C19.5471 25.5551 17.8368 22.5227 17.7665 18.5572C17.6728 12.5961 17.7431 6.63499 17.7431 0.673866C17.7431 0.466523 17.7899 0.259179 17.8368 0C26.2944 0 34.6818 0 43.2565 0ZM21.351 3.88769C21.351 9.17495 21.2339 14.3326 21.3979 19.5162C21.4916 21.6156 22.7567 23.2484 24.3967 24.3629C26.2007 25.581 27.9813 26.7991 29.8087 27.9395C30.1601 28.1469 30.7927 28.1728 31.1207 27.9654C32.9481 26.8251 34.7521 25.6069 36.5326 24.3888C38.5709 22.9892 39.672 20.9417 39.6954 18.2721C39.7423 13.7106 39.7189 9.12311 39.6954 4.56156C39.6954 4.35421 39.6252 4.14687 39.5783 3.91361C33.5338 3.88769 27.4893 3.88769 21.351 3.88769Z" fill="#3E2E5F"/>
<path d="M29.3639 19.4903C28.3799 18.4018 27.3959 17.3132 26.3885 16.1987C25.7325 15.473 25.7325 14.3326 26.3651 13.6069C26.9977 12.8812 28.0519 12.8294 28.7314 13.5551L29.4342 14.2808C30.3245 13.2182 31.1913 12.1815 32.0816 11.1188C32.7376 10.3154 33.8856 10.3154 34.5416 11.1188L34.5884 11.1707C35.1976 11.8964 35.1976 13.0368 34.5416 13.7625C32.8313 15.6285 31.0976 17.5724 29.3639 19.4903Z" fill="#3E2E5F"/>
</svg>
