<svg width="61" height="61" viewBox="0 0 61 61" fill="none" xmlns="http://www.w3.org/2000/svg">
<path d="M48.6916 45.275C49.0196 48.8334 46.2785 52.4151 42.6002 53.094C41.0774 53.3749 39.4842 53.3281 37.938 53.3047C37.5163 53.3047 36.954 52.9535 36.6963 52.6024C35.6888 51.151 34.3769 50.3316 32.5963 50.3082C31.1906 50.2848 29.7849 50.2848 28.3792 50.3082C25.7318 50.3784 23.717 52.4151 23.6701 55.0136C23.6232 57.6824 25.6381 59.8361 28.2855 59.9297C29.7615 59.9766 31.2843 60.117 32.7369 59.8829C33.8614 59.6956 35.3374 59.2743 35.8997 58.4315C36.9774 56.8162 38.3128 56.7928 39.8825 56.8864C40.2339 56.9098 40.5854 56.8864 40.9368 56.8864C47.1219 56.8162 52.1121 51.9937 52.323 45.8369C52.3464 45.1814 52.487 44.8302 53.1664 44.5493C57.7349 42.7468 60.5229 38.7202 60.5229 34.0148C60.5229 29.3094 57.7115 25.2594 53.1664 23.4803C52.4635 23.1994 52.3933 22.8248 52.3464 22.1927C52.2058 20.3433 52.159 18.4237 51.7373 16.6445C49.0899 5.78226 38.594 -1.28758 27.3952 0.187255C17.0399 1.56845 8.81653 10.8388 8.72282 21.6777C8.72282 22.7311 8.48853 23.2696 7.41083 23.7144C2.79544 25.5638 0.00746968 30.4097 0.56975 35.2555C1.15546 40.2887 5.02114 44.362 9.94109 45.158C13.9239 45.8135 16.8993 43.7768 16.993 40.1716C17.0867 36.0749 17.0633 31.9781 16.993 27.8814C16.9462 25.3765 15.3999 23.5505 12.9633 22.9184C12.7525 22.8716 12.5182 22.778 12.2136 22.6843C12.1668 15.6379 14.8845 10.0195 20.8821 6.3441C27.2546 2.41121 33.9083 2.43462 40.2574 6.39092C46.1847 10.0897 48.879 15.7081 48.8087 22.6375C44.7556 24.1358 44.0059 25.2594 44.0059 29.5201C44.0059 32.8677 43.9825 36.2388 44.0059 39.5864C44.0293 42.7702 45.5288 44.5961 48.6916 45.275ZM30.5346 26.5938C30.2535 26.3831 30.0426 26.2192 29.8318 26.0554C26.9266 23.8314 23.2015 24.1123 20.8821 26.7343C18.5627 29.3328 18.6799 33.1018 21.2101 35.7003C23.7872 38.3457 26.4346 40.9442 29.0586 43.5427C30.0192 44.4791 30.9329 44.5493 31.8232 43.6832C34.6346 40.9208 37.4928 38.2052 40.1402 35.3024C43.5139 31.6036 41.5459 25.751 36.6494 24.6742C34.33 24.206 32.362 24.9785 30.5346 26.5938Z" fill="white"/>
<path d="M48.6918 45.2751C45.529 44.5728 44.0295 42.7468 44.0061 39.5865C43.9827 36.2388 44.0061 32.8678 44.0061 29.5201C44.0061 25.2361 44.7792 24.1358 48.8089 22.6376C48.8558 15.7082 46.1849 10.1132 40.2576 6.39098C33.9085 2.43468 27.2548 2.41127 20.8823 6.34416C14.8847 10.0195 12.167 15.638 12.2138 22.6844C12.5184 22.778 12.7293 22.8717 12.9636 22.9185C15.4001 23.5506 16.9464 25.3765 16.9932 27.8814C17.0635 31.9782 17.0869 36.0749 16.9932 40.1717C16.8995 43.7769 13.9475 45.8135 9.94129 45.1581C5.02134 44.3621 1.17909 40.2888 0.569955 35.2556C-0.0157535 30.4097 2.79565 25.5638 7.41103 23.7144C8.48874 23.2696 8.72302 22.7546 8.72302 21.6778C8.79331 10.8389 17.0401 1.56851 27.3954 0.210722C38.5942 -1.26411 49.0901 5.78232 51.6906 16.6446C52.1123 18.4472 52.1592 20.3434 52.2997 22.1928C52.3466 22.8248 52.4169 23.1994 53.1197 23.4803C57.6883 25.2595 60.4762 29.3094 60.4762 34.0149C60.4762 38.7203 57.6883 42.7468 53.1197 44.5494C52.4403 44.8069 52.2997 45.1815 52.2763 45.8369C52.0655 52.0172 47.0752 56.8397 40.8901 56.8865C40.5387 56.8865 40.1873 56.9099 39.8359 56.8865C38.2662 56.7929 36.9307 56.8163 35.853 58.4316C35.2908 59.2509 33.8148 59.6957 32.6902 59.883C31.2377 60.1171 29.7382 59.9766 28.2388 59.9298C25.568 59.8362 23.5766 57.6824 23.6234 55.0137C23.6703 52.4152 25.6851 50.3785 28.3325 50.3083C29.7382 50.2614 31.1439 50.2849 32.5497 50.3083C34.3302 50.3317 35.6422 51.151 36.6496 52.6025C36.9073 52.9536 37.4696 53.3048 37.8913 53.3048C39.4376 53.3282 41.0307 53.375 42.5536 53.0941C46.2787 52.4386 49.0198 48.8334 48.6918 45.2751ZM13.479 33.9914C13.479 32.0484 13.5024 30.1054 13.479 28.1389C13.4555 26.9216 12.7527 26.2895 11.5579 26.2895C7.5516 26.3129 4.10764 29.8245 4.06078 33.9212C4.01392 38.0414 7.3876 41.5997 11.3704 41.6934C12.823 41.7402 13.4555 41.1549 13.479 39.7035C13.5024 37.8073 13.479 35.9111 13.479 33.9914ZM56.9854 33.9914C56.962 29.9181 53.7523 26.547 49.6758 26.3129C48.3404 26.2427 47.5906 26.8748 47.5672 28.2092C47.5438 32.0718 47.5438 35.9345 47.5672 39.7737C47.5672 41.1783 48.2232 41.7402 49.6055 41.7168C53.5883 41.6699 56.9854 38.1116 56.9854 33.9914ZM30.5582 56.3949C31.2142 56.3949 31.8937 56.4183 32.5497 56.3949C33.2994 56.3481 33.7914 55.9267 33.8148 55.1307C33.8148 54.3348 33.3696 53.8666 32.5965 53.8432C31.2377 53.7964 29.8788 53.7964 28.4965 53.8432C27.7234 53.8666 27.2548 54.288 27.2314 55.0839C27.208 55.8799 27.7 56.3247 28.4497 56.3715C29.1525 56.4417 29.8554 56.3949 30.5582 56.3949Z" fill="#3E2E5F"/>
<path d="M30.5346 26.5938C32.3385 24.9785 34.33 24.1825 36.6494 24.6976C41.5459 25.7744 43.5373 31.6035 40.1402 35.3257C37.4928 38.2286 34.6345 40.9442 31.8231 43.7065C30.9328 44.5727 29.9957 44.5025 29.0586 43.5661C26.4346 40.9676 23.7872 38.369 21.2101 35.7237C18.6798 33.1252 18.5627 29.3562 20.8821 26.7577C23.2015 24.1591 26.9266 23.8782 29.8317 26.0788C30.0426 26.2192 30.2534 26.3831 30.5346 26.5938ZM30.558 39.8205C32.9008 37.5263 35.3374 35.2321 37.6334 32.7975C38.6876 31.6972 38.4299 29.9414 37.3288 28.888C36.2511 27.8813 34.6345 27.7877 33.4865 28.7241C32.9243 29.1923 32.4323 29.7541 31.8934 30.2692C30.9328 31.1587 30.0894 31.1587 29.1054 30.2458C28.5666 29.7541 28.0746 29.1689 27.5123 28.7007C26.3409 27.7643 24.7478 27.8579 23.6701 28.888C22.6158 29.8946 22.3112 31.6504 23.3186 32.7038C25.6615 35.1619 28.1449 37.4561 30.558 39.8205Z" fill="#3E2E5F"/>
<path d="M30.5581 56.3948C29.8552 56.3948 29.1524 56.4416 28.4495 56.3714C27.6998 56.3011 27.2078 55.8797 27.2313 55.0838C27.2547 54.2879 27.7233 53.8665 28.4964 53.8431C29.8552 53.8197 31.2141 53.7963 32.5964 53.8431C33.3695 53.8665 33.8381 54.3347 33.8146 55.1306C33.8146 55.9266 33.2992 56.3479 32.5495 56.3948C31.8701 56.4416 31.2141 56.3948 30.5581 56.3948Z" fill="white"/>
</svg>
