<svg width="65" height="60" viewBox="0 0 65 60" fill="none" xmlns="http://www.w3.org/2000/svg">
<path d="M10.48 14.8045C9.64337 14.8045 8.80669 14.8298 7.99536 14.8045C6.47412 14.7541 5.73886 14.0227 5.7135 12.5095C5.68815 9.10466 5.68815 5.69987 5.7135 2.29508C5.7135 0.7314 6.49948 0 8.09678 0C16.8439 0 25.591 0 34.3381 0C36.0115 0 36.7467 0.7314 36.7721 2.37074C36.7975 5.69987 36.7975 9.00378 36.7721 12.3329C36.7721 14.0479 36.0368 14.7541 34.2621 14.7793C33.5014 14.8045 32.7662 14.7793 31.9802 14.7793C31.7267 16.1917 31.7774 17.2762 32.8169 18.3354C35.7579 21.3367 38.6229 24.4388 41.4119 27.5914C41.9697 28.2219 42.3753 29.2055 42.3753 30.0378C42.4514 38.1589 42.426 46.2547 42.426 54.3758C42.426 57.8058 40.2963 59.9496 36.7975 59.9496C26.453 59.9748 16.0833 59.9748 5.73886 59.9496C2.1893 59.9496 0.0849243 57.8058 0.0849243 54.2749C0.0849243 46.2547 0.110278 38.2093 0.0595703 30.1892C0.0595703 29.1047 0.363818 28.2724 1.09908 27.4653C3.93873 24.4641 6.67695 21.3871 9.56731 18.4363C10.6068 17.4023 10.8097 16.3178 10.48 14.8045ZM38.268 49.6595C38.268 43.5813 38.268 37.5788 38.268 31.5763C26.8587 31.5763 15.5255 31.5763 4.21762 31.5763C4.21762 37.6545 4.21762 43.6318 4.21762 49.6595C15.5762 49.6595 26.8587 49.6595 38.268 49.6595ZM14.7649 14.855C14.7395 15.3342 14.6635 15.662 14.7142 15.9899C15.0438 18.058 14.2071 19.5712 12.7366 21.0088C10.7336 22.976 8.88275 25.0946 6.85443 27.314C16.5396 27.314 25.9713 27.314 35.6312 27.314C33.2733 24.7667 31.0928 22.3707 28.8617 20.0504C28.0757 19.2182 27.6954 18.3354 27.7715 17.2257C27.8222 16.4439 27.7715 15.6873 27.7715 14.8802C23.3092 14.855 19.1004 14.855 14.7649 14.855ZM9.82085 10.6683C17.5031 10.6683 25.0332 10.6683 32.5887 10.6683C32.5887 8.42371 32.5887 6.27995 32.5887 4.13619C24.9572 4.13619 17.427 4.13619 9.82085 4.13619C9.82085 6.33039 9.82085 8.44893 9.82085 10.6683ZM4.21762 53.7957C3.98943 55.5864 4.29368 55.9395 6.04311 55.9395C16.1593 55.9395 26.3009 55.9395 36.4172 55.9395C38.1412 55.9395 38.4455 55.5612 38.1919 53.7957C26.8841 53.7957 15.5508 53.7957 4.21762 53.7957Z" fill="#3E2E5F"/>
<path d="M64.9659 39.2434C64.9659 42.6986 64.9913 46.1287 64.9659 49.5839C64.9406 55.4099 60.3769 60 54.6722 59.9748C48.9929 59.9496 44.4799 55.4099 44.4546 49.6343C44.4292 42.7491 44.4292 35.8638 44.4546 28.9786C44.4799 23.1778 48.9676 18.6633 54.6976 18.6633C60.4276 18.6633 64.9406 23.1526 64.9659 28.9281C64.9913 32.3582 64.9659 35.7882 64.9659 39.2434ZM60.8332 37.251C60.8332 34.0984 61.0361 30.9962 60.7825 27.9193C60.529 24.9685 57.8922 22.7995 55.0018 22.6986C51.8833 22.5978 49.069 24.5145 48.7394 27.5662C48.4098 30.744 48.6633 33.9723 48.6633 37.2258C52.6946 37.251 56.7259 37.251 60.8332 37.251ZM48.5366 41.4124C48.5366 44.4641 48.4098 47.3645 48.5619 50.2396C48.714 53.4174 51.4016 55.8386 54.5708 55.9395C57.5879 56.0404 60.4783 53.821 60.7572 50.744C61.0361 47.6671 60.8079 44.565 60.8079 41.4124C56.7259 41.4124 52.6946 41.4124 48.5366 41.4124Z" fill="#3E2E5F"/>
<path d="M23.8413 38.5624C25.109 38.5624 26.2499 38.5372 27.3655 38.5624C28.7346 38.5876 29.622 39.4199 29.5966 40.6053C29.5713 41.715 28.7092 42.5473 27.4162 42.5977C26.2752 42.6481 25.1597 42.5977 23.8159 42.5977C23.8159 43.7579 23.8413 44.8171 23.8159 45.9016C23.7906 47.4401 22.9539 48.3985 21.7115 48.348C20.4945 48.2976 19.7846 47.4149 19.7593 45.9016C19.7593 44.8676 19.7593 43.8083 19.7593 42.5977C18.5676 42.5977 17.4774 42.6229 16.4125 42.5977C14.8406 42.5725 13.9279 41.7906 13.9786 40.5044C14.0039 39.2686 14.866 38.5876 16.4125 38.5624C17.376 38.5372 18.3395 38.5372 19.3283 38.5372C19.4043 38.5372 19.4804 38.4867 19.7846 38.3859C19.7846 37.377 19.7846 36.3178 19.7846 35.2585C19.81 33.6444 20.5199 32.7869 21.8129 32.7869C23.0806 32.8121 23.8159 33.6948 23.8413 35.3089C23.8666 36.343 23.8413 37.377 23.8413 38.5624Z" fill="#3E2E5F"/>
</svg>
