<svg width="61" height="60" viewBox="0 0 61 60" fill="none" xmlns="http://www.w3.org/2000/svg">
<path d="M30.535 10.4806C41.3439 10.5041 49.9958 19.2497 49.9723 30.082C49.9254 40.8675 41.1564 49.5428 30.3475 49.4959C19.6323 49.449 10.9571 40.7034 10.9805 29.9648C11.004 19.1325 19.7261 10.4572 30.535 10.4806ZM30.4881 19.109C29.5034 20.6096 28.589 21.8054 27.909 23.1418C27.018 24.8534 25.7988 25.9085 23.8058 26.1196C22.657 26.2602 21.5315 26.6823 20.4061 26.9871C19.2103 27.3153 19.14 27.4795 19.8902 28.4173C20.9688 29.7538 22.1177 31.0434 23.1259 32.4267C23.4776 32.9191 23.7121 33.599 23.7121 34.1852C23.7121 35.8968 23.5479 37.6084 23.4541 39.32C23.3838 40.6565 23.501 40.7503 24.7203 40.2813C26.3146 39.6717 27.909 38.9918 29.5268 38.4525C30.0895 38.2649 30.8398 38.2649 31.4026 38.4525C32.9969 38.9683 34.5444 39.6483 36.0919 40.2345C37.4283 40.7503 37.5456 40.6565 37.4518 39.1794C37.358 37.5146 37.1939 35.8265 37.1704 34.1618C37.1704 33.599 37.358 32.9425 37.6863 32.4971C38.7648 31.0668 39.9371 29.6835 41.086 28.3235C41.7191 27.5733 41.555 27.1981 40.6405 26.9871C39.7965 26.7995 38.9993 26.4478 38.1552 26.354C35.4354 26.0727 33.6065 24.6893 32.4811 22.204C32.0591 21.1958 31.2853 20.3048 30.4881 19.109Z" fill="#3E2E5F"/>
<path d="M29.5736 3.75147C29.5736 2.86049 29.4798 1.94607 29.6205 1.07855C29.6908 0.679953 30.2301 0.3517 30.5584 0C30.8397 0.3517 31.379 0.7034 31.379 1.0551C31.4728 2.83705 31.4728 4.64244 31.379 6.42438C31.3555 6.79953 30.7694 7.12778 30.4411 7.47948C30.1598 7.12778 29.6674 6.79953 29.6205 6.42438C29.4798 5.55686 29.5736 4.64244 29.5736 3.75147Z" fill="#3E2E5F"/>
<path d="M4.22801 30.9262C3.36048 30.9262 2.49296 31.0199 1.67232 30.8793C1.25028 30.8089 0.898584 30.3165 0.523438 30.0117C0.922031 29.6835 1.32062 29.1208 1.74266 29.0973C3.40738 28.9801 5.09554 29.0035 6.76025 29.0973C7.20574 29.1208 7.90913 29.5897 7.95603 29.9648C8.09671 30.7855 7.36986 30.9262 6.68991 30.9262C5.84583 30.9027 5.04864 30.9262 4.22801 30.9262Z" fill="#3E2E5F"/>
<path d="M56.8189 29.0738C57.6864 29.0738 58.5539 28.9801 59.398 29.1207C59.7966 29.1911 60.1483 29.7069 60.5 30.0352C60.1483 30.34 59.82 30.8792 59.4683 30.9027C57.6395 30.9965 55.8107 30.9965 53.9584 30.9027C53.6301 30.8792 53.3019 30.3165 52.9971 29.9883C53.3488 29.6835 53.6536 29.1911 54.0287 29.1442C54.9431 28.9801 55.881 29.0738 56.8189 29.0738Z" fill="#3E2E5F"/>
<path d="M31.4031 56.2485C31.4031 57.1395 31.4969 58.0539 31.3562 58.9449C31.3093 59.3201 30.7935 59.6483 30.5121 60C30.1839 59.6483 29.6211 59.2966 29.5977 58.898C29.5039 57.1161 29.5039 55.3107 29.5977 53.5053C29.6211 53.1536 30.137 52.8253 30.4418 52.4736C30.77 52.8253 31.2858 53.1536 31.3562 53.5522C31.4969 54.4432 31.4031 55.3576 31.4031 56.2485Z" fill="#3E2E5F"/>
<path d="M16.1619 56.0609C15.2944 56.0609 14.8255 55.4044 15.1772 54.7479C16.0916 53.0832 17.0294 51.4185 18.0377 49.8007C18.2018 49.5428 18.8114 49.5662 19.2334 49.449C19.3272 49.8945 19.6555 50.4337 19.4913 50.7385C18.6707 52.3564 17.7328 53.9273 16.795 55.4982C16.6308 55.7796 16.3026 55.9437 16.1619 56.0609Z" fill="#3E2E5F"/>
<path d="M19.8903 9.70694C19.5855 10.0586 19.3979 10.4807 19.14 10.5041C18.7883 10.551 18.2021 10.4338 18.038 10.1759C17.0063 8.53461 16.045 6.84645 15.1306 5.13484C15.0134 4.90037 15.1775 4.3611 15.412 4.12663C15.5995 3.93906 16.256 3.89217 16.3498 4.03285C17.5456 5.88513 18.6945 7.76087 19.8903 9.70694Z" fill="#3E2E5F"/>
<path d="M5.26005 14.4431C5.61175 14.6072 5.82277 14.6776 6.03379 14.7948C7.48748 15.6154 8.94117 16.4595 10.3949 17.3036C11.0045 17.6553 11.4031 18.1242 10.981 18.8042C10.559 19.4607 9.99627 19.1793 9.457 18.8745C7.97986 18.007 6.47928 17.1864 5.02558 16.272C4.72078 16.0844 4.5332 15.5217 4.5332 15.1231C4.5332 14.8886 5.00214 14.6541 5.26005 14.4431Z" fill="#3E2E5F"/>
<path d="M50.5582 19.2262C50.3941 19.0855 50.019 18.8745 49.9721 18.6166C49.9017 18.2883 49.9955 17.7256 50.23 17.5849C51.9181 16.5298 53.6297 15.5451 55.3648 14.6072C55.5993 14.49 56.2089 14.6775 56.3261 14.912C56.4902 15.2168 56.4668 15.8968 56.2558 16.014C54.5207 17.116 52.7153 18.1008 50.9334 19.1324C50.8865 19.2028 50.8161 19.2028 50.5582 19.2262Z" fill="#3E2E5F"/>
<path d="M42.3286 10.5979C41.4376 10.5745 41.039 9.94139 41.4142 9.26144C42.3051 7.62018 43.243 6.00236 44.2512 4.43143C44.4388 4.15007 45.0718 4.15007 45.5173 4.03284C45.6111 4.43143 45.9159 4.9707 45.7518 5.25206C44.8843 6.89333 43.9464 8.51115 42.9851 10.1055C42.821 10.3634 42.4693 10.5041 42.3286 10.5979Z" fill="#3E2E5F"/>
<path d="M5.35308 45.6038C5.02483 45.3224 4.60279 45.1583 4.53245 44.9239C4.43866 44.6191 4.53245 44.0329 4.74347 43.9157C6.45507 42.8371 8.21357 41.8289 9.97207 40.8676C10.1831 40.7504 10.7458 40.9145 10.8865 41.1255C11.0506 41.3834 11.121 42.0634 10.9568 42.1572C9.12799 43.3295 7.27571 44.4315 5.35308 45.6038Z" fill="#3E2E5F"/>
<path d="M56.5612 44.3377C56.5612 45.2521 55.9281 45.6507 55.2481 45.2756C53.6069 44.3846 51.9891 43.4702 50.4181 42.462C50.1368 42.2744 50.1368 41.6413 49.9961 41.1958C50.4416 41.1021 50.9809 40.7972 51.2857 40.9614C52.9035 41.8055 54.4744 42.7433 56.0219 43.6812C56.2798 43.8688 56.4439 44.2205 56.5612 44.3377Z" fill="#3E2E5F"/>
<path d="M46.1035 55.1232C45.8455 55.4514 45.6814 55.8734 45.4235 55.9438C45.1187 56.0376 44.5325 55.9672 44.3918 55.7562C43.3133 54.0446 42.3051 52.3096 41.3438 50.5276C41.2265 50.3166 41.3907 49.7539 41.6017 49.6132C41.8596 49.4491 42.5396 49.3787 42.6333 49.5194C43.8291 51.3482 44.9311 53.2005 46.1035 55.1232Z" fill="#3E2E5F"/>
<path d="M30.4883 19.109C31.2855 20.3048 32.0358 21.2192 32.5047 22.2509C33.6536 24.7128 35.459 26.1196 38.1788 26.4009C39.0229 26.4947 39.8435 26.823 40.6641 27.034C41.5785 27.245 41.7661 27.6201 41.1096 28.3704C39.9373 29.7303 38.7884 31.1137 37.7098 32.5439C37.3816 32.9894 37.1706 33.6459 37.194 34.2087C37.2175 35.8734 37.3816 37.5615 37.4754 39.2262C37.5457 40.7034 37.4519 40.7972 36.1155 40.2813C34.5445 39.6717 32.9971 39.0152 31.4261 38.4994C30.8634 38.3118 30.1131 38.3118 29.5504 38.4994C27.9326 39.0387 26.3382 39.7186 24.7438 40.3282C23.5246 40.7972 23.4074 40.7034 23.4777 39.3669C23.5481 37.6553 23.7122 35.9437 23.7356 34.2321C23.7356 33.6459 23.5012 32.9425 23.1495 32.4736C22.1413 31.0903 20.9924 29.8007 19.9138 28.4642C19.1635 27.5264 19.2104 27.3622 20.4297 27.034C21.5551 26.7292 22.6805 26.3071 23.8294 26.1665C25.7989 25.932 27.0182 24.9003 27.9326 23.1887C28.6125 21.8054 29.527 20.5861 30.4883 19.109Z" fill="white"/>
</svg>
