<svg width="61" height="61" viewBox="0 0 61 61" fill="none" xmlns="http://www.w3.org/2000/svg">
<path d="M26.4123 5.4976C30.7122 8.5752 34.6726 11.4161 38.6612 14.2043C41.2355 15.993 42.5085 18.2815 42.4236 21.3065C42.3388 24.1736 42.3953 27.0671 42.3953 29.9343C44.0361 30.0395 45.5354 30.0658 47.0064 30.2762C55.1252 31.4336 60.9526 38.2727 60.4717 46.0325C60.0191 53.4503 53.2581 59.6581 45.3091 60.0263C36.9922 60.3946 29.7786 55.0022 28.4774 47.5055C27.9116 44.2701 28.2794 41.1399 30.0332 38.3516C31.1931 36.5103 31.0799 34.7216 31.0233 32.7488C24.6584 32.7488 18.3501 32.7488 11.9569 32.7488C11.9569 37.2205 11.9569 41.6923 11.9569 46.3481C14.2765 46.3481 16.6245 46.3481 18.9724 46.3481C20.5283 46.3481 22.0842 46.3218 23.64 46.3481C24.6867 46.3744 25.3656 46.9005 25.3939 47.8738C25.4222 48.9259 24.715 49.5046 23.6117 49.5046C19.1704 49.5309 14.7574 49.5309 10.3161 49.5046C9.12801 49.5046 8.44908 48.8996 8.44908 47.7948C8.42079 42.2709 8.42079 36.7471 8.44908 31.2232C8.44908 30.1184 9.12801 29.5134 10.3161 29.5134C17.7277 29.5134 25.111 29.5134 32.5226 29.5134C33.7956 29.5134 34.4463 30.1184 34.4745 31.3021C34.4745 31.8282 34.4745 32.3542 34.4745 32.9855C35.9455 32.2753 37.36 31.6703 38.7178 30.9338C38.9441 30.8286 38.9724 30.3288 38.9724 29.9869C39.0007 26.883 39.1139 23.7528 38.9158 20.6488C38.831 19.5441 38.2652 18.1236 37.36 17.4397C33.2016 14.2306 28.8451 11.2319 24.4604 8.10172C23.244 9.94302 23.0177 11.8632 23.1591 13.836C26.4689 15.6247 27.657 17.7028 26.8649 20.3069C26.1577 22.6743 23.9512 24.2525 21.3487 24.2262C18.831 24.1999 16.6528 22.6217 15.9738 20.3069C15.21 17.7028 16.3982 15.6247 19.3685 14.0202C19.9059 11.4424 20.4151 9.07498 20.9526 6.62868C20.5566 6.83912 20.0191 7.02325 19.5665 7.3389C15.0686 10.4954 10.5707 13.7045 6.07284 16.8873C4.57355 17.9395 3.89463 19.3073 3.89463 21.0697C3.92291 31.1442 3.92291 41.2188 3.92291 51.3196C3.92291 53.2135 4.40382 53.6607 6.41231 53.6607C12.9752 53.6607 19.5099 53.6607 26.0728 53.6607C26.4972 53.6607 27.0347 53.5292 27.3175 53.7133C27.8833 54.1079 28.7037 54.6866 28.7037 55.2126C28.7037 55.7387 27.9116 56.3174 27.3741 56.7646C27.1478 56.9487 26.6386 56.8172 26.2709 56.8172C19.5665 56.8172 12.8904 56.8172 6.186 56.8172C2.56506 56.8172 0.528289 54.897 0.528289 51.5037C0.528289 41.324 0.556577 31.1706 0.5 20.9908C0.5 18.2026 1.68812 16.0456 4.06436 14.3621C8.53395 11.2056 12.9752 8.04911 17.4165 4.83999C19.0856 3.63 20.8678 3.15652 22.9611 3.57739C23.3571 3.6563 23.9512 3.47217 24.319 3.20913C28.93 -0.289337 34.6443 -0.973247 39.6231 1.44674C44.5736 3.86674 47.4024 8.75933 46.9215 14.1254C46.8366 15.1513 46.2991 15.8089 45.1676 15.7826C44.1209 15.7563 43.5835 15.125 43.5269 14.1517C43.442 12.9417 43.4986 11.6791 43.2157 10.4954C41.6598 3.86674 32.9752 0.973267 27.2044 5.10304C27.0064 5.20825 26.7801 5.28717 26.4123 5.4976ZM44.319 56.8172C51.3062 56.8435 57.0488 51.5827 57.1054 45.1118C57.162 38.562 51.4477 33.196 44.4321 33.1697C37.4448 33.1434 31.7023 38.4305 31.6457 44.8751C31.5891 51.4248 37.3034 56.8172 44.319 56.8172ZM21.4901 16.861C20.2737 16.8347 19.227 17.7817 19.1987 18.9128C19.1704 20.0439 20.1888 21.0171 21.4052 21.0434C22.6216 21.0697 23.6683 20.1228 23.6966 18.9917C23.7249 17.8606 22.7065 16.8873 21.4901 16.861Z" fill="#3E2E5F"/>
<path d="M21.4049 35.274C22.8194 35.274 24.2338 35.274 25.6482 35.274C26.8081 35.274 27.6284 35.7212 27.6284 36.8523C27.6284 37.9834 26.8081 38.4305 25.6482 38.4305C22.8194 38.4305 19.9905 38.4305 17.1617 38.4305C16.0018 38.4305 15.2098 37.9307 15.238 36.7997C15.2663 35.7475 16.0301 35.274 17.1334 35.274C18.5761 35.2477 19.9905 35.274 21.4049 35.274Z" fill="#3E2E5F"/>
<path d="M20.4433 40.5349C21.49 40.5349 22.5083 40.5086 23.555 40.5349C24.6583 40.5612 25.3938 41.061 25.3938 42.1131C25.3938 43.1653 24.6583 43.6651 23.555 43.6914C21.3768 43.6914 19.2269 43.7177 17.0487 43.6914C16.002 43.6914 15.3231 43.1653 15.2948 42.1657C15.2665 41.1136 15.9737 40.5612 17.0769 40.5349C18.1802 40.5086 19.3117 40.5349 20.4433 40.5349Z" fill="#3E2E5F"/>
</svg>
