<svg width="61" height="60" viewBox="0 0 61 60" fill="none" xmlns="http://www.w3.org/2000/svg">
<g clip-path="url(#clip0_499_1471)">
<path d="M56.1268 17.1249C54.8053 17.1249 53.5468 17.0305 52.3198 17.1249C45.9957 17.6286 42.7865 14.7954 43.3528 8.05882C43.4472 6.8626 43.3528 5.66638 43.3528 4.31276C42.755 4.28128 42.2516 4.21832 41.7482 4.21832C34.7319 4.21832 27.6842 4.21832 20.668 4.21832C18.3082 4.21832 17.616 4.91087 17.616 7.33479C17.616 11.1123 17.616 14.8899 17.616 18.6674C17.616 20.4303 16.8295 21.4061 15.4766 21.4061C14.1551 21.4061 13.3371 20.3988 13.3371 18.6674C13.3056 14.6695 13.3056 10.7031 13.3371 6.7052C13.4 2.64434 16.0114 0.0315417 20.0702 0.0315417C28.3449 6.21891e-05 36.6512 6.21891e-05 44.926 0.0630213C45.7755 0.0630213 46.8137 0.472255 47.4115 1.07037C51.4703 5.00531 55.4975 9.00321 59.4304 13.0955C60.0282 13.6937 60.4372 14.7325 60.4372 15.5824C60.5002 28.1742 60.5002 40.7661 60.4687 53.3579C60.4687 57.3243 57.7943 60.0001 53.8615 60.0315C48.4184 60.063 42.9438 60.063 37.5007 60.0315C35.7702 60.0315 34.7949 59.2131 34.8263 57.8595C34.8263 56.5058 35.7702 55.7818 37.5636 55.7818C42.755 55.7818 47.9464 55.7818 53.1378 55.7818C55.529 55.7818 56.2526 55.0578 56.2526 52.6968C56.2526 41.3642 56.2526 30.0315 56.2526 18.6989C56.2212 18.1952 56.1897 17.723 56.1268 17.1249ZM52.9805 12.6548C51.25 10.7661 49.7398 9.12913 48.2296 7.46071C47.1284 12.2456 48.0093 13.1585 52.9805 12.6548Z" fill="#3E2E5F"/>
<path d="M17.7107 59.9686C8.24029 60 0.56331 52.382 0.500384 42.9696C0.437458 33.4628 8.11444 25.6873 17.5533 25.6559C26.9923 25.6244 34.7951 33.3998 34.7951 42.8437C34.7951 52.2561 27.1181 59.9686 17.7107 59.9686ZM30.4847 42.8437C30.4847 35.6978 24.6955 29.9686 17.5533 30C10.5371 30.0315 4.74789 35.8552 4.74789 42.8437C4.74789 49.8951 10.6315 55.7503 17.7107 55.7188C24.6955 55.6873 30.4847 49.8636 30.4847 42.8437Z" fill="#3E2E5F"/>
<path d="M30.4218 17.1249C28.4396 17.1249 26.4574 17.1564 24.4438 17.1249C22.8392 17.0934 21.9268 16.2749 21.9268 14.9528C21.9268 13.6621 22.9021 12.8122 24.4753 12.8122C28.4396 12.7807 32.4354 12.7807 36.3998 12.8122C38.0673 12.8122 39.0426 13.7251 39.0112 15.0787C38.9483 16.4009 38.0358 17.1249 36.3683 17.1249C34.4176 17.1249 32.4354 17.1249 30.4218 17.1249Z" fill="#3E2E5F"/>
<path d="M43.2269 27.828C41.2448 27.828 39.2626 27.8595 37.2804 27.828C35.7702 27.7965 34.8578 27.0096 34.8263 25.7504C34.7634 24.4282 35.6758 23.5468 37.2804 23.5468C41.3706 23.5153 45.4293 23.5153 49.5195 23.5468C51.0298 23.5468 51.9107 24.4282 51.9107 25.6874C51.9107 26.9151 50.9668 27.7965 49.5195 27.828C47.4115 27.8595 45.3349 27.828 43.2269 27.828Z" fill="#3E2E5F"/>
<path d="M45.4298 38.531C44.0768 38.531 42.6925 38.5624 41.3396 38.531C39.9866 38.468 39.0742 37.5866 39.0742 36.4218C39.0742 35.2571 39.9866 34.3127 41.3396 34.2812C44.1083 34.2183 46.9085 34.2183 49.6773 34.2812C50.9987 34.3127 51.8482 35.0053 51.9111 36.3904C51.9741 37.6495 50.9987 38.4995 49.5199 38.531C48.1356 38.5624 46.7827 38.531 45.4298 38.531Z" fill="#3E2E5F"/>
<path d="M45.4296 49.2341C44.0767 49.2341 42.7238 49.2341 41.3709 49.2341C39.9865 49.2341 39.2314 48.4786 39.0741 47.1879C38.9483 46.0861 39.9551 45.0158 41.2451 44.9844C44.0767 44.9214 46.8769 44.9214 49.7086 44.9844C51.0615 45.0158 51.9425 45.9602 51.911 47.125C51.911 48.3212 51.0301 49.2026 49.6772 49.2341C48.2613 49.2656 46.8455 49.2341 45.4296 49.2341Z" fill="#3E2E5F"/>
<path d="M23.2796 37.0199C24.0976 37.8069 24.1605 39.1291 23.4683 40.042C23.4054 40.1049 23.3425 40.1994 23.2796 40.2623C20.5737 43.0325 17.8364 45.7712 15.0677 48.4785C14.0609 49.4858 12.6765 49.5173 11.8585 48.6674C11.009 47.7859 11.0404 46.4638 12.0158 45.425C14.7531 42.6233 17.5218 39.8216 20.385 37.1459C20.9198 36.6737 22.084 36.4848 22.7761 36.7051C22.9649 36.7366 23.1222 36.8625 23.2796 37.0199Z" fill="#3E2E5F"/>
<path d="M21.8633 49.2341C20.6363 49.2026 19.7238 48.1953 19.8182 46.9676C19.8812 45.8343 20.888 44.9529 22.0206 44.9843C23.1219 45.0158 24.0972 46.0232 24.0972 47.1249C24.0972 48.2897 23.0589 49.2656 21.8633 49.2341Z" fill="#3E2E5F"/>
<path d="M13.3058 40.7031C12.1417 40.6716 11.2607 39.7272 11.2607 38.531C11.2607 37.2718 12.2676 36.3589 13.4946 36.4219C14.6587 36.4849 15.5397 37.4922 15.4768 38.6569C15.4139 39.8217 14.4385 40.7346 13.3058 40.7031Z" fill="#3E2E5F"/>
</g>
<defs>
<clipPath id="clip0_499_1471">
<rect width="60" height="60" fill="white" transform="translate(0.5)"/>
</clipPath>
</defs>
</svg>
