<svg width="61" height="60" viewBox="0 0 61 60" fill="none" xmlns="http://www.w3.org/2000/svg">
<path d="M30.4875 3.522C30.9623 2.99744 31.2872 2.62275 31.637 2.24807C34.4608 -0.749436 38.6591 -0.749436 41.408 2.323C45.2064 6.56946 48.9298 10.8909 52.6783 15.2123C53.1781 15.8118 53.7028 16.0366 54.4775 16.0366C57.9011 16.0616 60.5 18.6344 60.5 22.0566C60.525 32.6727 60.525 43.2889 60.5 53.905C60.5 57.4021 57.9011 59.975 54.4025 59.975C38.4842 59.9999 22.5908 59.9999 6.67243 59.975C3.09892 59.975 0.52499 57.3771 0.52499 53.8051C0.5 43.2889 0.5 32.7726 0.5 22.2314C0.5 18.6344 3.02395 16.1365 6.59746 15.9866C7.17222 15.9616 7.87193 15.6369 8.24677 15.2123C11.8703 11.1407 15.4438 7.01909 19.0423 2.9225C22.3909 -0.92429 26.3892 -0.974249 29.8128 2.79761C30.0377 2.99744 30.2126 3.22225 30.4875 3.522ZM56.4767 29.9999C56.4767 27.477 56.4767 25.129 56.4767 22.756C56.4767 20.6327 55.8519 20.0083 53.7278 20.0083C38.2343 20.0083 22.7407 20.0083 7.24719 20.0083C5.12307 20.0083 4.49833 20.6327 4.49833 22.756C4.49833 32.8725 4.49833 42.9891 4.49833 53.1057C4.49833 55.4038 5.07309 55.9783 7.37214 55.9783C22.4159 55.9783 37.4346 55.9783 52.4783 55.9783C56.3267 55.9783 56.4767 55.8284 56.4767 51.9816C56.4767 50.0083 56.4767 48.0349 56.4767 45.9866C51.9536 45.9866 47.6304 45.9866 43.3072 45.9866C38.834 45.9866 36.485 43.6136 36.485 39.1173C36.485 38.293 36.485 37.4437 36.485 36.6194C36.485 32.4479 38.934 29.9999 43.0573 29.9999C47.4804 29.9999 51.8786 29.9999 56.4767 29.9999ZM36.0102 15.9616C32.7865 12.2647 29.7128 8.76763 26.6391 5.27055C25.2397 3.6469 23.7653 3.6469 22.3409 5.24557C19.4921 8.49286 16.6433 11.7651 13.7945 15.0124C13.5696 15.2872 13.3446 15.562 13.0448 15.9616C20.7416 15.9616 28.2384 15.9616 36.0102 15.9616ZM33.1614 6.61942C35.5354 9.31717 37.9094 11.94 40.1585 14.6377C41.0331 15.7118 41.9327 16.1615 43.3322 16.0366C44.8065 15.9117 46.3309 16.0116 48.0802 16.0116C44.7066 12.1648 41.5829 8.54282 38.4092 4.9708C37.3846 3.82175 35.9102 3.72184 34.8857 4.721C34.2609 5.29553 33.7611 5.94498 33.1614 6.61942ZM50.5292 41.89C52.5783 41.89 54.5025 41.89 56.4017 41.89C56.4017 39.2422 56.4017 36.6694 56.4017 34.0715C54.4275 34.0715 52.5033 34.0715 50.5292 34.0715C50.5292 36.7193 50.5292 39.2672 50.5292 41.89ZM46.4059 41.9899C46.4059 39.2422 46.4059 36.6694 46.4059 34.0216C45.0314 34.0216 43.757 33.9716 42.4825 34.0216C41.333 34.0715 40.5583 34.8459 40.5083 36.0199C40.4584 37.3438 40.4584 38.6677 40.5083 39.9916C40.5583 41.1656 41.308 41.94 42.4825 41.9899C43.757 42.0399 45.0314 41.9899 46.4059 41.9899Z" fill="#3E2E5F"/>
<path d="M14.4938 28.0765C14.4938 28.4013 14.5188 28.751 14.4938 29.0757C14.3939 30.2248 13.5192 31.0241 12.4697 30.9991C11.4451 30.9741 10.6205 30.1998 10.5205 29.1007C10.4705 28.4762 10.4955 27.8517 10.4955 27.2273C10.5205 25.8784 11.3202 25.0041 12.4697 24.9791C13.6442 24.9791 14.4439 25.8534 14.4938 27.1773C14.5188 27.502 14.5188 27.8018 14.4938 28.0765Z" fill="#3E2E5F"/>
<path d="M14.494 38.1681C14.494 38.5428 14.544 38.9175 14.494 39.2922C14.2941 40.3413 13.6193 40.9907 12.5198 40.9907C11.4203 40.9907 10.7205 40.3413 10.5706 39.2672C10.4457 38.4928 10.4956 37.6935 10.5456 36.9191C10.6206 35.82 11.4452 35.0457 12.4698 35.0207C13.5444 34.9957 14.419 35.7951 14.519 36.9441C14.519 37.3438 14.494 37.7434 14.494 38.1681Z" fill="#3E2E5F"/>
<path d="M14.4946 48.0599C14.4946 48.3847 14.5196 48.7344 14.4946 49.0591C14.3947 50.2082 13.545 51.0075 12.4705 51.0075C11.3959 50.9825 10.5712 50.1832 10.4963 49.0092C10.4713 48.3847 10.4713 47.7602 10.4963 47.1357C10.5463 45.8868 11.3459 45.0375 12.4705 45.0125C13.645 44.9875 14.4446 45.8618 14.4946 47.1857C14.5196 47.4854 14.5196 47.7602 14.4946 48.0599Z" fill="#3E2E5F"/>
</svg>
